<?xml version="1.0" standalone="no"?>
<!DOCTYPE svg PUBLIC "-//W3C//DTD SVG 1.1//EN" "http://www.w3.org/Graphics/SVG/1.1/DTD/svg11.dtd" >
<svg xmlns="http://www.w3.org/2000/svg">
<metadata>Generated by IcoMoon</metadata>
<defs>
<font id="ar-icons" horiz-adv-x="1024">
<font-face units-per-em="1024" ascent="960" descent="-64" />
<missing-glyph horiz-adv-x="1024" />
<glyph unicode="&#x20;" horiz-adv-x="512" d="" />
<glyph unicode="&#xe900;" glyph-name="account" d="M750.899 683.059h-477.798c-40.569-0.174-73.392-33.088-73.421-73.674v-322.563c0.029-40.661 32.969-73.619 73.62-73.677h477.804c40.409 0.289 73.072 33.042 73.216 73.458v322.574c0 0.046 0 0.1 0 0.154 0 40.611-32.834 73.553-73.404 73.727h-0.017zM780.595 609.382v-322.56c0-16.344-13.25-29.594-29.594-29.594v0h-477.901c-16.332 0.029-29.565 13.261-29.594 29.591v322.563c0.029 16.332 13.261 29.565 29.591 29.594h477.801c0.015 0 0.033 0 0.051 0 16.354 0 29.616-13.243 29.645-29.591v-0.003zM395.827 445.389c0.015 0 0.033 0 0.051 0 37.128 0 67.226 30.098 67.226 67.226s-30.098 67.226-67.226 67.226c-37.128 0-67.226-30.098-67.226-67.226 0-0.018 0-0.036 0-0.054v0.003c0.029-37.088 30.087-67.145 67.172-67.174h0.003zM372.582 512.563c0 12.781 10.361 23.142 23.142 23.142s23.142-10.361 23.142-23.142c0-12.781-10.361-23.142-23.142-23.142v0c-12.769 0.029-23.113 10.373-23.142 23.14v0.003zM440.986 424.858h-90.368c-40.679-0.029-73.648-32.998-73.677-73.674v-12.905c0-12.131 9.834-21.965 21.965-21.965s21.965 9.834 21.965 21.965v12.902c0.029 16.332 13.261 29.565 29.591 29.594h90.371c16.344 0 29.594-13.25 29.594-29.594v0-12.902c0-12.131 9.834-21.965 21.965-21.965s21.965 9.834 21.965 21.965v12.902c0 0.076 0 0.166 0 0.256 0 40.531-32.843 73.392-73.367 73.421h-0.003zM725.094 566.784h-142.080c-12.131 0-21.965-9.834-21.965-21.965s9.834-21.965 21.965-21.965h142.080c12.131 0 21.965 9.834 21.965 21.965s-9.834 21.965-21.965 21.965v0zM725.094 463.36h-142.080c-12.131 0-21.965-9.834-21.965-21.965s9.834-21.965 21.965-21.965h142.080c12.131 0 21.965 9.834 21.965 21.965s-9.834 21.965-21.965 21.965v0zM725.094 360.243h-142.080c-12.131 0-21.965-9.834-21.965-21.965s9.834-21.965 21.965-21.965h142.080c12.131 0 21.965 9.834 21.965 21.965s-9.834 21.965-21.965 21.965v0z" />
<glyph unicode="&#xe901;" glyph-name="dashboard" d="M687.718 579.789c5.027-5.015 8.136-11.949 8.136-19.61s-3.11-14.595-8.136-19.609l-90.369-90.42c7.403-13.398 11.759-29.371 11.759-46.363 0-53.726-43.554-97.28-97.28-97.28s-97.28 43.554-97.28 97.28c0 53.726 43.554 97.28 97.28 97.28 16.947 0 32.881-4.333 46.756-11.952l-0.505 0.254 90.368 90.419c5.017 5.042 11.962 8.162 19.635 8.162s14.618-3.12 19.634-8.161l0.001-0.001zM553.523 404.070c-0.029 22.911-18.609 41.472-41.523 41.472-22.933 0-41.523-18.591-41.523-41.523s18.591-41.523 41.523-41.523v0c22.939 0.029 41.523 18.631 41.523 41.574 0 0 0 0 0 0v0zM239.923 263.68c-21.461 40.761-34.056 89.072-34.056 140.324 0 169.068 137.057 306.125 306.125 306.125s306.125-137.057 306.125-306.125c0-51.476-12.705-99.984-35.151-142.56l0.803 1.672c-1.96-3.734-3.11-8.159-3.11-12.852 0-15.524 12.585-28.109 28.109-28.109 0.049 0 0.099 0 0.148 0h-0.008c0.029 0 0.063 0 0.097 0 10.762 0 20.108 6.059 24.815 14.952l0.074 0.153c25.549 48.255 40.548 105.484 40.548 166.217 0 6.025-0.148 12.016-0.439 17.969l0.033-0.839c-8.755 193.178-171.059 346.778-364.544 345.498-199.080-1.363-359.939-163.063-359.939-362.334 0-60.89 15.019-118.273 41.556-168.644l-0.951 1.98c4.775-9.016 14.098-15.053 24.831-15.053 0.018 0 0.037 0 0.055 0h-0.003c0.045 0 0.098 0 0.152 0 15.552 0 28.16 12.608 28.16 28.16 0 4.937-1.27 9.577-3.502 13.611l0.073-0.145z" />
<glyph unicode="&#xe902;" glyph-name="bug" d="M723.507 469.658c-5.317 24.26-12.756 45.598-22.38 65.692l0.774-1.794c42.961 18.202 72.551 60.013 72.551 108.736 0 0.094 0 0.189 0 0.283v-0.015c-0.613 12.943-11.255 23.204-24.294 23.204s-23.682-10.262-24.292-23.15l-0.002-0.055c0.001-0.158 0.002-0.345 0.002-0.531 0-30.986-20.435-57.199-48.563-65.898l-0.489-0.13c-12.815 17.831-27.36 33.253-43.699 46.556l-0.435 0.343c0.546 4.357 0.862 9.407 0.87 14.53v0.011c-1.398 66.020-55.248 119.004-121.472 119.004s-120.074-52.984-121.47-118.873l-0.002-0.13c0-0.005 0-0.011 0-0.018 0-5.12 0.335-10.162 0.984-15.105l-0.062 0.581c-16.806-13.634-31.369-29.058-43.703-46.194l-0.483-0.705c-28.617 8.829-49.052 35.043-49.052 66.029 0 0.187 0.001 0.374 0.002 0.56v-0.029c0 13.403-10.866 24.269-24.269 24.269s-24.269-10.866-24.269-24.269v0c0-0.086 0-0.188 0-0.29 0-48.703 29.566-90.501 71.729-108.424l0.771-0.291c-8.85-18.299-16.29-39.638-21.237-61.915l-0.37-1.982c-56.702-9.156-99.482-57.748-99.482-116.333 0-0.016 0-0.032 0-0.047v0.002c-0.016-0.333-0.026-0.723-0.026-1.116 0-13.432 10.888-24.32 24.32-24.32s24.32 10.888 24.32 24.32c0 0.392-0.009 0.783-0.028 1.17l0.002-0.055c0.031 29.166 18.081 54.108 43.616 64.296l0.467 0.165c0-5.12-0.358-10.547-0.358-15.872-0.003-0.472-0.004-1.030-0.004-1.589 0-47.237 10.61-91.996 29.577-132.023l-0.799 1.874c-42.933-18.214-72.499-60.011-72.499-108.715 0-0.048 0-0.096 0-0.144v0.007c0-13.403 10.866-24.269 24.269-24.269s24.269 10.866 24.269 24.269v0c-0.001 0.158-0.002 0.345-0.002 0.531 0 30.986 20.435 57.199 48.563 65.898l0.489 0.13c40.090-55.603 98.355-90.573 164.762-90.573s124.57 34.97 164.71 90.573c28.617-8.829 49.052-35.043 49.052-66.029 0-0.187-0.001-0.374-0.002-0.56v0.029c-0.016-0.333-0.026-0.723-0.026-1.116 0-13.432 10.888-24.32 24.32-24.32s24.32 10.888 24.32 24.32c0 0.392-0.009 0.783-0.028 1.17l0.002-0.055c0 0.004 0 0.008 0 0.013 0 48.723-29.59 90.534-71.779 108.445l-0.771 0.291c18.201 38.129 28.831 82.869 28.831 130.091 0 0.633-0.002 1.265-0.006 1.897v-0.097c0 5.12 0 10.598-0.41 15.872 26.024-10.337 44.095-35.283 44.134-64.456v-0.005c0-13.403 10.866-24.269 24.269-24.269s24.269 10.866 24.269 24.269v0c-0.003 58.582-42.782 107.171-98.805 116.236l-0.677 0.090zM487.987 188.058c-74.957 13.466-145.971 96.102-145.971 213.862 0 103.117 59.494 198.195 145.766 213.965zM440.73 652.339c7.090 33.401 36.334 58.099 71.347 58.099s64.258-24.698 71.262-57.622l0.085-0.477c-21.073 9.031-45.597 14.283-71.347 14.283s-50.274-5.251-72.559-14.741l1.212 0.459zM536.371 187.853v427.981c87.603-16.026 145.766-112.64 145.766-213.965 0-117.709-70.912-200.346-145.766-214.016z" />
<glyph unicode="&#xe903;" glyph-name="api" d="M767.181 672.358h-510.464c-32.071-0.058-58.054-26.041-58.112-58.106v-332.806c0.116-32.017 26.083-57.929 58.109-57.958h510.569c32.071 0.058 58.054 26.041 58.112 58.106v332.652c-0.145 32.072-26.134 58.025-58.206 58.112h-0.008zM242.227 538.778h539.597v-257.178c-0.029-8.009-6.528-14.49-14.541-14.49 0 0 0 0 0 0h-510.566c-8.002 0-14.49 6.487-14.49 14.49v0zM256.717 628.736h510.566c0 0 0 0 0 0 8.013 0 14.512-6.481 14.541-14.487v-31.901h-539.597v31.898c0 0.031 0 0.067 0 0.103 0 7.946 6.441 14.387 14.387 14.387 0.036 0 0.072 0 0.108 0h-0.006zM450.56 340.48c9.218 0 16.691 7.473 16.691 16.691v79.002c-0.087 31.476-25.565 56.972-57.026 57.088h-0.011c-31.451-0.116-56.905-25.625-56.934-57.085v-79.158c-0.005-0.15-0.008-0.326-0.008-0.503 0-4.367 1.741-8.328 4.568-11.225l-0.003 0.003c2.97-3.149 7.169-5.112 11.826-5.12h0.001c9.196 0.029 16.64 7.491 16.64 16.691 0 0 0 0 0 0v0 35.84h47.872v-35.84c0.169-8.98 7.404-16.215 16.368-16.384h0.016zM433.818 426.24h-47.77v10.24c0.608 12.748 11.092 22.854 23.936 22.854s23.328-10.106 23.934-22.8l0.002-0.054zM559.462 493.261h-47.462c0 0 0 0 0 0-9.2 0-16.662-7.444-16.691-16.637v-119.76c0.504-8.812 7.772-15.767 16.666-15.767s16.162 6.955 16.664 15.723l0.002 0.044v35.84h30.72c27.711 0 50.176 22.465 50.176 50.176s-22.465 50.176-50.176 50.176v0zM559.462 426.189h-30.72v33.997h30.72c9.388 0 16.998-7.61 16.998-16.998s-7.61-16.998-16.998-16.998v0zM654.49 493.414c-9.196-0.029-16.64-7.491-16.64-16.691 0 0 0 0 0 0v0-119.706c0-9.19 7.45-16.64 16.64-16.64s16.64 7.45 16.64 16.64v119.706c0 0 0 0 0 0 0 9.2-7.444 16.662-16.637 16.691h-0.003z" />
<glyph unicode="&#xe904;" glyph-name="network" d="M628.582 568.32h120.218c11.311 0 20.48 9.169 20.48 20.48v0 101.12c0 11.311-9.169 20.48-20.48 20.48v0h-120.218c-11.311 0-20.48-9.169-20.48-20.48v0-30.054h-101.222c-11.311 0-20.48-9.169-20.48-20.48v0-170.906h-79.974v60.16c0 11.311-9.169 20.48-20.48 20.48v0h-120.986c-11.311 0-20.48-9.169-20.48-20.48v0-161.28c0-11.311 9.169-20.48 20.48-20.48v0h120.934c11.311 0 20.48 9.169 20.48 20.48v0 60.16h80.026v-170.906c0-11.311 9.169-20.48 20.48-20.48v0h101.222v-30.054c0-11.311 9.169-20.48 20.48-20.48v0h120.218c11.311 0 20.48 9.169 20.48 20.48v0 101.12c0 11.311-9.169 20.48-20.48 20.48v0h-120.218c-11.311 0-20.48-9.169-20.48-20.48v0-30.054h-80.742v150.374h80.742v-30.054c0-11.311 9.169-20.48 20.48-20.48v0h120.218c11.311 0 20.48 9.169 20.48 20.48v0 101.069c0 11.311-9.169 20.48-20.48 20.48v0h-120.218c-11.311 0-20.48-9.169-20.48-20.48v0-30.054h-80.742v150.374h80.742v-30.054c0-11.311 9.169-20.48 20.48-20.48v0zM365.414 387.84h-79.974v120.32h79.974zM649.114 286.669h79.206v-60.109h-79.206zM649.114 478.054h79.206v-60.109h-79.206zM649.114 669.44h79.206v-60.109h-79.206z" />
<glyph unicode="&#xe905;" glyph-name="notification" d="M770.458 306.381c-0.807 14.37-7.46 27.042-17.598 35.784l-0.066 0.056-1.024 0.768-0.922 0.666q-1.536 1.28-3.072 2.765c-15.064 13.947-27.453 30.526-36.484 49.044l-0.431 0.979c-0.244 0.61-0.519 1.132-0.84 1.621l0.021-0.034c-9.677 20.126-15.339 43.754-15.36 68.703v70.253c0 0.142 0.001 0.31 0.001 0.478 0 84.981-58.239 156.36-136.981 176.402l-1.259 0.272-2.099 0.512c-33.229 7.322-71.322 2.202-81.92 0.461l-2.97-0.461c-81.038-19.425-140.341-91.256-140.341-176.937 0-0.255 0.001-0.511 0.002-0.766v0.039-70.4c0-0.055 0-0.121 0-0.187 0-24.79-5.549-48.285-15.473-69.309l0.42 0.99c-0.309-0.487-0.617-1.058-0.885-1.651l-0.036-0.090c-9.374-19.511-21.683-36.108-36.562-49.984l-0.098-0.090-2.816-2.56-1.229-0.87-1.229-0.973c-10.018-8.767-16.569-21.282-17.452-35.334l-0.007-0.147c0-0.922 0-1.792 0-2.765s0-1.69 0-2.56c0.688-12.115 5.523-22.984 13.094-31.325l-0.038 0.042 2.355-2.406 1.331-1.28c8.265-7.417 19.063-12.16 30.952-12.795l0.126-0.005h112.794c1.461-5.56 3.106-10.262 5.068-14.794l-0.256 0.663c2.438-5.713 5.025-10.557 7.973-15.148l-0.242 0.402c1.536-2.355 3.123-4.659 4.762-6.861 6.77-8.87 14.702-16.411 23.665-22.559l0.347-0.225c2.304-1.536 4.659-3.021 7.117-4.403 14.172-8.083 31.141-12.849 49.224-12.849 12.166 0 23.828 2.157 34.624 6.11l-0.699-0.224c5.98 2.154 11.047 4.501 15.87 7.228l-0.51-0.265c2.458 1.382 4.813 2.867 7.117 4.403 9.3 6.33 17.217 13.84 23.783 22.437l0.179 0.244c1.69 2.202 3.277 4.506 4.762 6.861 2.754 4.204 5.359 9.049 7.542 14.118l0.24 0.628c1.707 3.869 3.351 8.571 4.65 13.415l0.163 0.716h113.050c12.112 0.66 22.985 5.48 31.326 13.043l-0.042-0.038 1.28 1.229 0.922 0.922-1.587 1.997 1.792-1.792 1.28 1.382c7.411 8.255 12.166 19.028 12.845 30.892l0.006 0.135c0 0.87 0 1.741 0 2.56s-0.102 1.946-0.154 2.867zM719.77 303.565v0h-415.744c46.286 39.379 75.47 97.659 75.52 162.756v70.665c0 0.105 0 0.229 0 0.353 0 61.326 41.952 112.853 98.723 127.448l0.913 0.199c9.95 2.123 21.381 3.339 33.097 3.339 10.875 0 21.504-1.048 31.794-3.048l-1.044 0.169c58.572-14.060 101.429-65.985 101.429-127.92 0-0.244-0.001-0.488-0.002-0.732v0.038-70.656c0.014-65.025 29.123-123.248 75.016-162.362l0.299-0.249z" />
<glyph unicode="&#xe906;" glyph-name="edit" d="M796.621 691.2l-41.574 41.421c-15.74 15.688-37.457 25.387-61.44 25.387s-45.699-9.699-61.442-25.389l0.002 0.002-27.136-27.238-286.72-286.72h-1.229l-3.021-4.506c-0.226-0.247-0.444-0.514-0.647-0.793l-0.019-0.027-2.458-2.355v-1.229l-0.256-0.717-1.434-1.536v-2.509l-63.488-190.925c-0.821-2.399-1.295-5.163-1.295-8.038 0-14.138 11.462-25.6 25.6-25.6 0.005 0 0.010 0 0.016 0h-0.001c2.856 0.072 5.576 0.535 8.147 1.337l-0.211-0.057 191.232 63.795h2.509l1.638 1.536c0.669 0.323 1.24 0.664 1.777 1.049l-0.036-0.025c0.489 0.229 0.909 0.485 1.297 0.781l-0.017-0.013c0.54 0.352 1.008 0.706 1.45 1.089l-0.016-0.014 5.12 3.226v1.382l313.651 313.805c15.688 15.74 25.387 37.457 25.387 61.44s-9.699 45.699-25.389 61.442l0.002-0.002zM415.13 281.344l-104.806-34.918 35.021 104.704zM715.264 558.848l-252.621-252.621-92.16 92.16 252.621 252.621zM760.525 604.262l-9.062-9.114-92.16 92.16 9.216 9.165c6.478 6.441 15.408 10.422 25.267 10.422s18.789-3.981 25.269-10.424l-0.002 0.002 41.626-41.677c6.395-6.47 10.345-15.369 10.345-25.19 0-9.898-4.012-18.858-10.499-25.344v0z" />
<glyph unicode="&#xe907;" glyph-name="graph" d="M642.56 732.058c-1.913 0.626-4.114 0.987-6.4 0.987-11.722 0-21.227-9.492-21.248-21.209v-125.596c0-0.041 0-0.089 0-0.137 0-8.028 4.442-15.019 11.001-18.649l0.109-0.056c53.686-29.844 89.412-86.227 89.412-150.955 0-95.067-77.067-172.134-172.134-172.134-64.728 0-121.111 35.726-150.507 88.535l-0.448 0.877c-3.613 6.73-10.558 11.255-18.57 11.366h-125.609c-11.719-0.021-21.211-9.526-21.211-21.248 0-2.286 0.361-4.487 1.029-6.55l-0.042 0.15c43.571-135.129 168.216-231.171 315.293-231.171 182.584 0 330.598 148.014 330.598 330.598 0 147.077-96.042 271.721-228.832 314.639l-2.339 0.654zM522.24 129.331c-109.298 8.332-200.874 76.475-242.679 171.464l-0.725 1.848h82.739c34.891-54.92 92.764-92.56 159.754-99.406l0.912-0.075zM657.51 598.426v82.893c96.83-42.578 164.937-134.222 173.1-242.594l0.058-0.965h-73.83c-6.922 67.902-44.561 125.775-98.61 160.148l-0.872 0.518zM564.685 129.331v73.83c101.666 10.585 181.722 90.641 192.229 191.38l0.078 0.927h73.83c-11.045-142.373-123.901-255.176-265.306-266.077l-0.985-0.061zM543.334 810.65c-0.076 0-0.166 0-0.256 0-217.45 0-393.728-176.278-393.728-393.728 0-0.18 0-0.36 0-0.54v0.028c0 0 0 0 0 0 0-11.707 9.49-21.197 21.197-21.197 0.018 0 0.036 0 0.054 0h372.733c11.707 0 21.197 9.49 21.197 21.197v373.043c0 11.707-9.49 21.197-21.197 21.197v0zM522.24 437.76h-329.83c10.944 177.585 152.246 318.886 328.834 329.781l0.996 0.049z" />
<glyph unicode="&#xe908;" glyph-name="work" d="M365.517 514.56c-3.843-4.372-6.189-10.142-6.189-16.461s2.345-12.089 6.213-16.489l-0.024 0.028 37.581-41.318c3.655-4.223 9.015-6.886 14.997-6.912h0.005c5.931 0.076 11.243 2.661 14.935 6.741l0.016 0.018 75.059 82.688c3.905 4.263 6.298 9.968 6.298 16.232 0 0.072 0 0.143-0.001 0.215v-0.011c0 0.029 0 0.064 0 0.099 0 6.231-2.394 11.904-6.313 16.147l0.015-0.016c-3.671 4.204-9.041 6.845-15.027 6.845s-11.356-2.641-15.007-6.822l-0.020-0.023-59.955-65.638-22.477 24.678c-3.696 4.176-9.068 6.795-15.053 6.795s-11.357-2.619-15.034-6.774l-0.018-0.021zM478.157 390.81l-60.058-66.048-22.477 24.73c-3.686 4.157-9.039 6.763-15.002 6.763s-11.316-2.607-14.983-6.742l-0.018-0.021c-3.837-4.384-6.178-10.162-6.178-16.486s2.34-12.103 6.202-16.515l-0.025 0.029 37.581-41.318c3.694-4.144 9.043-6.746 14.999-6.758h0.002c5.95 0.061 11.283 2.649 14.986 6.741l0.016 0.018 75.059 82.483c3.877 4.367 6.245 10.15 6.245 16.486s-2.368 12.119-6.268 16.512l0.022-0.026c-3.658 4.298-9.072 7.007-15.119 7.007-5.976 0-11.333-2.645-14.966-6.829l-0.021-0.024zM568.32 474.778h75.059c11.974 1.156 21.261 11.167 21.261 23.347s-9.286 22.191-21.165 23.34l-0.096 0.007h-75.059c-11.974-1.156-21.261-11.167-21.261-23.347s9.286-22.191 21.165-23.34l0.096-0.007zM568.32 309.76h75.059c11.882 1.282 21.051 11.256 21.051 23.373s-9.169 22.091-20.947 23.364l-0.104 0.009h-75.059c-11.882-1.282-21.051-11.256-21.051-23.373s9.169-22.091 20.947-23.364l0.104-0.009zM699.75 727.91h-72.602v17.869c0.012 0.269 0.018 0.585 0.018 0.903 0 11.988-9.385 21.784-21.208 22.442l-0.058 0.003h-39.066c-7.049 24.066-28.925 41.343-54.835 41.343s-47.786-17.277-54.734-40.94l-0.102-0.403h-39.066c-11.882-0.661-21.266-10.456-21.266-22.444 0-0.318 0.007-0.634 0.020-0.948l-0.001 0.045v-17.971h-72.602c-22.118 0-40.090-19.712-40.090-43.878v-495.411c0-24.32 17.971-44.032 40.090-44.032h375.501c22.118 0 40.090 19.712 40.090 44.032v495.411c-0.154 24.166-17.92 43.981-40.090 43.981zM495.616 745.779c-0.033 0.388-0.051 0.839-0.051 1.294 0 9.049 7.335 16.384 16.384 16.384s16.384-7.335 16.384-16.384c0-0.456-0.019-0.907-0.055-1.353l0.004 0.059c-0.013-0.285-0.020-0.619-0.020-0.954 0-11.988 9.386-21.785 21.21-22.442l0.058-0.003h35.123v-35.84h-145.306v35.84h35.123c11.819 0.601 21.175 10.33 21.175 22.245 0 0.406-0.011 0.809-0.032 1.209l0.002-0.056zM418.099 639.898h187.802c11.878 0.664 21.259 10.459 21.259 22.444 0 0.246-0.004 0.49-0.012 0.734l0.001-0.036v18.176h70.144v-489.984h-370.586v489.984h70.144v-18.176c-0.007-0.208-0.011-0.453-0.011-0.699 0-11.985 9.381-21.779 21.2-22.441l0.059-0.003z" />
<glyph unicode="&#xe909;" glyph-name="chat" d="M810.752 545.894c-10.143 10.183-24.175 16.484-39.68 16.486h-118.733v83.814c-0.145 30.994-25.305 56.064-56.319 56.064 0 0 0 0-0.001 0h-316.877c0 0 0 0-0.001 0-31.015 0-56.174-25.070-56.319-56.050v-209.934c0-31.105 25.215-56.32 56.32-56.32v0h13.824v-48.742c0.099-11.66 9.574-21.074 21.247-21.074 4.324 0 8.346 1.292 11.702 3.51l-0.079-0.049 72.090 48.077v-65.434c0 0 0-0.001 0-0.001 0-30.935 25.078-56.013 56.013-56.013 0.108 0 0.216 0 0.324 0.001h170.377l99.584-66.56c3.295-2.223 7.355-3.548 11.725-3.548 11.666 0 21.125 9.447 21.146 21.108v48.796h13.824c0.091-0.001 0.199-0.001 0.307-0.001 30.935 0 56.013 25.078 56.013 56.013 0 0 0 0.001 0 0.001v0 209.92c0.004 0.257 0.007 0.56 0.007 0.864 0 15.315-6.314 29.156-16.481 39.061l-0.012 0.012zM314.112 422.502h-34.97c-7.635 0-13.824 6.189-13.824 13.824v209.92c0 7.635 6.189 13.824 13.824 13.824v0h317.133c7.635 0 13.824-6.189 13.824-13.824v0-209.92c0-7.635-6.189-13.824-13.824-13.824v0h-177.101c-0.017 0-0.038 0-0.059 0-4.365 0-8.422-1.319-11.793-3.581l0.076 0.048-71.68-48.026v30.72c-0.342 11.524-9.766 20.737-21.342 20.737-0.057 0-0.114 0-0.171-0.001h0.009zM785.152 506.214v-209.92c0-7.635-6.189-13.824-13.824-13.824v0h-35.072c-11.656-0.029-21.094-9.485-21.094-21.146 0 0 0 0 0 0v0-30.413l-72.038 48.128c-3.311 2.214-7.383 3.533-11.763 3.533-0.005 0-0.009 0-0.014 0h-177.254c-7.635 0-13.824 6.189-13.824 13.824v0 83.763h156.006c31.105 0 56.32 25.215 56.32 56.32v0 83.558h118.477c0.046 0.001 0.1 0.001 0.154 0.001 7.635 0 13.824-6.189 13.824-13.824 0 0 0-0.001 0-0.001v0zM582.451 568.934c-0.029 11.638-9.456 21.065-21.092 21.094h-247.145c-11.65 0-21.094-9.444-21.094-21.094s9.444-21.094 21.094-21.094h247.142c11.65 0 21.094 9.444 21.094 21.094v0z" />
<glyph unicode="&#xe90a;" glyph-name="stock" d="M768.512 648.909h-157.645c-13.743 0-24.883-11.141-24.883-24.883s11.141-24.883 24.883-24.883h98.253l-115.2-114.534-43.469 43.469c-4.5 4.483-10.707 7.255-17.562 7.255s-13.062-2.772-17.562-7.255l0.001 0.001-186.982-187.238c-4.501-4.501-7.285-10.719-7.285-17.587 0-13.736 11.136-24.872 24.872-24.872 6.868 0 13.086 2.784 17.587 7.285v0l169.574 169.574 43.366-43.366c4.5-4.483 10.707-7.255 17.562-7.255s13.062 2.772 17.562 7.255l132.146 131.634v-97.28c-0.016-0.337-0.026-0.732-0.026-1.128 0-13.743 11.141-24.883 24.883-24.883s24.883 11.141 24.883 24.883c0 0.397-0.009 0.792-0.028 1.184l0.002-0.056v157.798c-0.029 13.749-11.181 24.883-24.934 24.883 0 0 0 0 0 0v0zM768 241.664h-487.68v437.658c0.016 0.337 0.026 0.732 0.026 1.128 0 13.743-11.141 24.883-24.883 24.883s-24.883-11.141-24.883-24.883c0-0.397 0.009-0.792 0.028-1.184l-0.002 0.056v-462.643c0.145-13.643 11.224-24.65 24.88-24.678h512.515c13.771 0 24.934 11.164 24.934 24.934s-11.164 24.934-24.934 24.934v0z" />
<glyph unicode="&#xe90b;" glyph-name="card-settings" d="M764.928 400.896c-11.311 0-20.48-9.169-20.48-20.48v0-121.344h-490.598v206.797h192.051c11.438 0 20.71 9.272 20.71 20.71s-9.272 20.71-20.71 20.71v0h-192.051v65.075h192.051c11.242 0.17 20.31 9.238 20.48 20.464v0.016c0 11.311-9.169 20.48-20.48 20.48v0h-195.021c-21.179 0-38.349-17.169-38.349-38.349v0-319.027c0-21.179 17.169-38.349 38.349-38.349h496.64c0.015 0 0.033 0 0.051 0 21.179 0 38.349 17.169 38.349 38.349v0 124.262c-0.028 11.431-9.301 20.686-20.736 20.686-0.090 0-0.18-0.001-0.27-0.002h0.014zM304.077 400.896c-11.438 0-20.71-9.272-20.71-20.71s9.272-20.71 20.71-20.71v0h70.963c11.438 0 20.71 9.272 20.71 20.71s-9.272 20.71-20.71 20.71v0zM658.79 628.019c-33.678 0-60.979-27.301-60.979-60.979s27.301-60.979 60.979-60.979c33.678 0 60.979 27.301 60.979 60.979 0 0.018 0 0.036 0 0.054v-0.003c-0.029 33.656-27.319 60.928-60.979 60.928v0zM658.79 536.474c-16.966 0-30.72 13.754-30.72 30.72s13.754 30.72 30.72 30.72c16.966 0 30.72-13.754 30.72-30.72v0c0-16.966-13.754-30.72-30.72-30.72v0zM794.829 584.704l30.362 29.44-42.342 73.421-40.96-11.622c-8.845 7.018-18.98 12.991-29.888 17.464l-0.832 0.302-10.24 40.96h-84.634l-10.24-40.96c-11.735-4.879-21.861-10.878-30.996-18.079l0.276 0.21-40.96 11.622-42.086-73.318 30.362-29.44c-0.807-5.338-1.267-11.499-1.267-17.766s0.461-12.428 1.35-18.448l-0.083 0.682-30.362-29.491 42.342-73.472 40.96 11.674c8.859-6.95 18.986-12.917 29.86-17.449l0.86-0.318 10.24-40.96h84.838l10.24 40.96c11.747 4.716 21.888 10.694 30.96 17.952l-0.24-0.186 40.96-11.674 41.882 73.472-30.362 29.389c0.861 5.355 1.352 11.529 1.352 17.818s-0.492 12.462-1.439 18.485l0.086-0.667zM762.010 538.624l24.934-24.064-18.586-32.256-33.331 9.574c-13.303-13.030-29.765-22.886-48.128-28.311l-0.819-0.207-8.499-33.638h-37.581l-8.141 33.638c-19.321 5.57-35.912 15.436-49.328 28.54l0.022-0.022-33.331-9.574-18.586 32.256 24.934 24.115c-2.126 8.543-3.345 18.35-3.345 28.442s1.22 19.899 3.52 29.282l-0.174-0.84-24.934 24.115 18.483 32.102 33.28-9.523c13.493 12.9 30.046 22.716 48.453 28.247l0.853 0.22 8.294 33.587h37.274l8.806-33.69c19.232-5.668 35.751-15.498 49.184-28.498l-0.032 0.031 33.331 9.523 18.586-32.256-24.934-24.115c2.103-8.393 3.309-18.028 3.309-27.945 0-10.221-1.281-20.142-3.693-29.612l0.179 0.828z" />
<glyph unicode="&#xe90c;" glyph-name="deployment" d="M769.126 677.99c-0.572 22.288-17.836 40.368-39.724 42.229l-0.16 0.011c-40.96 2.406-121.754 0-198.861-42.138-39.27-21.555-80.794-57.958-113.971-100.096 0 0-0.307-0.461-0.512-0.666l-73.677-5.99c-13.603-1.253-25.203-8.834-31.948-19.737l-0.104-0.18-50.944-81.92c-3.117-4.953-4.966-10.976-4.966-17.431 0-4.651 0.96-9.079 2.693-13.094l-0.082 0.215c3.868-9.607 12.309-16.639 22.552-18.457l0.18-0.027 60.365-9.574c0-0.461 0-0.768 0-1.229-0.393-2.253-0.618-4.848-0.618-7.496 0-12.075 4.676-23.059 12.316-31.238l-0.024 0.026 87.706-92.928c7.522-7.969 18.114-12.971 29.876-13.107h0.025c0.217-0.005 0.474-0.008 0.73-0.008 2.186 0 4.323 0.208 6.393 0.605l-0.211-0.034h1.126l9.114-63.488c1.355-10.7 8.042-19.578 17.274-23.984l0.185-0.080c3.468-1.744 7.559-2.766 11.887-2.766 0.069 0 0.138 0 0.206 0.001h-0.011c0.015 0 0.033 0 0.051 0 6.129 0 11.81 1.916 16.477 5.182l-0.093-0.062 76.8 53.914c10.771 7.753 17.94 19.929 18.835 33.813l0.007 0.133 5.683 77.926 0.614 0.512c38.369 33.545 70.131 73.51 93.844 118.385l1.080 2.242c39.987 81.664 42.138 166.861 39.885 210.534zM596.838 317.133l-3.277-46.080c-0.176-2.401-1.397-4.486-3.204-5.822l-0.022-0.015-70.349-49.203-8.602 58.419c32.589 10.733 60.903 25.225 86.442 43.368l-0.989-0.667zM510.362 313.088c-11.249-4.271-24.707-8.031-38.576-10.62l-1.513-0.235c-0.319-0.052-0.687-0.082-1.062-0.082-2.034 0-3.863 0.879-5.128 2.278l-0.005 0.006-87.757 92.928c-1.317 1.427-2.125 3.342-2.125 5.445 0 0.391 0.028 0.776 0.082 1.152l-0.005-0.043c2.671 16.34 6.232 30.636 10.82 44.462l-0.58-2.018zM698.214 484.557c-22.329-42.684-51.036-78.876-85.326-108.838l-0.434-0.372c-19.58-17.492-41.58-32.993-65.253-45.795l-1.819-0.899-146.022 154.573c12.912 27.072 27.591 50.388 44.606 71.761l-0.574-0.747c30.259 38.4 67.891 71.68 103.219 90.931 69.683 38.195 143.36 40.294 180.736 38.093 3.778-0.319 6.739-3.405 6.861-7.207v-0.012c1.946-39.936 0-117.76-35.994-191.488zM344.934 534.323l43.366 3.533c-16.403-26.070-30.083-56.149-39.492-88.059l-0.649-2.565-55.347 9.062 46.541 74.547c1.23 1.895 3.229 3.202 5.544 3.478l0.036 0.004zM606.464 629.862c-21.588-0.063-41.017-9.254-54.639-23.915l-0.043-0.047c-14.024-15.162-22.626-35.517-22.626-57.882s8.602-42.72 22.677-57.938l-0.052 0.057c13.636-14.749 33.084-23.952 54.682-23.952s41.046 9.204 54.636 23.903l0.045 0.050c14.024 15.162 22.626 35.517 22.626 57.882s-8.602 42.72-22.677 57.938l0.052-0.057c-13.665 14.708-33.094 23.899-54.67 23.962h-0.011zM576.512 516.301c-7.71 8.26-12.443 19.385-12.443 31.616s4.733 23.356 12.468 31.643l-0.025-0.027c7.462 8.029 18.064 13.053 29.84 13.107h0.010c0.026 0 0.056 0 0.087 0 11.769 0 22.361-5.039 29.736-13.078l0.027-0.030c7.677-8.274 12.387-19.395 12.387-31.616s-4.71-23.341-12.414-31.646l0.027 0.030c-7.449-8.039-18.064-13.055-29.85-13.055s-22.4 5.015-29.825 13.028l-0.024 0.026zM272.179 270.182c4.896 0.039 9.295 2.136 12.38 5.467l0.010 0.011 48.794 51.661c3.163 3.448 5.101 8.064 5.101 13.133s-1.938 9.685-5.114 13.147l0.013-0.014c-3.083 3.376-7.503 5.486-12.416 5.486s-9.333-2.11-12.404-5.473l-0.012-0.013-48.742-51.763c-3.206-3.43-5.175-8.051-5.175-13.133s1.969-9.703 5.185-13.144l-0.010 0.011c3.076-3.311 7.455-5.376 12.315-5.376 0.026 0 0.053 0 0.079 0h-0.004zM383.13 293.069c0 0.046 0.001 0.1 0.001 0.154 0 5.015-1.949 9.575-5.13 12.963l0.009-0.010c-3.074 3.374-7.486 5.482-12.39 5.482s-9.316-2.109-12.378-5.469l-0.012-0.013-93.798-99.328c-3.206-3.43-5.175-8.051-5.175-13.133s1.969-9.703 5.185-13.144l-0.010 0.011c3.083-3.376 7.503-5.486 12.416-5.486s9.333 2.11 12.404 5.473l0.012 0.013 93.798 99.379c3.141 3.336 5.071 7.842 5.071 12.8 0 0.108-0.001 0.216-0.003 0.324v-0.016zM410.419 264.294c-4.929-0.123-9.325-2.306-12.376-5.718l-0.015-0.017-48.794-51.2c-3.173-3.415-5.12-8.007-5.12-13.054 0-0.019 0-0.038 0-0.057v0.003c0-0.007 0-0.016 0-0.025 0-5.072 1.946-9.69 5.132-13.147l-0.012 0.013c3.097-3.348 7.512-5.437 12.416-5.437s9.319 2.089 12.406 5.425l0.010 0.011 48.742 51.661c3.206 3.43 5.175 8.051 5.175 13.133s-1.969 9.703-5.185 13.144l0.010-0.011c-3.11 3.252-7.484 5.274-12.33 5.274-0.021 0-0.043 0-0.064 0h0.003z" />
<glyph unicode="&#xe90d;" glyph-name="test" d="M793.139 252.211l-78.131 78.029c-10.431 11.411-25.381 18.542-41.997 18.542-8.553 0-16.665-1.889-23.941-5.274l0.35 0.146-23.142 23.142c0.236 0.259 0.456 0.543 0.65 0.845l0.015 0.025c0.87 1.024 1.741 2.15 2.509 3.174s1.229 1.587 1.894 2.355c0.384 0.617 0.789 1.152 1.238 1.648l-0.009-0.010c0.697 0.872 1.405 1.857 2.063 2.877l0.087 0.144c0 0.256 0.358 0.614 0.614 0.87 0.87 1.126 1.638 2.406 2.509 3.533 11.963 17.282 21.807 37.241 28.504 58.591l0.424 1.569s0 0.41 0 0.512c0.358 1.126 0.768 2.406 1.024 3.533s0.358 1.382 0.614 2.099 0.358 1.536 0.614 2.304c4.89 17.556 7.701 37.717 7.701 58.534 0 31.896-6.599 62.251-18.505 89.774l0.565-1.466c-0.105 0.191-0.193 0.413-0.252 0.646l-0.004 0.019c-0.512 1.229-1.126 2.509-1.638 3.738l-0.87 1.997c-0.324 0.61-0.669 1.369-0.971 2.149l-0.053 0.155c-0.461 0.973-0.87 1.997-1.382 2.867-0.217 0.452-0.422 0.821-0.644 1.178l0.030-0.052c-0.614 1.28-1.229 2.509-1.894 3.789-9.097 17.259-19.492 32.147-31.478 45.585l0.194-0.222s0 0 0 0l-3.277 3.686-1.485 1.485c-0.666 0.614-1.28 1.382-2.048 1.997l-3.379 3.43c-19.447 19.251-42.408 34.995-67.829 46.179l-1.444 0.567-2.97 1.229-2.662 1.178h-0.358c-24.112 10.064-52.112 16.007-81.474 16.23l-0.088 0.001h-4.813c-29.183-0.28-56.946-6.026-82.423-16.26l1.527 0.542s-0.512 0-0.666 0-1.587-0.614-2.355-1.024c-28.066-11.542-52.059-27.552-72.278-47.394l0.035 0.034-3.277-3.277c-18.99-19.248-34.513-41.973-45.522-67.125l-0.558-1.432s0 0 0-0.41l-1.126-2.611c-0.358-1.024-0.87-2.048-1.229-3.021-10.037-24.232-15.945-52.361-16.128-81.848v-4.834c0.24-29.209 6.047-56.995 16.41-82.441l-0.538 1.494s0-0.358 0-0.512 0.717-1.741 0.973-2.509c12.002-28.664 28.647-53.124 49.245-73.616l0.009-0.009 0.512-0.461c1.024-1.024 1.997-2.048 3.123-3.021s1.126-1.126 1.792-1.638l0.87-0.768c15.252-14.203 32.657-26.392 51.607-35.969l1.282-0.588 0.614-0.358 3.174-1.536 2.253-1.126c0.6-0.325 1.342-0.67 2.105-0.972l0.148-0.052 4.045-1.741 0.717-0.358c25.968-11.297 56.218-17.869 88.003-17.869 19.906 0 39.209 2.578 57.595 7.417l-1.572-0.352h0.358l2.918 0.768c0.717 0 1.485 0.358 2.253 0.614l1.126 0.41c30.673 8.967 57.302 23.267 80.167 41.992l-0.397-0.316 23.142-23.091c-3.092-6.787-4.894-14.719-4.894-23.072 0-16.699 7.202-31.716 18.67-42.114l0.048-0.043 78.182-78.182c4.245-4.252 10.107-6.89 16.585-6.912h0.004c0.008 0 0.018 0 0.028 0 6.477 0 12.337 2.643 16.559 6.91l52.124 52.175c4.255 4.222 6.889 10.073 6.889 16.538 0 6.516-2.675 12.408-6.988 16.636l-0.004 0.004zM577.434 382.618c-32.535-32.331-77.374-52.314-126.879-52.314-48.293 0-92.145 19.017-124.476 49.97l0.065-0.062c-0.922 0.768-1.638 1.638-2.509 2.406-32.453 32.487-52.524 77.349-52.524 126.899s20.071 94.412 52.525 126.901l-0.002-0.002c32.504 32.416 77.361 52.46 126.899 52.46s94.396-20.044 126.903-52.464l1.634-1.634c31.348-32.371 50.67-76.551 50.67-125.244 0-49.516-19.98-94.366-52.319-126.926l0.010 0.010zM724.429 216.627l-62.054 62.054c-2.404 1.934-4.010 4.774-4.298 7.994l-0.003 0.044c-0.032 0.328-0.050 0.709-0.050 1.094 0 2.897 1.024 5.554 2.729 7.631l-0.017-0.021 0.768 0.717c0.358 0 0.717 0.666 1.126 1.024l0.256 0.256c0.358 0.358 0.614 0.768 0.973 1.126l0.768 0.768c1.972 1.67 4.545 2.685 7.356 2.685 0.457 0 0.908-0.027 1.351-0.079l-0.054 0.005c3.266-0.245 6.115-1.842 8.021-4.227l0.017-0.023 61.952-61.952zM415.846 576.614c-3.935 3.922-9.364 6.347-15.36 6.347s-11.425-2.425-15.361-6.347l0.001 0.001-50.33-50.278c-3.947-3.924-6.389-9.357-6.389-15.36s2.443-11.436 6.388-15.359l50.382-50.382c3.902-3.784 9.231-6.116 15.104-6.116 6.128 0 11.662 2.539 15.61 6.622l0.006 0.006c3.798 3.905 6.141 9.244 6.141 15.13s-2.342 11.224-6.146 15.135l-34.913 34.913 34.918 34.918c3.91 3.941 6.326 9.368 6.326 15.36 0 6.017-2.437 11.465-6.377 15.412v0zM516.352 576.717c-3.825 3.411-8.896 5.495-14.455 5.495-12.018 0-21.76-9.742-21.76-21.76 0-5.559 2.084-10.63 5.514-14.476l-0.019 0.022 34.918-34.918-34.918-34.97c-3.91-3.941-6.326-9.368-6.326-15.36 0-12.002 9.694-21.74 21.679-21.811h0.007c5.997 0.051 11.415 2.486 15.361 6.401l-0.001-0.001 50.227 50.278c3.947 3.924 6.389 9.357 6.389 15.36s-2.443 11.436-6.388 15.359l-0.001 0.001z" />
<glyph unicode="&#xe90e;" glyph-name="delete" d="M746.394 634.419h-117.76v48.026c0 19.992-16.207 36.198-36.198 36.198h-161.024c0 0 0 0 0 0-20.002 0-36.22-16.2-36.25-36.196v-48.029h-117.76c-11.472-0.576-20.555-10.018-20.555-21.581s9.083-21.005 20.504-21.579l0.051-0.002h31.539v-0.358l33.382-380.928c2.105-18.431 17.614-32.615 36.435-32.615 0.043 0 0.085 0 0.128 0h266.233c18.76 0.215 34.13 14.45 36.133 32.706l0.015 0.164 33.638 381.133h31.488c0.314-0.016 0.682-0.026 1.051-0.026 11.933 0 21.606 9.674 21.606 21.606s-9.674 21.606-21.606 21.606c-0.37 0-0.738-0.009-1.103-0.028l0.051 0.002zM438.323 675.379h147.302v-40.96h-147.302zM671.539 590.694l-32.512-370.278h-254.106v0.358l-32.512 370.586h319.181z" />
<glyph unicode="&#xe90f;" glyph-name="export-two" d="M512 789.299c-12.656-0.029-22.909-10.281-22.938-22.935v-363.779c0-12.725 10.315-23.040 23.040-23.040s23.040 10.315 23.040 23.040v0 363.776c-0.029 12.675-10.31 22.938-22.989 22.938-0.054 0-0.108 0-0.162-0.001h0.008zM654.49 664.678l-126.822 118.426c-4.089 3.831-9.603 6.184-15.667 6.184s-11.578-2.353-15.68-6.196l0.013 0.012-126.822-118.426c-4.253-4.167-6.89-9.97-6.89-16.389 0-12.668 10.27-22.938 22.938-22.938 5.859 0 11.204 2.197 15.258 5.811l-0.023-0.020 111.206 103.578 111.206-103.834c4.133-4.049 9.798-6.548 16.047-6.548 12.668 0 22.938 10.27 22.938 22.938 0 6.809-2.967 12.926-7.679 17.127l-0.023 0.020zM745.062 552.704h-55.706c-12.725 0-23.040-10.315-23.040-23.040s10.315-23.040 23.040-23.040v0h32.563v-313.088h-419.84v313.293h32.768c12.725 0 23.040 10.315 23.040 23.040s-10.315 23.040-23.040 23.040v0h-55.91c0 0 0 0 0 0-12.668 0-22.938-10.27-22.938-22.938 0-0.018 0-0.036 0-0.054v0.003-359.168c0-12.668 10.27-22.938 22.938-22.938v0h465.92c12.668 0 22.938 10.27 22.938 22.938v0 359.168c-0.086 12.531-10.206 22.669-22.722 22.784h-0.011z" />
<glyph unicode="&#xe910;" glyph-name="plug" d="M529.562 428.032l-27.802-28.058-37.53 37.53 28.058 28.058c3.575 3.569 5.787 8.502 5.787 13.952 0 10.887-8.826 19.713-19.713 19.713-5.437 0-10.36-2.201-13.927-5.761v0l-28.314-28.058-21.402 21.606c-3.569 3.575-8.502 5.787-13.952 5.787s-10.383-2.212-13.952-5.787v0l-56.32-56.32c-20.46-20.505-33.112-48.808-33.112-80.066 0-25.374 8.337-48.8 22.42-67.69l-0.214 0.3-63.488-63.539c-3.919-3.614-6.366-8.775-6.366-14.507 0-10.887 8.825-19.712 19.712-19.712 5.732 0 10.893 2.447 14.494 6.352l0.012 0.014 63.539 63.488c18.538-13.881 41.892-22.265 67.2-22.374h0.026c0.072 0 0.157 0 0.242 0 31.172 0 59.386 12.662 79.78 33.124l56.323 56.323c3.575 3.569 5.787 8.502 5.787 13.952s-2.212 10.383-5.787 13.952v0l-21.606 21.658 28.058 28.058c3.56 3.566 5.761 8.489 5.761 13.926 0 10.887-8.826 19.713-19.713 19.713-5.45 0-10.383-2.212-13.952-5.786v0zM509.082 336.538l-42.547-42.547c-13.357-13.341-31.802-21.591-52.173-21.591s-38.815 8.25-52.174 21.592l-4.351 4.351c-13.341 13.357-21.591 31.802-21.591 52.173s8.25 38.815 21.592 52.174l42.546 42.546zM774.093 690.381c-0.014 10.876-8.834 19.688-19.712 19.688-5.437 0-10.36-2.201-13.927-5.762v0l-63.539-63.488c-18.583 13.909-42.020 22.271-67.41 22.271-31.264 0-59.566-12.679-80.045-33.176l-56.321-56.321c-3.575-3.569-5.787-8.502-5.787-13.952s2.212-10.383 5.787-13.952v0l136.55-136.55c3.569-3.575 8.502-5.787 13.952-5.787s10.383 2.212 13.952 5.787v0l56.32 56.32c20.498 20.48 33.177 48.782 33.177 80.046 0 25.39-8.362 48.826-22.483 67.706l0.212-0.296 63.488 63.539c3.573 3.537 5.786 8.443 5.786 13.865 0 0.021 0 0.043 0 0.064v-0.003zM666.010 493.312l-42.547-42.547-108.698 108.698 42.547 42.547c13.352 13.353 31.798 21.612 52.173 21.612s38.821-8.259 52.173-21.612l4.352-4.352c13.353-13.352 21.612-31.798 21.612-52.173s-8.259-38.821-21.612-52.173v0z" />
<glyph unicode="&#xe911;" glyph-name="mail" d="M753.306 679.219h-482.611c-40.752-0.058-73.772-33.078-73.83-73.825v-315.193c0.058-40.752 33.078-73.772 73.825-73.83h482.617c40.752 0.058 73.772 33.078 73.83 73.825v315.193c-0.058 40.752-33.078 73.772-73.825 73.83h-0.006zM748.8 630.016l-236.8-176.128-236.8 176.128zM753.306 265.626h-482.611c0 0 0 0 0 0-13.583 0-24.598 10.997-24.627 24.573v300.086l265.933-197.786 265.933 197.786v-300.083c-0.029-13.579-11.044-24.576-24.627-24.576 0 0 0 0 0 0v0z" />
<glyph unicode="&#xe912;" glyph-name="project" d="M521.165 317.645c0.102 0 0.223-0.001 0.344-0.001 37.772 0 70.959 19.626 89.921 49.238l0.256 0.427c54.874 5.332 97.418 51.22 97.418 107.044 0 59.382-48.138 107.52-107.52 107.52-38.024 0-71.439-19.738-90.556-49.528l-0.257-0.428c-53.707-6.525-94.911-51.84-94.911-106.778 0-58.549 46.797-106.167 105.028-107.492l0.123-0.002zM560.947 524.8c10.972 8.823 25.073 14.161 40.42 14.161 35.77 0 64.768-28.998 64.768-64.768 0-26.054-15.383-48.514-37.562-58.794l-0.4-0.166c0 3.277 0.512 6.554 0.512 9.882 0 0.022 0 0.049 0 0.075 0 44.98-27.725 83.484-67.019 99.355l-0.719 0.257zM536.422 474.163c0 0.019 0 0.041 0 0.063 0 4.766 0.522 9.41 1.513 13.878l-0.079-0.424c27.904-7.622 48.077-32.745 48.077-62.58 0-4.801-0.522-9.48-1.513-13.983l0.079 0.429c-27.893 7.693-48.044 32.823-48.077 62.665v0.004zM561.562 374.323c-11.048-9.021-25.307-14.487-40.844-14.487-35.799 0-64.819 29.021-64.819 64.819 0 26.226 15.575 48.814 37.98 59.019l0.406 0.166c0-3.328-0.461-6.605-0.461-9.882 0.132-44.932 27.804-83.368 67.018-99.325l0.719-0.259zM358.4 655.923v37.837c0 5.655-4.585 10.24-10.24 10.24v0h-60.365c0 0 0 0 0 0-38.937 0-70.502-31.565-70.502-70.502 0-0.054 0-0.108 0-0.162v0.008-319.488c0-0.046 0-0.1 0-0.154 0-38.937 31.565-70.502 70.502-70.502 0 0 0 0 0 0h498.432c11.311 0 20.48 9.169 20.48 20.48v0 371.763c0 11.311-9.169 20.48-20.48 20.48v0zM315.802 384.563h-28.006c-10.104-0.020-19.71-2.127-28.418-5.914l0.463 0.179v254.515c0.058 15.416 12.539 27.897 27.95 27.955h27.961zM764.211 603.238v-307.2c0-5.655-4.585-10.24-10.24-10.24v0h-464.845c-0.15-0.003-0.327-0.004-0.505-0.004-14.614 0-26.692 10.856-28.611 24.943l-0.017 0.15c-0.081 0.798-0.127 1.725-0.127 2.663 0 15.45 12.488 27.984 27.921 28.057h60.372c5.655 0 10.24 4.585 10.24 10.24v0 261.12h395.571c5.51-0.025 9.991-4.398 10.188-9.864l0.001-0.018z" />
<glyph unicode="&#xe913;" glyph-name="queue" d="M768 536.269c-0.029 11.893-9.662 21.526-21.552 21.555h-468.893c-11.893-0.029-21.526-9.662-21.555-21.552v-339.152c0.029-11.893 9.662-21.526 21.552-21.555h468.893c11.893 0.029 21.526 9.662 21.555 21.552v0.003zM724.89 218.522h-425.779v296.038h425.779zM707.891 634.931h-391.782c-11.905 0-21.555-9.651-21.555-21.555s9.651-21.555 21.555-21.555h391.782c11.905 0 21.555 9.651 21.555 21.555s-9.651 21.555-21.555 21.555v0zM669.338 712.090h-314.675c-11.905 0-21.555-9.651-21.555-21.555s9.651-21.555 21.555-21.555v0h314.675c11.905 0 21.555 9.651 21.555 21.555s-9.651 21.555-21.555 21.555v0z" />
<glyph unicode="&#xe914;" glyph-name="flag" d="M726.272 705.382c-27.699 17.152-69.939 37.581-114.227 37.581-46.95 0-80.589-18.688-113.152-36.762-27.75-15.36-53.965-29.952-87.040-29.952-28.006 0-57.651 13.568-73.062 21.811v17.869c0.016 0.351 0.026 0.763 0.026 1.176 0 14.93-12.103 27.034-27.034 27.034s-27.034-12.103-27.034-27.034c0-0.414 0.009-0.825 0.028-1.234l-0.002 0.058v-535.859c-0.016-0.351-0.026-0.763-0.026-1.176 0-14.93 12.103-27.034 27.034-27.034s27.034 12.103 27.034 27.034c0 0.414-0.009 0.825-0.028 1.234l0.002-0.058v191.437c21.492-9.531 46.499-15.393 72.789-16.122l0.273-0.006c46.95 0 80.589 18.688 113.152 36.762 27.75 15.36 53.965 29.952 87.040 29.952 40.96 0 84.685-28.57 85.094-28.826 4.204-2.826 9.381-4.51 14.95-4.51 14.914 0 27.007 12.077 27.034 26.985v266.601c0 0.033 0 0.072 0 0.111 0 9.656-5.092 18.123-12.737 22.863l-0.115 0.066zM685.312 667.085v-207.104c-21.49 9.554-46.501 15.419-72.799 16.122l-0.263 0.006c-46.95 0-80.589-18.688-113.152-36.71-27.75-15.36-53.965-29.952-87.040-29.952-28.058 0-57.651 13.568-73.062 21.811v207.104c21.449-9.59 46.416-15.506 72.674-16.275l0.286-0.007c46.95 0 80.589 18.637 113.152 36.71 27.75 15.36 53.965 29.952 87.040 29.952 27.853-0.102 57.549-13.414 72.96-21.658z" />
<glyph unicode="&#xe915;" glyph-name="sand-timer" d="M726.17 206.643h-42.701v121.19c0 0.022 0 0.047 0 0.073 0 7.049-3.283 13.332-8.403 17.403l-0.045 0.035-134.195 106.189 134.144 106.189c5.194 4.086 8.499 10.371 8.499 17.428 0 0.029 0 0.058 0 0.087v-0.004 114.125h42.701c12.329 0 22.323 9.994 22.323 22.323s-9.994 22.323-22.323 22.323h-428.339c-12.329 0-22.323-9.994-22.323-22.323s9.994-22.323 22.323-22.323h42.701v-114.125c0-0.014 0-0.031 0-0.048 0-7.057 3.282-13.347 8.403-17.428l0.045-0.035 134.195-106.189-134.195-106.189c-5.166-4.106-8.448-10.388-8.448-17.438 0-0.026 0-0.051 0-0.077v0.004-121.19h-42.701c-12.329 0-22.323-9.994-22.323-22.323s9.994-22.323 22.323-22.323h428.339c12.329 0 22.323 9.994 22.323 22.323s-9.994 22.323-22.323 22.323v0zM638.822 206.643h-253.645v110.387l126.822 100.25 126.822-100.403zM385.178 689.357h253.645v-103.117l-126.822-100.608-126.822 100.608z" />
<glyph unicode="&#xe916;" glyph-name="search" d="M809.421 188.518l-119.398 115.302c40.873 47.686 65.752 110.128 65.752 178.381 0 151.791-123.051 274.842-274.842 274.842s-274.842-123.051-274.842-274.842c0-151.791 123.051-274.842 274.842-274.842 0.122 0 0.244 0 0.366 0h-0.019c0.247-0.001 0.539-0.001 0.832-0.001 62.655 0 120.361 21.186 166.346 56.786l-0.624-0.465 120.166-116.429c5.246-5.087 12.41-8.223 20.306-8.223 16.118 0 29.184 13.066 29.184 29.184 0 7.896-3.136 15.059-8.23 20.313l0.007-0.007zM697.344 482.355c0-0.015 0-0.033 0-0.051 0-119.47-96.85-216.32-216.32-216.32s-216.32 96.85-216.32 216.32c0 119.47 96.85 216.32 216.32 216.32 0.090 0 0.18 0 0.27 0h-0.014c119.284-0.291 215.89-96.969 216.064-216.252v-0.017z" />
<glyph unicode="&#xe917;" glyph-name="environments" d="M749.466 215.91h-30.72v448.717c0.003 0.124 0.005 0.269 0.005 0.416 0 9.426-7.513 17.096-16.877 17.35l-0.023 0.001h-189.85c-9.388-0.254-16.901-7.925-16.901-17.351 0-0.146 0.002-0.292 0.005-0.437v0.022-132.25h-173.158c-9.388-0.254-16.902-7.925-16.902-17.351 0-0.164 0.002-0.328 0.007-0.491l-0.001 0.024v-298.803h-30.72c-9.897 0-17.92-8.023-17.92-17.92s8.023-17.92 17.92-17.92v0h474.931c9.897 0 17.92 8.023 17.92 17.92s-8.023 17.92-17.92 17.92v0zM463.462 263.68v-47.821h-29.594v47.821zM480.358 299.264h-63.283c-9.388-0.254-16.902-7.925-16.902-17.351 0-0.164 0.002-0.328 0.007-0.491l-0.001 0.024v-65.485h-61.44v280.986h219.597v-281.037h-61.082v65.485c0.003 0.124 0.005 0.27 0.005 0.417 0 9.436-7.507 17.118-16.875 17.4l-0.026 0.001zM575.334 532.48h-46.49v114.483h156.314v-431.053h-92.928v298.65c0.007 0.185 0.011 0.401 0.011 0.619 0 9.417-7.522 17.078-16.886 17.301h-0.021zM405.299 465.766c-9.388-0.254-16.901-7.925-16.901-17.351 0-0.146 0.002-0.292 0.005-0.437v0.022-16.691c0-9.331 7.565-16.896 16.896-16.896s16.896 7.565 16.896 16.896v16.691c0.003 0.124 0.005 0.269 0.005 0.416 0 9.426-7.513 17.096-16.877 17.35l-0.023 0.001zM405.299 382.515c-9.394-0.282-16.901-7.965-16.901-17.401 0-0.147 0.002-0.293 0.005-0.439v0.022-16.691c0-9.331 7.565-16.896 16.896-16.896s16.896 7.565 16.896 16.896v16.691c0.003 0.124 0.005 0.27 0.005 0.417 0 9.436-7.507 17.118-16.875 17.4l-0.026 0.001zM494.234 413.645c9.388 0.254 16.901 7.925 16.901 17.351 0 0.146-0.002 0.292-0.005 0.437v-0.022 16.589c0.016 0.278 0.026 0.604 0.026 0.931 0 9.36-7.588 16.947-16.947 16.947s-16.947-7.588-16.947-16.947c0-0.328 0.009-0.653 0.028-0.976l-0.002 0.045v-16.691c-0.002-0.093-0.003-0.202-0.003-0.312 0-9.443 7.541-17.124 16.929-17.352h0.021zM634.88 432.998c9.41 0.226 16.952 7.908 16.952 17.352 0 0.146-0.002 0.291-0.005 0.436v-0.021 16.691c0.016 0.278 0.026 0.604 0.026 0.931 0 9.36-7.588 16.947-16.947 16.947s-16.947-7.588-16.947-16.947c0-0.328 0.009-0.653 0.028-0.976l-0.002 0.045v-16.691c-0.002-0.094-0.003-0.205-0.003-0.316 0-9.445 7.501-17.139 16.87-17.449l0.028-0.001zM634.88 542.31c9.416 0.254 16.952 7.948 16.952 17.402 0 0.146-0.002 0.292-0.005 0.437v-0.022 16.691c0.016 0.278 0.026 0.604 0.026 0.931 0 9.36-7.588 16.947-16.947 16.947s-16.947-7.588-16.947-16.947c0-0.328 0.009-0.653 0.028-0.976l-0.002 0.045v-16.691c-0.002-0.095-0.003-0.206-0.003-0.318 0-9.456 7.495-17.161 16.868-17.499l0.031-0.001zM494.234 330.24c9.394 0.282 16.901 7.965 16.901 17.401 0 0.147-0.002 0.293-0.005 0.439v-0.022 16.64c0.016 0.278 0.026 0.604 0.026 0.931 0 9.36-7.588 16.947-16.947 16.947s-16.947-7.588-16.947-16.947c0-0.328 0.009-0.653 0.028-0.976l-0.002 0.045v-16.64c-0.003-0.124-0.005-0.269-0.005-0.416 0-9.454 7.536-17.148 16.929-17.402l0.023-0.001zM634.88 323.635c9.41 0.226 16.952 7.908 16.952 17.352 0 0.146-0.002 0.291-0.005 0.436v-0.021 16.691c0.016 0.278 0.026 0.604 0.026 0.931 0 9.36-7.588 16.947-16.947 16.947s-16.947-7.588-16.947-16.947c0-0.328 0.009-0.653 0.028-0.976l-0.002 0.045v-16.691c-0.002-0.094-0.003-0.205-0.003-0.316 0-9.445 7.501-17.139 16.87-17.449l0.028-0.001zM306.227 563.558h110.848c0.061 0 0.133 0 0.205 0 28.277 0 51.2 22.923 51.2 51.2 0 28.205-22.807 51.084-50.984 51.2h-0.011c-3.777 27.765-27.333 48.934-55.834 48.934s-52.056-21.17-55.801-48.642l-0.033-0.292c-28.189-0.116-50.996-22.995-50.996-51.2 0-28.277 22.923-51.2 51.2-51.2 0.072 0 0.144 0 0.216 0h-0.011zM338.842 648.038v8.294c-0.033 0.456-0.051 0.988-0.051 1.525 0 12.555 10.178 22.733 22.733 22.733s22.733-10.178 22.733-22.733c0-0.537-0.019-1.069-0.055-1.596l0.004 0.071v-8.294c-0.003-0.124-0.005-0.269-0.005-0.416 0-9.426 7.513-17.096 16.877-17.35l0.023-0.001h15.872c8.61 0 15.59-6.98 15.59-15.59s-6.98-15.59-15.59-15.59v0h-110.746c-8.61 0-15.59 6.98-15.59 15.59s6.98 15.59 15.59 15.59v0h15.821c9.338 0.282 16.8 7.918 16.8 17.298 0 0.165-0.002 0.329-0.007 0.492l0.001-0.024z" />
<glyph unicode="&#xe918;" glyph-name="send" d="M768.307 506.368l-464.179 192.512c-7.137 3.034-15.438 4.798-24.151 4.798-34.894 0-63.181-28.287-63.181-63.181 0-5.506 0.704-10.847 2.027-15.938l-0.097 0.439 45.107-176.998-45.107-176.998c-1.269-4.733-1.998-10.166-1.998-15.77 0-34.868 28.223-63.145 63.071-63.232h0.008c8.807 0.088 17.154 1.963 24.727 5.279l-0.407-0.159 464.179 192.614c23.087 9.749 38.994 32.201 38.994 58.368s-15.908 48.619-38.58 58.212l-0.414 0.156zM266.24 258.918v0l41.984 164.608h161.485c13.516 0 24.474 10.957 24.474 24.474s-10.957 24.474-24.474 24.474v0h-161.587l-41.882 164.608c-0.286 1.065-0.45 2.288-0.45 3.55 0 7.861 6.373 14.234 14.234 14.234 1.973 0 3.852-0.401 5.56-1.127l-0.093 0.035 464.077-192.614c5.171-2.226 8.725-7.277 8.725-13.158s-3.554-10.933-8.632-13.123l-0.093-0.036-464.179-192.614c-1.619-0.703-3.504-1.112-5.485-1.112-3.577 0-6.843 1.334-9.327 3.532l0.015-0.013c-2.981 2.569-4.857 6.35-4.857 10.568 0 1.323 0.184 2.602 0.529 3.815l-0.024-0.098z" />
<glyph unicode="&#xe919;" glyph-name="bulb" d="M727.040 554.547c0 118.876-96.368 215.245-215.245 215.245s-215.245-96.368-215.245-215.245v0-1.434c0.41-85.965 36.557-133.53 68.454-175.514 26.675-35.123 47.77-62.874 47.77-109.056v-65.843c0.058-41.449 33.658-75.030 75.108-75.059h47.824c41.453 0.029 75.052 33.611 75.11 75.054v65.849c0 46.080 21.094 73.933 47.77 109.056 32.102 41.984 68.454 89.549 68.454 175.514v1.434zM560.742 202.701c-0.029-13.816-11.221-25.008-25.034-25.037h-47.619c-13.816 0.029-25.008 11.221-25.037 25.034v48.797h97.894zM618.701 407.859c-23.142-30.72-46.95-61.798-55.040-106.291h-103.526c-8.090 44.493-31.898 75.827-55.040 106.291-29.901 39.322-58.061 76.39-58.317 145.92 1.635 89.99 74.97 162.314 165.197 162.314s163.562-72.324 165.195-162.161l0.002-0.153c-0.205-69.53-28.365-106.598-58.266-145.92z" />
<glyph unicode="&#xe91a;" glyph-name="bulb-two" d="M216.678 578.15h6.246c13.827 0 25.037-11.209 25.037-25.037s-11.209-25.037-25.037-25.037h-6.246c-13.827 0-25.037 11.209-25.037 25.037s11.209 25.037 25.037 25.037zM236.984 440.464l8.368 4.214c12.35 6.219 27.403 1.25 33.622-11.1s1.25-27.403-11.1-33.622l-8.368-4.214c-12.35-6.219-27.403-1.25-33.622 11.1s-1.25 27.403 11.1 33.622zM225.922 702.574c6.219 12.35 21.273 17.319 33.622 11.1l7.134-3.593c12.35-6.219 17.319-21.273 11.1-33.622s-21.273-17.319-33.622-11.1l-7.134 3.593c-12.35 6.219-17.319 21.273-11.1 33.622zM801.126 578.15h6.246c13.827 0 25.037-11.209 25.037-25.037s-11.209-25.037-25.037-25.037h-6.246c-13.827 0-25.037 11.209-25.037 25.037s11.209 25.037 25.037 25.037zM744.927 433.63c6.219 12.35 21.273 17.319 33.622 11.1l8.368-4.214c12.35-6.219 17.319-21.273 11.1-33.622s-21.273-17.319-33.622-11.1l-8.368 4.214c-12.35 6.219-17.319 21.273-11.1 33.622zM757.35 710.065l7.134 3.593c12.35 6.219 27.403 1.25 33.622-11.1s1.25-27.403-11.1-33.622l-7.134-3.593c-12.35-6.219-27.403-1.25-33.622 11.1s-1.25 27.403 11.1 33.622zM727.040 554.547c0 118.876-96.368 215.245-215.245 215.245s-215.245-96.368-215.245-215.245v0-1.434c0.41-85.965 36.557-133.53 68.454-175.514 26.675-35.123 47.77-62.874 47.77-109.056v-65.843c0.058-41.449 33.658-75.030 75.108-75.059h47.824c41.453 0.029 75.052 33.611 75.11 75.054v65.849c0 46.080 21.094 73.933 47.77 109.056 32.102 41.984 68.454 89.549 68.454 175.514v1.434zM560.742 202.701c-0.029-13.816-11.221-25.008-25.034-25.037h-47.619c-13.816 0.029-25.008 11.221-25.037 25.034v48.797h97.894zM618.701 407.859c-23.142-30.72-46.95-61.798-55.040-106.291h-103.526c-8.090 44.493-31.898 75.827-55.040 106.291-29.901 39.322-58.061 76.39-58.317 145.92 1.635 89.99 74.97 162.314 165.197 162.314s163.562-72.324 165.195-162.161l0.002-0.153c-0.205-69.53-28.365-106.598-58.266-145.92z" />
<glyph unicode="&#xe91b;" glyph-name="angle-top-s" d="M728.308 382.793l-187.411 188.062c-7.403 7.411-17.631 11.998-28.931 12.007h-0.002c-0.062 0-0.135 0.001-0.208 0.001-11.238 0-21.403-4.593-28.72-12.003l-0.004-0.004-187.484-188.062c-7.405-7.405-11.984-17.634-11.984-28.933 0-22.598 18.319-40.917 40.917-40.917 11.299 0 21.528 4.58 28.933 11.984v0l158.623 159.13 158.551-159.13c7.405-7.405 17.634-11.984 28.933-11.984 22.598 0 40.917 18.319 40.917 40.917 0 11.299-4.58 21.528-11.984 28.933v0z" />
<glyph unicode="&#xe91c;" glyph-name="angle-right-s" d="M446.793 231.692l188.062 187.411c7.431 7.397 12.041 17.623 12.079 28.925v0.007c0 0.071 0.001 0.155 0.001 0.238 0 11.228-4.593 21.384-12.003 28.69l-0.005 0.005-188.062 187.484c-7.405 7.405-17.634 11.984-28.933 11.984-22.598 0-40.917-18.319-40.917-40.917 0-11.299 4.58-21.528 11.984-28.933v0l159.13-158.551-159.13-158.623c-7.405-7.405-11.984-17.634-11.984-28.933 0-22.598 18.319-40.917 40.917-40.917 11.299 0 21.528 4.58 28.933 11.984v0z" />
<glyph unicode="&#xe91d;" glyph-name="angle-bottom-s" d="M295.692 513.207l187.484-188.062c7.366-7.487 17.608-12.127 28.933-12.127s21.566 4.639 28.927 12.121l0.005 0.005 187.484 188.062c7.305 7.369 11.818 17.515 11.818 28.716 0 22.515-18.24 40.77-40.749 40.795h-0.002c-0.074 0-0.162 0.001-0.249 0.001-11.211 0-21.357-4.563-28.681-11.933l-0.002-0.002-158.623-159.13-158.623 159.13c-7.405 7.405-17.634 11.984-28.933 11.984-22.598 0-40.917-18.319-40.917-40.917 0-11.299 4.58-21.528 11.984-28.933v0z" />
<glyph unicode="&#xe91e;" glyph-name="angle-left-s" d="M577.207 664.308l-188.062-187.484c-7.452-7.383-12.065-17.619-12.065-28.933s4.614-21.55 12.062-28.93l0.003-0.003 188.062-187.484c7.405-7.405 17.634-11.984 28.933-11.984 22.598 0 40.917 18.319 40.917 40.917 0 11.299-4.58 21.528-11.984 28.933v0l-159.13 158.623 159.13 158.623c7.405 7.405 11.984 17.634 11.984 28.933 0 22.598-18.319 40.917-40.917 40.917-11.299 0-21.528-4.58-28.933-11.984v0z" />
<glyph unicode="&#xe91f;" glyph-name="angle-top-m" d="M730.266 369.254l-197.786 198.195c-5.226 5.275-12.472 8.541-20.48 8.541s-15.254-3.266-20.478-8.538l-0.002-0.002-197.837-198.195c-5.25-5.237-8.498-12.479-8.498-20.48s3.248-15.243 8.497-20.479l0.001-0.001c5.232-5.262 12.476-8.519 20.48-8.519s15.248 3.257 20.479 8.518l0.001 0.001 177.357 177.971 177.408-177.766c5.241-5.241 12.482-8.483 20.48-8.483 15.996 0 28.963 12.967 28.963 28.963 0 7.998-3.242 15.239-8.483 20.48v0z" />
<glyph unicode="&#xe920;" glyph-name="angle-right-m" d="M433.254 229.734l198.195 197.786c5.275 5.226 8.541 12.472 8.541 20.48s-3.266 15.254-8.538 20.478l-0.002 0.002-198.195 197.837c-5.237 5.25-12.479 8.498-20.48 8.498s-15.243-3.248-20.479-8.497l-0.001-0.001c-5.262-5.232-8.519-12.476-8.519-20.48s3.257-15.248 8.518-20.479l0.001-0.001 177.971-177.357-177.766-177.408c-5.241-5.241-8.483-12.482-8.483-20.48 0-15.996 12.967-28.963 28.963-28.963 7.998 0 15.239 3.242 20.48 8.483v0z" />
<glyph unicode="&#xe921;" glyph-name="angle-bottom-m" d="M293.734 526.746l197.786-198.195c5.226-5.275 12.472-8.541 20.48-8.541s15.254 3.266 20.478 8.538l0.002 0.002 197.888 198.195c5.25 5.237 8.498 12.479 8.498 20.48s-3.248 15.243-8.497 20.479l-0.001 0.001c-5.232 5.262-12.476 8.519-20.48 8.519s-15.248-3.257-20.479-8.518l-0.001-0.001-177.408-177.971-177.408 177.766c-5.241 5.241-12.482 8.483-20.48 8.483-15.996 0-28.963-12.967-28.963-28.963 0-7.998 3.242-15.239 8.483-20.48v0z" />
<glyph unicode="&#xe922;" glyph-name="angle-left-m" d="M590.746 666.266l-198.195-197.786c-5.275-5.226-8.541-12.472-8.541-20.48s3.266-15.254 8.538-20.478l0.002-0.002 198.195-197.888c5.237-5.25 12.479-8.498 20.48-8.498s15.243 3.248 20.479 8.497l0.001 0.001c5.262 5.232 8.519 12.476 8.519 20.48s-3.257 15.248-8.518 20.479l-0.001 0.001-177.971 177.408 177.766 177.408c5.241 5.241 8.483 12.482 8.483 20.48 0 15.996-12.967 28.963-28.963 28.963-7.998 0-15.239-3.242-20.48-8.483v0z" />
<glyph unicode="&#xe923;" glyph-name="angle-top-l" d="M853.35 307.712l-320.87 321.28c-5.232 5.262-12.476 8.519-20.48 8.519s-15.248-3.257-20.479-8.518l-0.001-0.001-320.922-321.28c-5.25-5.237-8.498-12.479-8.498-20.48s3.248-15.243 8.497-20.479l0.001-0.001c5.232-5.262 12.476-8.519 20.48-8.519s15.248 3.257 20.479 8.518l0.001 0.001 300.442 301.056 300.544-300.851c5.241-5.241 12.482-8.483 20.48-8.483 15.996 0 28.963 12.967 28.963 28.963 0 7.998-3.242 15.239-8.483 20.48v0z" />
<glyph unicode="&#xe924;" glyph-name="angle-right-l" d="M371.712 106.65l321.28 320.87c5.262 5.232 8.519 12.476 8.519 20.48s-3.257 15.248-8.518 20.479l-0.001 0.001-321.28 320.922c-5.237 5.25-12.479 8.498-20.48 8.498s-15.243-3.248-20.479-8.497l-0.001-0.001c-5.262-5.232-8.519-12.476-8.519-20.48s3.257-15.248 8.518-20.479l0.001-0.001 301.056-300.442-300.851-300.544c-5.241-5.241-8.483-12.482-8.483-20.48 0-15.996 12.967-28.963 28.963-28.963 7.998 0 15.239 3.242 20.48 8.483v0z" />
<glyph unicode="&#xe925;" glyph-name="angle-bottom-l" d="M170.65 588.288l320.87-321.28c5.232-5.262 12.476-8.519 20.48-8.519s15.248 3.257 20.479 8.518l0.001 0.001 320.922 321.28c5.25 5.237 8.498 12.479 8.498 20.48s-3.248 15.243-8.497 20.479l-0.001 0.001c-5.232 5.262-12.476 8.519-20.48 8.519s-15.248-3.257-20.479-8.518l-0.001-0.001-300.442-301.056-300.544 300.851c-5.241 5.241-12.482 8.483-20.48 8.483-15.996 0-28.963-12.967-28.963-28.963 0-7.998 3.242-15.239 8.483-20.48v0z" />
<glyph unicode="&#xe926;" glyph-name="angle-left-l" d="M652.288 789.35l-321.28-320.87c-5.262-5.232-8.519-12.476-8.519-20.48s3.257-15.248 8.518-20.479l0.001-0.001 321.331-320.973c5.237-5.25 12.479-8.498 20.48-8.498s15.243 3.248 20.479 8.497l0.001 0.001c5.262 5.232 8.519 12.476 8.519 20.48s-3.257 15.248-8.518 20.479l-0.001 0.001-301.107 300.493 300.851 300.544c5.241 5.241 8.483 12.482 8.483 20.48 0 15.996-12.967 28.963-28.963 28.963-7.998 0-15.239-3.242-20.48-8.483v0z" />
<glyph unicode="&#xe927;" glyph-name="expand" d="M329.933 393.216l161.587-161.997c5.246-5.237 12.482-8.481 20.476-8.499h0.004c0.031 0 0.068 0 0.105 0 7.968 0 15.177 3.25 20.373 8.497l0.002 0.002 161.69 161.997c5.171 5.216 8.366 12.398 8.366 20.326 0 15.937-12.911 28.859-28.844 28.877h-0.002c-0.052 0-0.114 0.001-0.177 0.001-7.936 0-15.118-3.23-20.302-8.447l-0.001-0.001-141.21-141.568-141.21 141.568c-5.241 5.241-12.482 8.483-20.48 8.483-15.996 0-28.963-12.967-28.963-28.963 0-7.998 3.242-15.239 8.483-20.48v0zM329.933 618.496l161.587-161.997c5.246-5.237 12.482-8.481 20.476-8.499h0.004c0.031 0 0.068 0 0.105 0 7.968 0 15.177 3.25 20.373 8.497l0.002 0.002 161.638 161.997c5.171 5.216 8.366 12.398 8.366 20.326 0 15.937-12.911 28.859-28.844 28.877h-0.002c-0.052 0-0.114 0.001-0.177 0.001-7.936 0-15.118-3.23-20.302-8.447l-0.001-0.001-141.158-141.568-141.21 141.568c-5.241 5.241-12.482 8.483-20.48 8.483-15.996 0-28.963-12.967-28.963-28.963 0-7.998 3.242-15.239 8.483-20.48v0z" />
<glyph unicode="&#xe928;" glyph-name="arrow-top-s" d="M731.491 468.578l-193.704 194.283c-6.565 6.673-15.693 10.808-25.786 10.808s-19.221-4.135-25.782-10.803l-0.005-0.005-193.704-194.283c-6.741-6.575-10.922-15.749-10.922-25.898 0-19.974 16.192-36.166 36.166-36.166 0.178 0 0.356 0.001 0.533 0.004h-0.027c10.105 0.063 19.218 4.261 25.741 10.985l131.436 131.436v-289.978c-0.023-0.486-0.036-1.055-0.036-1.627 0-20.214 16.386-36.6 36.6-36.6s36.6 16.386 36.6 36.6c0 0.572-0.013 1.141-0.039 1.707l0.003-0.080v289.978l131.354-131.427c6.582-6.785 15.785-10.997 25.971-10.997 19.974 0 36.166 16.192 36.166 36.166 0 0.179-0.001 0.357-0.004 0.535v-0.027c-0.043 9.915-4.070 18.882-10.561 25.389l0.001-0.001z" />
<glyph unicode="&#xe929;" glyph-name="arrow-right-s" d="M532.651 228.509l194.283 193.704c6.673 6.565 10.808 15.693 10.808 25.786s-4.135 19.221-10.803 25.782l-0.005 0.005-194.283 193.704c-6.562 6.651-15.675 10.771-25.75 10.771s-19.188-4.12-25.746-10.767l-0.004-0.004c-6.569-6.549-10.633-15.606-10.633-25.613 0-0.048 0-0.096 0-0.144v0.007c0.002-10.040 4.095-19.124 10.703-25.675l0.003-0.002 131.788-131.499h-290.050c-19.501-0.894-34.973-16.922-34.973-36.564s15.472-35.669 34.893-36.561l0.080-0.003h289.978l-131.716-131.354c-6.785-6.582-10.997-15.785-10.997-25.971 0-19.974 16.192-36.166 36.166-36.166 0.179 0 0.357 0.001 0.535 0.004h-0.027c0.062 0 0.135-0.001 0.209-0.001 9.971 0 19 4.035 25.542 10.562l-0.001-0.001z" />
<glyph unicode="&#xe92a;" glyph-name="arrow-bottom-s" d="M292.509 427.349l193.704-194.283c6.601-6.645 15.722-10.779 25.809-10.85h0.013c0.019 0 0.042 0 0.065 0 10.043 0 19.129 4.093 25.683 10.703l0.002 0.002 193.777 194.283c6.651 6.562 10.771 15.675 10.771 25.75s-4.12 19.188-10.767 25.746l-0.004 0.004c-6.549 6.569-15.606 10.633-25.613 10.633-0.048 0-0.096 0-0.144 0h0.007c-0.105 0.001-0.228 0.002-0.352 0.002-9.972 0-19.001-4.036-25.543-10.563l0.001 0.001-131.354-131.788v290.050c-0.894 19.501-16.922 34.973-36.564 34.973s-35.669-15.472-36.561-34.893l-0.003-0.080v-289.978l-131.354 131.716c-6.569 6.696-15.712 10.846-25.824 10.846-19.974 0-36.166-16.192-36.166-36.166 0-0.126 0.001-0.252 0.002-0.377v0.019c-0.001-0.105-0.002-0.229-0.002-0.353 0-9.899 3.977-18.87 10.421-25.401l-0.004 0.004z" />
<glyph unicode="&#xe92b;" glyph-name="arrow-left-s" d="M491.422 667.491l-194.283-193.704c-6.592-6.62-10.676-15.741-10.705-25.817v-0.006c0-0.041 0-0.089 0-0.137 0-10.007 4.064-19.065 10.632-25.612l194.356-193.778c6.576-6.742 15.749-10.923 25.899-10.923 19.974 0 36.166 16.192 36.166 36.166 0 0.204-0.002 0.407-0.005 0.61v-0.031c-0.042 10.132-4.244 19.274-10.985 25.814l-131.436 131.363h289.978c0.486-0.023 1.055-0.036 1.627-0.036 20.214 0 36.6 16.386 36.6 36.6s-16.386 36.6-36.6 36.6c-0.572 0-1.141-0.013-1.707-0.039l0.080 0.003h-289.978l131.427 131.354c6.695 6.569 10.845 15.711 10.845 25.822 0 19.974-16.192 36.166-36.166 36.166-0.024 0-0.047 0-0.071 0h0.004c-0.084 0.001-0.183 0.001-0.282 0.001-9.899 0-18.869-3.977-25.4-10.421l0.004 0.004z" />
<glyph unicode="&#xe92c;" glyph-name="arrow-top-m" d="M540.467 263.014v301.466l88.627-88.883c5.149-5.287 12.337-8.567 20.291-8.567 15.637 0 28.314 12.676 28.314 28.314 0 7.929-3.259 15.096-8.51 20.236l-0.005 0.005-137.114 137.523c-5.134 5.141-12.231 8.321-20.070 8.321s-14.936-3.18-20.070-8.321v0l-137.165-137.523c-5.104-5.123-8.259-12.19-8.259-19.994 0-15.646 12.684-28.33 28.33-28.33 7.842 0 14.94 3.186 20.070 8.335l0.001 0.001 88.627 88.883v-301.466c0-15.722 12.745-28.467 28.467-28.467s28.467 12.745 28.467 28.467v0z" />
<glyph unicode="&#xe92d;" glyph-name="arrow-right-m" d="M327.014 419.533h301.466l-88.883-88.627c-5.287-5.149-8.567-12.337-8.567-20.291 0-15.637 12.676-28.314 28.314-28.314 7.929 0 15.096 3.259 20.236 8.51l0.005 0.005 137.523 137.114c5.141 5.134 8.321 12.231 8.321 20.070s-3.18 14.936-8.321 20.070v0l-137.523 137.165c-5.123 5.104-12.19 8.259-19.994 8.259-15.646 0-28.33-12.684-28.33-28.33 0-7.842 3.186-14.94 8.335-20.070l0.001-0.001 88.883-88.627h-301.466c-15.722 0-28.467-12.745-28.467-28.467s12.745-28.467 28.467-28.467v0z" />
<glyph unicode="&#xe92e;" glyph-name="arrow-bottom-m" d="M483.533 632.986v-301.466l-88.627 88.883c-5.149 5.287-12.337 8.567-20.291 8.567-15.637 0-28.314-12.676-28.314-28.314 0-7.929 3.259-15.096 8.51-20.236l0.005-0.005 137.114-137.523c5.134-5.141 12.231-8.321 20.070-8.321s14.936 3.18 20.070 8.321v0l137.165 137.574c5.104 5.123 8.259 12.19 8.259 19.994 0 15.646-12.684 28.33-28.33 28.33-7.842 0-14.94-3.186-20.070-8.335l-0.001-0.001-88.627-88.883v301.414c0 15.722-12.745 28.467-28.467 28.467s-28.467-12.745-28.467-28.467v0z" />
<glyph unicode="&#xe92f;" glyph-name="arrow-left-m" d="M696.986 476.467h-301.466l88.883 88.627c5.287 5.149 8.567 12.337 8.567 20.291 0 15.637-12.676 28.314-28.314 28.314-7.929 0-15.096-3.259-20.236-8.51l-0.005-0.005-137.523-137.114c-5.141-5.134-8.321-12.231-8.321-20.070s3.18-14.936 8.321-20.070v0l137.523-137.165c5.123-5.104 12.19-8.259 19.994-8.259 15.646 0 28.33 12.684 28.33 28.33 0 7.842-3.186 14.94-8.335 20.070l-0.001 0.001-88.883 88.627h301.466c15.722 0 28.467 12.745 28.467 28.467s-12.745 28.467-28.467 28.467v0z" />
<glyph unicode="&#xe930;" glyph-name="arrow-top-l" d="M539.546 219.392v390.861l84.582-84.838c4.888-4.567 11.474-7.372 18.715-7.372 15.156 0 27.443 12.287 27.443 27.443 0 7.203-2.775 13.757-7.314 18.653l0.016-0.018-131.584 131.942c-4.987 4.907-11.833 7.936-19.387 7.936-0.006 0-0.013 0-0.019 0h0.001c-0.019 0-0.041 0-0.063 0-7.558 0-14.399-3.073-19.341-8.037l-0.001-0.001-131.584-131.84c-4.944-4.957-8.002-11.798-8.002-19.354 0-15.136 12.27-27.406 27.406-27.406 7.581 0 14.443 3.078 19.404 8.052l84.634 84.89v-390.912c0-15.213 12.333-27.546 27.546-27.546s27.546 12.333 27.546 27.546v0z" />
<glyph unicode="&#xe931;" glyph-name="arrow-right-l" d="M283.392 420.454h390.861l-84.838-84.582c-4.567-4.888-7.372-11.474-7.372-18.715 0-15.156 12.287-27.443 27.443-27.443 7.203 0 13.757 2.775 18.653 7.314l-0.018-0.016 131.942 131.584c4.907 4.987 7.936 11.833 7.936 19.387 0 0.006 0 0.013 0 0.019v-0.001c0 0.019 0 0.041 0 0.063 0 7.558-3.073 14.399-8.037 19.341l-0.001 0.001-131.994 131.584c-4.957 4.944-11.798 8.002-19.354 8.002-15.136 0-27.406-12.27-27.406-27.406 0-7.581 3.078-14.443 8.052-19.404l0.001-0.001 85.043-84.634h-390.912c-15.213 0-27.546-12.333-27.546-27.546s12.333-27.546 27.546-27.546v0z" />
<glyph unicode="&#xe932;" glyph-name="arrow-bottom-l" d="M484.454 676.608v-390.861l-84.582 84.838c-4.888 4.567-11.474 7.372-18.715 7.372-15.156 0-27.443-12.287-27.443-27.443 0-7.203 2.775-13.757 7.314-18.653l-0.016 0.018 131.584-131.942c4.987-4.907 11.833-7.936 19.387-7.936 0.006 0 0.013 0 0.019 0h-0.001c0.019 0 0.041 0 0.063 0 7.558 0 14.399 3.073 19.341 8.037l0.001 0.001 131.584 131.994c4.944 4.957 8.002 11.798 8.002 19.354 0 15.136-12.27 27.406-27.406 27.406-7.581 0-14.443-3.078-19.404-8.052l-0.001-0.001-84.634-85.043v390.912c0 15.213-12.333 27.546-27.546 27.546s-27.546-12.333-27.546-27.546v0z" />
<glyph unicode="&#xe933;" glyph-name="arrow-left-l" d="M740.608 475.546h-390.861l84.838 84.582c4.567 4.888 7.372 11.474 7.372 18.715 0 15.156-12.287 27.443-27.443 27.443-7.203 0-13.757-2.775-18.653-7.314l0.018 0.016-131.942-131.584c-4.907-4.987-7.936-11.833-7.936-19.387 0-0.006 0-0.013 0-0.019v0.001c0-0.019 0-0.041 0-0.063 0-7.558 3.073-14.399 8.037-19.341l0.001-0.001 131.994-131.584c4.957-4.944 11.798-8.002 19.354-8.002 15.136 0 27.406 12.27 27.406 27.406 0 7.581-3.078 14.443-8.052 19.404l-0.001 0.001-85.043 84.634h390.912c15.213 0 27.546 12.333 27.546 27.546s-12.333 27.546-27.546 27.546v0z" />
<glyph unicode="&#xe934;" glyph-name="attach" d="M664.883 557.978c-3.465 3.467-8.254 5.611-13.542 5.611s-10.077-2.144-13.542-5.611l-211.763-211.712c-4.859-5.74-12.069-9.359-20.125-9.359-14.534 0-26.317 11.782-26.317 26.317 0 8.132 3.689 15.403 9.484 20.23l0.042 0.034 243.046 243.098c10.201 10.248 24.319 16.589 39.917 16.589 0.043 0 0.085 0 0.128 0h-0.007c31.336-0.326 56.613-25.805 56.613-57.187 0-15.37-6.063-29.324-15.928-39.6l0.019 0.019-253.594-262.246c-15.023-16.122-35.239-27.229-57.973-30.652l-0.549-0.068c-3.408-0.441-7.35-0.693-11.35-0.693-25.251 0-48.159 10.027-64.962 26.316l0.024-0.023c-17.942 17.366-29.079 41.667-29.079 68.57 0 2.897 0.129 5.764 0.382 8.596l-0.026-0.366c2.478 23.906 13.256 44.916 29.359 60.439l0.030 0.029s158.72 158.72 228.045 227.994c3.461 3.449 5.602 8.22 5.602 13.491s-2.141 10.042-5.601 13.491l-0.001 0.001c-3.449 3.461-8.22 5.602-13.491 5.602s-10.042-2.141-13.491-5.601l-230.401-230.401c-23.537-23.993-38.065-56.898-38.065-93.196 0-72.898 58.596-132.111 131.257-133.107l0.094-0.001h0.666c37.012 0.289 70.384 15.639 94.334 40.215l0.028 0.028 256 265.011c16.624 17.132 26.873 40.531 26.873 66.324 0 52.623-42.66 95.283-95.283 95.283-4.312 0-8.556-0.286-12.716-0.841l0.487 0.053c-22.815-3.587-42.645-14.35-57.568-29.868l-0.032-0.033-237.875-237.926c-10.261-9.639-17.548-22.335-20.407-36.63l-0.073-0.439c-0.574-3.238-0.902-6.965-0.902-10.769 0-35.742 28.975-64.717 64.717-64.717 3.773 0 7.47 0.323 11.066 0.942l-0.385-0.055c14.723 2.914 27.407 10.205 36.982 20.441l0.036 0.039 209.613 209.51c3.467 3.465 5.611 8.254 5.611 13.542s-2.144 10.077-5.611 13.542v0z" />
<glyph unicode="&#xe935;" glyph-name="clock" d="M643.482 404.019h-175.002v228.301c0 15.552 12.608 28.16 28.16 28.16s28.16-12.608 28.16-28.16v0-171.981h118.682c15.552 0 28.16-12.608 28.16-28.16s-12.608-28.16-28.16-28.16v0zM512 806.707c-0.091 0-0.199 0-0.307 0-198.109 0-358.707-160.599-358.707-358.707s160.599-358.707 358.707-358.707c198.108 0 358.707 160.598 358.707 358.707v0.001c-0.232 197.907-160.517 358.299-358.36 358.707h-0.040zM512 144.077c-0.045 0-0.1 0-0.154 0-167.852 0-303.923 136.071-303.923 303.923s136.071 303.923 303.923 303.923c167.852 0 303.923-136.071 303.923-303.923v-0.001c-0.204-167.716-136.065-303.632-303.741-303.923h-0.028z" />
<glyph unicode="&#xe936;" glyph-name="calender" d="M747.827 690.227h-57.907v36.454c0 15.383-12.47 27.853-27.853 27.853s-27.853-12.47-27.853-27.853v-36.454h-244.429v36.454c0 15.383-12.47 27.853-27.853 27.853s-27.853-12.47-27.853-27.853v-36.454h-57.907c-39.027-0.058-70.649-31.68-70.707-70.702v-407.353c0.058-39.027 31.68-70.649 70.702-70.707h471.66c39.027 0.058 70.649 31.68 70.707 70.702v407.353c-0.058 39.027-31.68 70.649-70.702 70.707h-0.006zM762.88 484.454v-272.282c0-8.285-6.716-15.002-15.002-15.002v0h-471.706c-0.015 0-0.033 0-0.051 0-8.285 0-15.002 6.716-15.002 15.002 0 0 0 0 0 0v0 272.282zM361.933 570.214c15.371 0.029 27.824 12.482 27.853 27.85v36.457h244.429v-36.454c0-15.383 12.47-27.853 27.853-27.853s27.853 12.47 27.853 27.853v0 36.454h57.907c0.015 0 0.033 0 0.051 0 8.285 0 15.002-6.716 15.002-15.002 0 0 0 0 0 0v0-79.36h-501.76v79.36c0 8.285 6.716 15.002 15.002 15.002h57.958v-36.454c0.029-15.371 12.482-27.824 27.85-27.853h0.003z" />
<glyph unicode="&#xe937;" glyph-name="calender-tick" d="M747.827 690.227h-57.907v36.454c0 15.383-12.47 27.853-27.853 27.853s-27.853-12.47-27.853-27.853v-36.454h-244.429v36.454c0 15.383-12.47 27.853-27.853 27.853s-27.853-12.47-27.853-27.853v-36.454h-57.907c-39.027-0.058-70.649-31.68-70.707-70.702v-407.353c0.058-39.027 31.68-70.649 70.702-70.707h471.66c39.027 0.058 70.649 31.68 70.707 70.702v407.353c-0.058 39.027-31.68 70.649-70.702 70.707h-0.006zM762.88 484.454v-272.282c0-8.285-6.716-15.002-15.002-15.002v0h-471.706c-0.015 0-0.033 0-0.051 0-8.285 0-15.002 6.716-15.002 15.002 0 0 0 0 0 0v0 272.282zM361.933 570.214c15.371 0.029 27.824 12.482 27.853 27.85v36.457h244.429v-36.454c0-15.383 12.47-27.853 27.853-27.853s27.853 12.47 27.853 27.853v0 36.454h57.907c0.015 0 0.033 0 0.051 0 8.285 0 15.002-6.716 15.002-15.002 0 0 0 0 0 0v0-79.36h-501.76v79.36c0 8.285 6.716 15.002 15.002 15.002h57.958v-36.454c0.029-15.371 12.482-27.824 27.85-27.853h0.003zM457.574 249.651c3.628-3.654 8.654-5.916 14.208-5.916s10.58 2.262 14.207 5.915l160.82 160.82c3.636 3.636 5.885 8.659 5.885 14.208 0 11.097-8.996 20.093-20.093 20.093-5.549 0-10.572-2.249-14.208-5.885l-146.586-146.637-66.202 66.202c-3.511 3.083-8.143 4.965-13.215 4.965-11.085 0-20.070-8.986-20.070-20.070 0-5.021 1.844-9.611 4.891-13.131l-0.021 0.025z" />
<glyph unicode="&#xe938;" glyph-name="calendar-start" d="M563.814 225.126h-287.642c-0.015 0-0.033 0-0.051 0-8.285 0-15.002 6.716-15.002 15.002 0 0 0 0 0 0v0 272.282h501.76v-32.358c0.029-15.371 12.482-27.824 27.85-27.853h0.003c15.371 0.029 27.824 12.482 27.853 27.85v167.632c-0.029 39.039-31.668 70.678-70.704 70.707h-57.961v35.021c0.003 0.156 0.005 0.341 0.005 0.525 0 14.563-10.877 26.586-24.95 28.388l-0.142 0.015c-0.86 0.094-1.857 0.148-2.867 0.148-15.381 0-27.85-12.467-27.853-27.847v0-36.454h-244.326v35.226c0.003 0.156 0.005 0.341 0.005 0.525 0 14.563-10.877 26.586-24.95 28.388l-0.142 0.015c-0.86 0.094-1.857 0.148-2.867 0.148-15.381 0-27.85-12.467-27.853-27.847v0-36.454h-57.805c-38.967-0.029-70.562-31.552-70.707-70.488v-407.566c0.029-39.039 31.668-70.678 70.704-70.707h287.644c15.361 0.029 27.802 12.488 27.802 27.853 0 0 0 0 0 0v0c0 0 0 0 0 0 0 15.365-12.441 27.824-27.799 27.853h-0.003zM261.12 647.68c0 8.285 6.716 15.002 15.002 15.002h57.958v-36.454c0-15.383 12.47-27.853 27.853-27.853s27.853 12.47 27.853 27.853v36.25h244.429v-36.454c0-15.383 12.47-27.853 27.853-27.853s27.853 12.47 27.853 27.853v36.454h57.907c0.016 0 0.034 0 0.053 0 8.213 0 14.885-6.6 15-14.786v-79.371h-501.76zM685.773 117.299l182.784 151.501c3.613 2.989 5.898 7.474 5.898 12.493s-2.285 9.503-5.871 12.471l-0.027 0.022-182.784 151.603c-2.789 2.307-6.402 3.707-10.343 3.707-8.963 0-16.235-7.243-16.281-16.195v-303.21c0.046-8.957 7.318-16.2 16.281-16.2 3.94 0 7.554 1.4 10.37 3.729l-0.027-0.022zM807.373 281.395l-99.533-82.586v165.12z" />
<glyph unicode="&#xe939;" glyph-name="calendar-end" d="M497.254 225.126h-221.082c-0.015 0-0.033 0-0.051 0-8.285 0-15.002 6.716-15.002 15.002 0 0 0 0 0 0v0 272.282h501.76v-27.238c0-15.383 12.47-27.853 27.853-27.853s27.853 12.47 27.853 27.853v162.509c-0.029 39.039-31.668 70.678-70.704 70.707h-57.961v35.021c0.003 0.156 0.005 0.341 0.005 0.525 0 14.563-10.877 26.586-24.95 28.388l-0.142 0.015c-0.86 0.094-1.857 0.148-2.867 0.148-15.381 0-27.85-12.467-27.853-27.847v0-36.454h-244.326v35.226c0.003 0.156 0.005 0.341 0.005 0.525 0 14.563-10.877 26.586-24.95 28.388l-0.142 0.015c-0.86 0.094-1.857 0.148-2.867 0.148-15.381 0-27.85-12.467-27.853-27.847v0-36.454h-57.805c-38.967-0.029-70.562-31.552-70.707-70.488v-407.566c0.029-39.039 31.668-70.678 70.704-70.707h221.084c15.383 0 27.853 12.47 27.853 27.853s-12.47 27.853-27.853 27.853v0zM261.12 647.68c0 8.285 6.716 15.002 15.002 15.002h57.958v-36.454c0-15.383 12.47-27.853 27.853-27.853s27.853 12.47 27.853 27.853v36.25h244.429v-36.454c0-15.383 12.47-27.853 27.853-27.853s27.853 12.47 27.853 27.853v36.454h57.907c0.016 0 0.034 0 0.053 0 8.213 0 14.885-6.6 15-14.786v-79.371h-501.76zM719.616 334.49c-36.562 0-66.202-29.639-66.202-66.202s29.639-66.202 66.202-66.202c36.562 0 66.202 29.639 66.202 66.202 0 0.018 0 0.036 0 0.054v-0.003c-0.029 36.54-29.657 66.15-66.202 66.15v0zM719.616 423.117c-85.51 0-154.829-69.319-154.829-154.829s69.319-154.829 154.829-154.829c85.51 0 154.829 69.319 154.829 154.829 0 0.018 0 0.036 0 0.054v-0.003c-0.029 85.487-69.337 154.778-154.829 154.778v0zM719.616 152.627c-63.906 0-115.712 51.806-115.712 115.712s51.806 115.712 115.712 115.712c63.906 0 115.712-51.806 115.712-115.712v0c-0.087-63.871-51.841-115.625-115.704-115.712h-0.008z" />
<glyph unicode="&#xe93a;" glyph-name="cloud" d="M738.714 487.475c-3.466 123.724-104.59 222.7-228.831 222.7-110.308 0-202.394-78.022-224.081-181.891l-0.26-1.488c-78.29-17.359-135.97-86.193-135.97-168.499 0-95.202 77.172-172.38 172.372-172.39h401.306c83.35 0.201 150.84 67.816 150.84 151.193 0 77.967-59.015 142.15-134.812 150.316l-0.667 0.058zM723.354 242.432h-401.562c-63.118 1.133-113.85 52.566-113.85 115.848 0 60.036 45.66 109.407 104.148 115.28l23.935 1.934 2.406 23.706c9.552 87.015 82.65 154.108 171.418 154.108 95.045 0 172.126-76.917 172.39-171.901v-49.484h40.96c52.312 0 94.72-42.408 94.72-94.72s-42.408-94.72-94.72-94.72v0z" />
<glyph unicode="&#xe93b;" glyph-name="cloud-download" d="M724.992 263.424c0.052-15.654 12.755-28.324 28.416-28.324 2.344 0 4.621 0.284 6.8 0.819l-0.195-0.040c67.993 15.694 117.915 75.719 117.915 147.404 0 78.090-59.242 142.344-135.235 150.269l-0.652 0.055c-3.471 123.777-104.639 222.794-228.933 222.794-110.362 0-202.491-78.063-224.183-181.984l-0.26-1.488c-78.283-17.409-135.95-86.24-135.987-168.546v-0.004c0-0.135-0.001-0.294-0.001-0.454 0-75.721 48.907-140.019 116.855-163.029l1.213-0.357c2.891-1.102 6.235-1.74 9.727-1.74 12.891 0 23.752 8.694 27.039 20.538l0.047 0.197c0.544 2.045 0.856 4.392 0.856 6.813 0 12.245-7.99 22.625-19.042 26.208l-0.195 0.055c-47.821 14.387-79.974 59.29-79.974 111.923 0.459 60.444 46.905 109.896 106.054 115.117l0.442 0.031 23.45 1.894 2.406 23.706c9.038 86.326 80.816 153.208 168.475 154.469l0.127 0.001c96.461 1.587 175.411-79.616 175.411-176.077v-46.080h38.656c0.674 0.017 1.467 0.027 2.263 0.027 52.228 0 94.566-42.339 94.566-94.566 0-45.084-31.548-82.799-73.772-92.273l-0.631-0.119c-12.513-3.044-21.658-14.154-21.658-27.399 0-0.034 0-0.067 0-0.101v0.005zM605.235 304.23l-64.819-64.819v252.621c0 0 0 0 0 0 0 15.609-12.654 28.262-28.262 28.262-0.054 0-0.108 0-0.162 0h0.008c-15.553-0.087-28.131-12.701-28.16-28.26v-252.624l-64.819 64.819c-5.115 5.12-12.185 8.287-19.994 8.287s-14.878-3.167-19.993-8.287v0c-5.108-5.121-8.266-12.188-8.266-19.994s3.158-14.873 8.266-19.994l118.629-118.578c3.704-3.696 8.817-5.981 14.464-5.981s10.76 2.285 14.464 5.981v0l118.528 118.579c5.117 5.117 8.282 12.186 8.282 19.994 0 15.616-12.659 28.275-28.275 28.275-7.808 0-14.877-3.165-19.994-8.282v0z" />
<glyph unicode="&#xe93c;" glyph-name="cloud-upload" d="M497.408 510.976l-118.528-118.63c-5.105-5.113-8.261-12.172-8.261-19.968s3.157-14.855 8.262-19.968v0c5.115-5.12 12.185-8.287 19.994-8.287s14.878 3.167 19.993 8.287l64.768 64.871v-252.621c0 0 0 0 0 0 0-15.619 12.647-28.284 28.26-28.314h0.003c15.615 0.029 28.262 12.694 28.262 28.314 0 0 0 0 0 0v0 252.621l64.819-64.819c5.115-5.12 12.185-8.287 19.994-8.287s14.878 3.167 19.993 8.287v0c5.129 5.101 8.304 12.164 8.304 19.968s-3.175 14.867-8.303 19.967l-118.58 118.58c-3.707 3.711-8.83 6.007-14.49 6.007s-10.783-2.296-14.489-6.006v0zM737.997 536.986c-3.471 123.777-104.639 222.794-228.933 222.794-110.362 0-202.491-78.063-224.183-181.984l-0.26-1.488c-78.225-17.456-135.826-86.276-135.826-168.551 0-95.19 77.106-172.371 172.268-172.493h1.496c15.587 0.029 28.212 12.671 28.212 28.262 0 0.054 0 0.108 0 0.162v-0.008c-0.087 15.525-12.678 28.080-28.208 28.109h-1.59c-0.063 0-0.138 0-0.213 0-64.019 0-115.917 51.898-115.917 115.917 0 60.814 46.832 110.69 106.398 115.532l0.413 0.027 23.501 1.843 2.406 23.45c8.964 86.363 80.745 153.302 168.422 154.571l0.128 0.001c96.461 1.587 175.411-79.616 175.411-176.077v-46.080h38.656c51.2 0 95.027-39.834 96.973-91.085 0.043-1.069 0.068-2.324 0.068-3.584 0-52.311-42.382-94.722-94.681-94.771h-21.099c-15.609 0-28.262-12.654-28.262-28.262v0c0-15.609 12.654-28.262 28.262-28.262v0h21.197c0.041 0 0.090 0 0.138 0 83.53 0 151.245 67.715 151.245 151.245 0 78.169-59.302 142.488-135.371 150.422l-0.652 0.055z" />
<glyph unicode="&#xe93d;" glyph-name="cloud-network" d="M700.262 313.037c89.384 0 161.843 72.46 161.843 161.843s-72.46 161.843-161.843 161.843v0h-1.485c-13.524 92.15-92.034 162.098-186.88 162.098s-173.356-69.948-186.756-161.072l-0.124-1.026h-1.485c-89.384 0-161.843-72.46-161.843-161.843s72.46-161.843 161.843-161.843v0h161.126v-57.6c-22.89-8.43-40.62-26.16-48.867-48.484l-0.183-0.565h-138.65c-14.61-0.652-26.208-12.655-26.208-27.366s11.598-26.715 26.149-27.364l0.059-0.002h138.65c11.572-31.611 41.394-53.763 76.39-53.763s64.819 22.152 76.21 53.2l0.181 0.563h138.65c14.61 0.652 26.208 12.655 26.208 27.366s-11.598 26.715-26.149 27.364l-0.059 0.002h-138.65c-8.43 22.89-26.16 40.62-48.484 48.867l-0.565 0.183v57.6zM512 152.576c-0.015 0-0.033 0-0.051 0-14.619 0-26.47 11.851-26.47 26.47s11.851 26.47 26.47 26.47c14.619 0 26.47-11.851 26.47-26.47v0c0 0 0 0 0 0 0-14.601-11.822-26.441-26.416-26.47h-0.003zM216.576 474.88c0.203 59.102 48.060 106.959 107.142 107.162h26.899c15.1 0 27.341 12.241 27.341 27.341v0c0 74.029 60.012 134.042 134.042 134.042s134.042-60.012 134.042-134.042v0c0-15.1 12.241-27.341 27.341-27.341h26.88c0.697 0.016 1.519 0.026 2.342 0.026 59.184 0 107.162-47.978 107.162-107.162s-47.978-107.162-107.162-107.162c-0.824 0-1.645 0.009-2.464 0.028l0.122-0.002h-376.525c-59.084 0.203-106.93 48.031-107.162 107.088v0.022z" />
<glyph unicode="&#xe93e;" glyph-name="cloud-share" d="M377.958 446.106h244.378c0.128 0 0.279-0.001 0.43-0.001 68.996 0 124.928 55.932 124.928 124.928s-55.932 124.928-124.928 124.928c-4.534 0-9.011-0.241-13.42-0.712l0.548 0.047h-1.894l-0.717 1.792c-19.545 45.647-63.936 77.117-115.719 77.465h-0.044c-0.088 0-0.192 0-0.296 0-35.701 0-67.88-15.074-90.522-39.204l-0.062-0.067c-21.073-21.94-34.050-51.793-34.050-84.678 0-0.237 0.001-0.473 0.002-0.709v0.037-2.253l-2.253-0.307c-49.449-7.081-87.040-49.151-87.040-100.001 0-0.033 0-0.067 0-0.1v0.005c0-0.046 0-0.1 0-0.154 0-55.755 45.169-100.959 100.91-101.018h0.006zM342.579 589.978c9.452 7.931 21.749 12.749 35.171 12.749 0.073 0 0.147 0 0.22 0h-0.011c0.028 0 0.060 0 0.093 0 3.587 0 7.096-0.335 10.497-0.977l-0.35 0.055c1.307-0.267 2.809-0.419 4.347-0.419 6.307 0 12.014 2.568 16.132 6.716l0.001 0.001c4.174 4.061 6.764 9.731 6.764 16.007 0 1.418-0.132 2.806-0.385 4.151l0.022-0.139c-1.223 6.036-2.223 13.4-2.779 20.887l-0.037 0.617c0.109 43.662 35.529 79.015 79.206 79.015 38.534 0 70.642-27.518 77.743-63.974l0.081-0.5c2.152-10.733 11.502-18.706 22.713-18.706 3.145 0 6.143 0.627 8.877 1.764l-0.153-0.056c6.5 1.894 13.971 2.995 21.695 3.021h0.014c43.716 0 79.155-35.439 79.155-79.155s-35.439-79.155-79.155-79.155h-244.48c-0.026 0-0.056 0-0.086 0-30.596 0-55.398 24.803-55.398 55.398 0 17.142 7.786 32.466 20.014 42.628l0.091 0.073zM399.36 428.954c-12.572-0.029-22.755-10.212-22.784-22.781v-64.873h-36.25l-0.563 1.792c-10.685 31.956-40.341 54.579-75.281 54.579-43.744 0-79.206-35.462-79.206-79.206s35.462-79.206 79.206-79.206c34.94 0 64.595 22.623 75.118 54.020l0.162 0.559 0.563 1.741h59.034c12.612 0 22.835 10.224 22.835 22.835v0 87.757c-0.029 12.59-10.242 22.784-22.835 22.784 0 0 0 0 0 0v0zM264.55 284.877c-18.521 0-33.536 15.015-33.536 33.536s15.015 33.536 33.536 33.536c18.521 0 33.536-15.015 33.536-33.536v0c-0.029-18.51-15.026-33.507-33.533-33.536h-0.003zM536.576 275.763l-1.792 0.563v129.843c0 12.583-10.201 22.784-22.784 22.784s-22.784-10.201-22.784-22.784v0-129.843l-1.792-0.563c-31.925-10.665-54.528-40.288-54.528-75.19 0-43.688 35.416-79.104 79.104-79.104s79.104 35.416 79.104 79.104c0 34.902-22.603 64.524-53.97 75.027l-0.558 0.162zM512 167.066c-0.015 0-0.033 0-0.051 0-18.521 0-33.536 15.015-33.536 33.536s15.015 33.536 33.536 33.536c18.521 0 33.536-15.015 33.536-33.536 0-0.018 0-0.036 0-0.054v0.003c-0.029-18.481-15.003-33.456-33.482-33.485h-0.003zM759.45 397.517c-0.024 0-0.052 0-0.081 0-34.902 0-64.517-22.632-74.971-54.021l-0.161-0.558-0.563-1.741h-36.25v64.819c-0.593 12.138-10.578 21.754-22.81 21.754s-22.217-9.617-22.808-21.701l-0.002-0.053v-87.757c0.029-12.59 10.242-22.784 22.835-22.784 0 0 0 0 0 0h59.034l0.563-1.792c10.698-31.9 40.318-54.477 75.21-54.477 43.716 0 79.155 35.439 79.155 79.155s-35.437 79.154-79.152 79.155v0zM759.45 284.877c-0.015 0-0.033 0-0.051 0-18.521 0-33.536 15.015-33.536 33.536s15.015 33.536 33.536 33.536c18.521 0 33.536-15.015 33.536-33.536v0c-0.029-18.492-14.997-33.478-33.479-33.536h-0.006z" />
<glyph unicode="&#xe93f;" glyph-name="code" d="M866.304 466.944l-167.27 180.48c-4.904 5.348-11.922 8.688-19.721 8.688-7.247 0-13.82-2.884-18.634-7.567l0.006 0.006c-5.254-5.097-8.515-12.223-8.515-20.111 0-7.32 2.808-13.984 7.407-18.974l-0.018 0.019 149.76-161.485-149.76-161.536c-4.58-4.97-7.389-11.634-7.389-18.955 0-7.888 3.261-15.014 8.508-20.104l0.007-0.007c4.818-4.651 11.386-7.517 18.624-7.517 7.791 0 14.807 3.321 19.709 8.625l0.016 0.018 167.27 180.48c4.589 4.972 7.403 11.642 7.403 18.97s-2.814 13.998-7.42 18.989l0.017-0.019zM555.878 740.506c-1.128 0.165-2.429 0.26-3.753 0.26-13.69 0-25.021-10.1-26.949-23.255l-0.018-0.148-79.718-530.483c-0.211-1.282-0.332-2.76-0.332-4.266 0-13.64 9.896-24.97 22.901-27.199l0.164-0.023c1.246-0.195 2.683-0.307 4.147-0.307v0c13.616 0.124 24.842 10.201 26.76 23.302l0.018 0.148 79.462 530.586c0.207 1.267 0.325 2.728 0.325 4.217 0 13.61-9.87 24.914-22.843 27.146l-0.164 0.023zM364.442 286.464l-149.709 161.536 149.709 161.536c4.648 4.971 7.502 11.67 7.502 19.036 0 7.829-3.224 14.905-8.417 19.973l-0.006 0.006c-4.813 4.664-11.384 7.539-18.626 7.539-7.795 0-14.812-3.331-19.706-8.647l-0.017-0.019-167.475-180.48c-4.589-4.972-7.403-11.642-7.403-18.97s2.814-13.998 7.42-18.989l-0.017 0.019 167.27-180.685c4.935-5.32 11.96-8.642 19.761-8.653h0.002c7.337 0.006 13.979 2.978 18.791 7.783v0c5.199 5.073 8.423 12.149 8.423 19.978 0 7.366-2.854 14.065-7.516 19.052l0.015-0.016z" />
<glyph unicode="&#xe940;" glyph-name="code-window" d="M729.805 720.23h-435.61c-30.047-0.029-54.396-24.379-54.426-54.423v-435.613c0.029-30.047 24.379-54.396 54.423-54.426h435.612c30.047 0.029 54.396 24.379 54.426 54.423v435.613c-0.029 30.047-24.379 54.396-54.423 54.426h-0.003zM281.6 544.307h460.8v-314.112c0-6.928-5.616-12.544-12.544-12.544v0h-435.661c-0.015 0-0.033 0-0.051 0-6.928 0-12.544 5.616-12.544 12.544 0 0 0 0 0 0v0zM294.195 678.4h435.61c0.015 0 0.033 0 0.051 0 6.928 0 12.544-5.616 12.544-12.544 0-0.018 0-0.036 0-0.054v0.003-79.565h-460.8v79.565c0 0.015 0 0.033 0 0.051 0 6.928 5.616 12.544 12.544 12.544 0.018 0 0.036 0 0.054 0h-0.003zM327.27 653.21h0.922c11.311 0 20.48-9.169 20.48-20.48v-0.922c0-11.311-9.169-20.48-20.48-20.48h-0.922c-11.311 0-20.48 9.169-20.48 20.48v0.922c0 11.311 9.169 20.48 20.48 20.48zM394.291 653.21h0.922c11.311 0 20.48-9.169 20.48-20.48v-0.922c0-11.311-9.169-20.48-20.48-20.48h-0.922c-11.311 0-20.48 9.169-20.48 20.48v0.922c0 11.311 9.169 20.48 20.48 20.48zM695.808 653.21h0.922c11.311 0 20.48-9.169 20.48-20.48v-0.922c0-11.311-9.169-20.48-20.48-20.48h-0.922c-11.311 0-20.48 9.169-20.48 20.48v0.922c0 11.311 9.169 20.48 20.48 20.48zM431.104 310.938v0c3.768 3.786 6.097 9.007 6.097 14.771s-2.329 10.985-6.098 14.772l0.001-0.001-40.397 40.499 40.346 40.346c3.793 3.775 6.14 8.999 6.14 14.771s-2.347 10.997-6.139 14.77l-0.001 0.001c-3.775 3.793-8.999 6.14-14.771 6.14s-10.997-2.347-14.77-6.139l-55.143-55.195c-3.756-3.791-6.076-9.010-6.076-14.771s2.321-10.98 6.078-14.773l55.192-55.192c3.786-3.768 9.007-6.097 14.771-6.097s10.985 2.329 14.772 6.098l-0.001-0.001zM592.794 311.091v0c3.777-3.808 9.012-6.166 14.797-6.166s11.020 2.357 14.795 6.164l0.001 0.001 55.245 54.989c3.756 3.791 6.076 9.010 6.076 14.771s-2.321 10.98-6.078 14.773l-55.192 55.243c-3.775 3.793-8.999 6.14-14.771 6.14s-10.997-2.347-14.77-6.139l-0.001-0.001c-3.793-3.775-6.14-8.999-6.14-14.771s2.347-10.997 6.139-14.77l40.347-40.347-40.397-40.499c-3.75-3.775-6.068-8.977-6.068-14.72 0-5.718 2.297-10.899 6.019-14.671l-0.002 0.002zM465.292 320.365l54.613 136.473c4.286 10.711 16.444 15.92 27.155 11.633l0.095-0.038c10.711-4.286 15.92-16.444 11.633-27.155l-54.613-136.473c-4.286-10.711-16.444-15.92-27.155-11.633l-0.095 0.038c-10.711 4.286-15.92 16.444-11.633 27.155z" />
<glyph unicode="&#xe941;" glyph-name="collapse" d="M694.067 500.019l-161.587 161.997c-5.246 5.237-12.482 8.481-20.476 8.499h-0.004c-0.031 0-0.068 0-0.105 0-7.968 0-15.177-3.25-20.373-8.497l-0.002-0.002-161.638-162.048c-5.241-5.241-8.483-12.482-8.483-20.48 0-15.996 12.967-28.963 28.963-28.963 7.998 0 15.239 3.242 20.48 8.483v0l141.158 141.773 141.21-141.517c5.241-5.241 12.482-8.483 20.48-8.483 15.996 0 28.963 12.967 28.963 28.963 0 7.998-3.242 15.239-8.483 20.48v0zM694.067 274.739l-161.587 161.997c-5.246 5.237-12.482 8.481-20.476 8.499h-0.004c-0.031 0-0.068 0-0.105 0-7.968 0-15.177-3.25-20.373-8.497l-0.002-0.002-161.638-162.048c-5.241-5.241-8.483-12.482-8.483-20.48 0-15.996 12.967-28.963 28.963-28.963 7.998 0 15.239 3.242 20.48 8.483v0l141.158 141.773 141.21-141.517c5.241-5.241 12.482-8.483 20.48-8.483 15.996 0 28.963 12.967 28.963 28.963 0 7.998-3.242 15.239-8.483 20.48v0z" />
<glyph unicode="&#xe942;" glyph-name="cross-s" d="M705.668 311.98l-136.056 136.056 135.911 135.839c7.405 7.405 11.984 17.634 11.984 28.933 0 22.598-18.319 40.917-40.917 40.917-11.299 0-21.528-4.58-28.933-11.984v0l-135.622-136.056-135.911 136.056c-7.405 7.405-17.634 11.984-28.933 11.984-22.598 0-40.917-18.319-40.917-40.917 0-11.299 4.58-21.528 11.984-28.933v0l136.128-135.839-136.128-136.056c-7.365-7.369-11.92-17.546-11.92-28.788 0-22.491 18.232-40.723 40.723-40.723 0.046 0 0.092 0 0.137 0h-0.007c0.11-0.001 0.239-0.002 0.369-0.002 11.174 0 21.282 4.565 28.56 11.932l0.004 0.004 135.911 136.056 136.056-136.056c7.405-7.405 17.634-11.984 28.933-11.984 22.598 0 40.917 18.319 40.917 40.917 0 11.299-4.58 21.528-11.984 28.933v0z" />
<glyph unicode="&#xe943;" glyph-name="cross-m" d="M768.452 253.030l-195.296 195.296 194.862 194.862c7.992 7.876 12.943 18.819 12.943 30.918 0 23.969-19.43 43.399-43.399 43.399-12.117 0-23.075-4.966-30.948-12.974l-0.006-0.006-194.572-195.079-194.862 194.862c-7.729 7.217-18.14 11.648-29.586 11.648-23.969 0-43.399-19.43-43.399-43.399 0-11.446 4.431-21.857 11.671-29.611l-0.023 0.025 194.789-194.862-195.296-195.296c-7.858-7.858-12.718-18.714-12.718-30.705 0-23.982 19.441-43.423 43.423-43.423 11.991 0 22.847 4.86 30.705 12.718l195.296 195.296 195.296-195.296c7.826-7.695 18.568-12.445 30.419-12.445 23.969 0 43.399 19.43 43.399 43.399 0 11.869-4.765 22.626-12.486 30.461l0.005-0.005z" />
<glyph unicode="&#xe944;" glyph-name="cross-l" d="M760.525 246.323l-201.779 201.677 201.574 201.677c5.495 5.889 8.868 13.82 8.868 22.538 0 18.267-14.808 33.075-33.075 33.075-8.718 0-16.649-3.373-22.558-8.886l0.019 0.018-201.574-201.574-201.574 201.574c-5.889 5.495-13.82 8.868-22.538 8.868-18.267 0-33.075-14.808-33.075-33.075 0-8.718 3.373-16.649 8.886-22.558l-0.018 0.019 201.574-201.677-201.779-201.677c-5.986-5.98-9.689-14.244-9.689-23.373 0-18.245 14.791-33.036 33.036-33.036 9.116 0 17.37 3.693 23.347 9.664v0l201.83 201.83 201.83-201.83c5.977-5.971 14.231-9.663 23.347-9.663 18.245 0 33.036 14.791 33.036 33.036 0 9.129-3.703 17.393-9.689 23.373v0z" />
<glyph unicode="&#xe945;" glyph-name="tick-s" d="M741.183 613.676c-7.28 7.293-17.345 11.804-28.463 11.804s-21.182-4.512-28.462-11.804l-236.453-236.381-97.286 97.141c-7.254 7.084-17.186 11.455-28.138 11.455-22.133 0-40.097-17.847-40.287-39.935v-0.018c-0.001-0.111-0.002-0.242-0.002-0.373 0-10.947 4.422-20.862 11.577-28.055l-0.002 0.002 123.832-123.687c7.744-7.783 18.463-12.6 30.307-12.6s22.563 4.817 30.305 12.599l263.072 263c7.293 7.28 11.804 17.345 11.804 28.463s-4.512 21.182-11.804 28.462l-0.001 0.001z" />
<glyph unicode="&#xe946;" glyph-name="tick-m" d="M415.329 221.204c-0.013 0-0.028 0-0.043 0-12.986 0-24.739 5.281-33.228 13.813l-0.002 0.002-172.294 172.005c-6.742 7.612-10.859 17.683-10.859 28.716 0 23.969 19.43 43.399 43.399 43.399 11.105 0 21.236-4.171 28.912-11.032l-0.042 0.037 144.157-143.94 337.5 337.789c7.83 7.716 18.586 12.481 30.456 12.481 23.969 0 43.399-19.43 43.399-43.399 0-11.851-4.75-22.593-12.451-30.425l-365.775-365.631c-8.459-8.523-20.176-13.803-33.126-13.815h-0.002z" />
<glyph unicode="&#xe947;" glyph-name="tick-l" d="M782.848 663.91c-0.028 0-0.061 0-0.094 0-9.096 0-17.333-3.677-23.306-9.627l-343.909-343.961-150.989 150.835c-5.951 5.792-14.088 9.364-23.060 9.364-18.267 0-33.075-14.808-33.075-33.075 0-8.984 3.582-17.132 9.396-23.092l-0.007 0.007 171.827-171.571c6.638-6.613 15.795-10.701 25.907-10.701s19.269 4.088 25.908 10.702l364.748 364.748c5.943 5.971 9.617 14.204 9.617 23.296 0 18.218-14.751 32.99-32.961 33.024h-0.003z" />
<glyph unicode="&#xe948;" glyph-name="reply" d="M714.138 469.504c-63.346 64.74-150.741 105.726-247.708 108.481l-0.51 0.011v103.066c0 0.031 0 0.068 0 0.106 0 12.696-10.292 22.989-22.989 22.989-6.26 0-11.935-2.502-16.081-6.561l0.004 0.004-214.374-207.872c-4.331-4.186-7.020-10.048-7.020-16.538s2.689-12.351 7.014-16.531l0.007-0.006 214.17-207.872c4.163-4.177 9.922-6.761 16.284-6.761 12.696 0 22.989 10.292 22.989 22.989 0 0.109-0.001 0.218-0.002 0.327v-0.017 102.963h31.642c118.723-0.079 222.19-65.321 276.578-161.891l0.823-1.59 0.512-0.922c3.985-7.222 11.551-12.033 20.241-12.033 0.084 0 0.168 0 0.252 0.001h-0.013c2.039 0.005 4.014 0.266 5.899 0.753l-0.165-0.036c10.027 2.621 17.306 11.598 17.306 22.275 0 0.017 0 0.034 0 0.051v-0.003c0 0.067 0 0.147 0 0.227 0 99.252-40.053 189.149-104.877 254.41l0.020-0.020zM442.778 532.070h12.595c143.978-0.887 265.317-96.798 304.521-228.137l0.58-2.263c-66.254 69.454-159.52 112.64-262.873 112.64-0.068 0-0.135 0-0.203 0h-54.671c-12.725 0-23.040-10.315-23.040-23.040v0-71.68l-158.106 153.6 158.259 153.446v-71.68c0.058-12.616 10.27-22.829 22.881-22.886h0.006z" />
<glyph unicode="&#xe949;" glyph-name="forward" d="M206.438 214.886c0.017-12.712 10.326-23.010 23.040-23.010 8.678 0 16.235 4.797 20.164 11.884l0.060 0.118 0.512 0.922c55.22 98.176 158.71 163.423 277.445 163.482h31.599v-102.963c0-0.031 0-0.068 0-0.106 0-12.696 10.292-22.989 22.989-22.989 6.26 0 11.935 2.502 16.081 6.561l-0.004-0.004 214.17 207.872c4.331 4.186 7.020 10.048 7.020 16.538s-2.689 12.351-7.014 16.531l-0.007 0.006-214.17 207.872c-4.142 4.055-9.817 6.557-16.077 6.557-12.696 0-22.989-10.292-22.989-22.989 0-0.037 0-0.074 0-0.111v0.006-103.066c-196.021-5.954-352.678-166.214-352.819-363.096v-0.014zM605.338 555.11v71.68l158.054-153.6-158.054-153.6v71.68c-0.029 12.713-10.327 23.011-23.037 23.040h-54.633c-0.072 0-0.158 0-0.244 0-103.353 0-196.619-43.186-262.737-112.497l-0.136-0.143c39.803 133.608 161.159 229.519 305.050 230.4h12.697c12.725 0 23.040 10.315 23.040 23.040v0z" />
<glyph unicode="&#xe94a;" glyph-name="reply-line" d="M561.306 572.211h-226.56l83.046 83.046c5.201 5.26 8.413 12.495 8.413 20.48s-3.213 15.22-8.416 20.483l0.003-0.003c-5.243 5.237-12.483 8.476-20.48 8.476s-15.237-3.239-20.48-8.477v0l-134.349-134.042c-4.875-4.874-7.891-11.608-7.891-19.046s3.016-14.173 7.891-19.046l134.195-134.195c5.26-5.201 12.495-8.413 20.48-8.413s15.22 3.213 20.483 8.416l-0.003-0.003c5.189 5.265 8.393 12.498 8.393 20.48s-3.204 15.215-8.396 20.484l0.003-0.004-82.893 83.2h226.56c93.804-0.116 169.816-76.128 169.933-169.921v-0.011c0-43.93-22.323-81.408-40.96-105.165-4.688-5.144-7.558-12.016-7.558-19.557 0-16.061 13.020-29.082 29.082-29.082 9.985 0 18.795 5.032 24.031 12.699l0.065 0.1c24.474 30.976 53.658 80.589 53.658 141.21-0.233 125.893-102.328 227.862-228.247 227.891h-0.003z" />
<glyph unicode="&#xe94b;" glyph-name="forward-line" d="M462.694 572.365h226.56l-83.046 83.046c-4.198 5.006-6.747 11.518-6.747 18.625 0 16.061 13.020 29.082 29.082 29.082 7.107 0 13.619-2.55 18.671-6.784l-0.045 0.037 134.195-134.195c4.875-4.874 7.891-11.608 7.891-19.046s-3.016-14.173-7.891-19.046l-134.195-134.195c-5.372-6.409-13.38-10.456-22.335-10.456-16.061 0-29.082 13.020-29.082 29.082 0 8.954 4.047 16.963 10.411 22.298l0.045 0.037 83.046 83.046h-226.56c-93.804-0.116-169.816-76.128-169.933-169.921v-0.011c0-43.93 22.323-81.459 40.96-105.165 4.688-5.144 7.558-12.016 7.558-19.557 0-16.061-13.020-29.082-29.082-29.082-9.985 0-18.795 5.032-24.031 12.699l-0.065 0.1c-24.474 30.72-53.658 80.589-53.658 141.21 0.058 126.025 102.221 228.169 228.247 228.198h0.003z" />
<glyph unicode="&#xe94c;" glyph-name="reload" d="M747.93 809.216h-0.41c-14.845-0.257-26.781-12.352-26.781-27.235 0-0.145 0.001-0.29 0.003-0.435v0.022l2.406-108.288c-50.842 46.848-123.341 84.992-210.944 84.992-183.859 0-307.2-158.72-307.2-307.2s123.494-308.275 307.2-308.275 307.2 159.386 307.2 308.275c0 15.015-12.172 27.187-27.187 27.187s-27.187-12.172-27.187-27.187v0c0-106.445-87.91-253.85-252.928-253.85-151.296 0-252.928 131.226-252.928 253.85s101.632 252.928 252.928 252.928c73.779 0 135.68-34.458 177.613-74.189l-113.459 2.509c-0.068 0.001-0.149 0.001-0.23 0.001-15.016 0-27.188-12.173-27.188-27.188 0-14.935 12.042-27.057 26.945-27.187h0.012l175.718-3.635c0.015 0 0.033 0 0.051 0 15.015 0 27.187 12.172 27.187 27.187 0 0.036 0 0.072 0 0.108v-0.006l-3.635 180.685c-0.259 14.827-12.326 26.751-27.185 26.778h-0.003z" />
<glyph unicode="&#xe94d;" glyph-name="reload-rev" d="M276.941 809.216h-0.461c-14.861-0.027-26.928-11.95-27.187-26.753v-0.024l-3.533-180.838c-0.002-0.137-0.004-0.299-0.004-0.461 0-15.015 12.172-27.187 27.187-27.187 0.001 0 0.003 0 0.004 0h0.461l175.309 3.635c14.993 0.159 27.086 12.351 27.086 27.366 0 15.115-12.253 27.368-27.368 27.368-0.099 0-0.198-0.001-0.297-0.002h-0.497l-113.050-2.56c41.933 39.526 103.782 73.984 177.408 73.984 151.296 0 252.928-130.816 252.928-252.928s-101.427-253.696-252.928-253.696c-165.069 0-252.928 147.405-252.928 253.85-0.65 14.527-12.585 26.058-27.213 26.058s-26.563-11.531-27.211-25.999l-0.002-0.058c0-148.89 123.494-308.275 307.2-308.275s307.2 159.386 307.2 308.275-123.494 307.2-307.2 307.2c-87.603 0-160.154-38.144-210.944-84.992l2.406 108.442c0.003 0.138 0.004 0.301 0.004 0.465 0 14.854-11.913 26.926-26.706 27.183h-0.024z" />
<glyph unicode="&#xe94e;" glyph-name="cycle" d="M251.75 411.546c0.48-1.788 0.756-3.842 0.756-5.96 0-13.177-10.682-23.859-23.859-23.859-12.914 0-23.432 10.26-23.847 23.074l-0.001 0.038c-1.951 12.97-3.066 27.937-3.066 43.164 0 168.672 136.736 305.408 305.408 305.408 74.418 0 142.619-26.616 195.603-70.849l-0.486 0.395v75.059c0 13.177 10.682 23.859 23.859 23.859s23.859-10.682 23.859-23.859v0-130.816c0-0.015 0-0.033 0-0.051 0-13.149-10.659-23.808-23.808-23.808-0.018 0-0.036 0-0.054 0h-131.069c-13.177 0-23.859 10.682-23.859 23.859s10.682 23.859 23.859 23.859v0h70.554c-43.285 34.073-98.587 54.649-158.695 54.649-142.346 0-257.741-115.394-257.741-257.741 0-12.849 0.94-25.478 2.756-37.823l-0.169 1.4zM809.216 491.162c-1.266 12.098-11.409 21.447-23.737 21.447-13.177 0-23.859-10.682-23.859-23.859 0-1.518 0.142-3.003 0.413-4.443l-0.023 0.148c1.646-10.944 2.586-23.573 2.586-36.422 0-142.346-115.394-257.741-257.741-257.741-60.108 0-115.41 20.576-159.248 55.068l0.553-0.419h70.554c13.177 0 23.859 10.682 23.859 23.859s-10.682 23.859-23.859 23.859h-130.816c-0.015 0-0.033 0-0.051 0-13.149 0-23.808-10.659-23.808-23.808 0-0.018 0-0.036 0-0.054v0.003-130.816c0-13.177 10.682-23.859 23.859-23.859s23.859 10.682 23.859 23.859v0 75.059c52.498-43.837 120.699-70.454 195.117-70.454 168.672 0 305.408 136.736 305.408 305.408 0 15.227-1.114 30.194-3.266 44.824l0.2-1.66z" />
<glyph unicode="&#xe94f;" glyph-name="cycle-code" d="M251.75 411.546c0.48-1.788 0.756-3.842 0.756-5.96 0-13.177-10.682-23.859-23.859-23.859-12.914 0-23.432 10.26-23.847 23.074l-0.001 0.038c-1.951 12.97-3.066 27.937-3.066 43.164 0 168.672 136.736 305.408 305.408 305.408 74.418 0 142.619-26.616 195.603-70.849l-0.486 0.395v75.059c0 13.177 10.682 23.859 23.859 23.859s23.859-10.682 23.859-23.859v0-130.816c0-0.015 0-0.033 0-0.051 0-13.149-10.659-23.808-23.808-23.808-0.018 0-0.036 0-0.054 0h-131.069c-13.177 0-23.859 10.682-23.859 23.859s10.682 23.859 23.859 23.859v0h70.554c-43.285 34.073-98.587 54.649-158.695 54.649-142.346 0-257.741-115.394-257.741-257.741 0-12.849 0.94-25.478 2.756-37.823l-0.169 1.4zM809.216 491.162c-1.266 12.098-11.409 21.447-23.737 21.447-13.177 0-23.859-10.682-23.859-23.859 0-1.518 0.142-3.003 0.413-4.443l-0.023 0.148c1.646-10.944 2.586-23.573 2.586-36.422 0-142.346-115.394-257.741-257.741-257.741-60.108 0-115.41 20.576-159.248 55.068l0.553-0.419h70.554c13.177 0 23.859 10.682 23.859 23.859s-10.682 23.859-23.859 23.859h-130.816c-0.015 0-0.033 0-0.051 0-13.149 0-23.808-10.659-23.808-23.808 0-0.018 0-0.036 0-0.054v0.003-130.816c0-13.177 10.682-23.859 23.859-23.859s23.859 10.682 23.859 23.859v0 75.059c52.498-43.837 120.699-70.454 195.117-70.454 168.672 0 305.408 136.736 305.408 305.408 0 15.227-1.114 30.194-3.266 44.824l0.2-1.66zM479.027 532.685c-4.395 5.888-11.344 9.659-19.173 9.659-5.442 0-10.458-1.822-14.472-4.888l0.058 0.042-93.645-70.4c-5.829-4.399-9.557-11.313-9.557-19.098s3.728-14.699 9.497-19.054l0.060-0.044 93.645-70.4c3.962-3.008 8.976-4.818 14.413-4.818 13.236 0 23.967 10.73 23.967 23.967 0 7.8-3.726 14.729-9.494 19.106l-0.060 0.043-68.403 51.2 68.403 51.2c5.851 4.387 9.597 11.307 9.597 19.102 0 5.43-1.818 10.435-4.878 14.441l0.042-0.058zM534.733 363.315c4.399-5.831 11.314-9.56 19.1-9.56 5.384 0 10.351 1.783 14.344 4.791l-0.061-0.044 93.85 70.4c5.829 4.399 9.557 11.313 9.557 19.098s-3.728 14.699-9.497 19.054l-0.060 0.044-93.645 70.4c-3.962 3.008-8.976 4.818-14.413 4.818-13.236 0-23.967-10.73-23.967-23.967 0-7.8 3.726-14.729 9.494-19.106l0.060-0.043 68.403-51.2-68.403-51.2c-5.851-4.387-9.597-11.307-9.597-19.102 0-5.43 1.818-10.435 4.878-14.441l-0.042 0.058z" />
<glyph unicode="&#xe950;" glyph-name="ci-cd" d="M512 574.259c-48.104-0.211-88.784-31.755-102.7-75.265l-0.212-0.767c-34.746-7.835-60.309-38.437-60.309-75.009 0-42.306 34.207-76.622 76.472-76.799h161.041c0.057 0 0.125 0 0.192 0 49.202 0 89.088 39.886 89.088 89.088 0 43.092-30.595 79.039-71.248 87.301l-0.573 0.097c-19.309 30.958-53.148 51.273-91.738 51.354h-0.012zM512 532.275c0.008 0 0.017 0 0.027 0 26.091 0 48.618-15.258 59.144-37.339l0.17-0.396c3.256-6.906 9.981-11.695 17.866-12.132l0.054-0.002c25.113-1.066 45.068-21.683 45.068-46.962 0-25.958-21.043-47.002-47.002-47.002-0.364 0-0.728 0.004-1.090 0.012l0.054-0.001h-161.024c-0.214-0.005-0.467-0.007-0.72-0.007-19.2 0-34.765 15.565-34.765 34.765s15.565 34.765 34.765 34.765c0.613 0 1.223-0.016 1.828-0.047l-0.085 0.004c10.599 0.028 19.358 7.867 20.825 18.063l0.013 0.113c4.869 31.877 32.029 56.034 64.856 56.166h0.014zM265.37 373.555c-6.933 22.262-10.968 47.865-11.059 74.397v0.047c0.175 142.248 115.442 257.515 257.673 257.69h0.017c0.377 0.002 0.823 0.003 1.269 0.003 67.637 0 129.099-26.436 174.617-69.54l-0.117 0.109h-58.010c-11.594 0-20.992-9.398-20.992-20.992s9.398-20.992 20.992-20.992v0h111.514c11.582 0.029 20.963 9.41 20.992 20.989v111.414c0 11.594-9.398 20.992-20.992 20.992s-20.992-9.398-20.992-20.992v0-63.13c-53.269 52.029-126.203 84.126-206.634 84.126-0.579 0-1.159-0.002-1.737-0.005h0.089c-165.427-0.178-299.464-134.324-299.464-299.776 0-30.843 4.658-60.599 13.309-88.601l-0.565 2.124c2.665-8.747 10.661-15.002 20.119-15.002 0.019 0 0.038 0 0.057 0h-0.003c0.028 0 0.061 0 0.095 0 2.156 0 4.238 0.318 6.201 0.91l-0.152-0.039c8.593 2.798 14.694 10.736 14.694 20.1 0 2.2-0.337 4.321-0.962 6.315l0.040-0.149zM799.027 534.579c-2.939 8.345-10.755 14.218-19.942 14.218-11.65 0-21.094-9.444-21.094-21.094 0-1.831 0.233-3.608 0.672-5.302l-0.032 0.146c6.947-22.296 10.984-47.936 11.059-74.508v-0.039c-0.233-142.194-115.484-257.391-257.676-257.536h-0.014c-0.399-0.002-0.871-0.004-1.343-0.004-67.604 0-129.039 26.416-174.544 69.49l0.117-0.11h58.010c11.594 0 20.992 9.398 20.992 20.992s-9.398 20.992-20.992 20.992h-111.309c-0.031 0-0.067 0-0.103 0-5.832 0-11.106-2.39-14.895-6.244l-0.003-0.003c-3.761-3.876-6.082-9.167-6.093-15v-0.002l1.229-111.514c0.173-11.472 9.499-20.708 20.989-20.736h0.259c5.787 0.052 10.994 2.497 14.686 6.391l0.009 0.009c3.736 3.818 6.042 9.050 6.042 14.82 0 0.046 0 0.092 0 0.137v-0.007l-0.614 62.259c53.181-51.721 125.878-83.614 206.024-83.614 0.542 0 1.083 0.001 1.624 0.004h-0.083c165.435 0.175 299.499 134.239 299.674 299.657v0.017c0.001 0.34 0.002 0.742 0.002 1.144 0 30.476-4.623 59.871-13.207 87.524l0.558-2.089z" />
<glyph unicode="&#xe951;" glyph-name="u-turn" d="M771.84 535.808v1.075c-0.066 0.636-0.156 1.194-0.275 1.742l0.019-0.103c-0.075 0.527-0.182 0.994-0.324 1.446l0.017-0.063-0.307 1.331-0.461 1.331q0 0.717-0.461 1.229c0 0.461-0.358 0.922-0.563 1.382s-0.358 0.819-0.563 1.178-0.461 0.87-0.666 1.28-0.358 0.666-0.666 1.126-0.563 0.87-0.87 1.331l-0.717 0.922-1.229 1.536-128.051 146.33c-5.482 6.247-13.483 10.17-22.4 10.17-16.433 0-29.754-13.321-29.754-29.754 0-7.516 2.787-14.381 7.383-19.618l-0.029 0.034 84.787-97.28h-343.347c-0.923 0.016-2.011 0.026-3.102 0.026-103.805 0-187.955-84.15-187.955-187.955s84.15-187.955 187.955-187.955c1.091 0 2.179 0.009 3.265 0.028l-0.163-0.002h375.194c16.429 0 29.747 13.318 29.747 29.747s-13.318 29.747-29.747 29.747v0h-375.194c-70.919 0-128.41 57.491-128.41 128.41s57.491 128.41 128.41 128.41v0h343.347l-84.787-97.28c-4.567-5.203-7.354-12.068-7.354-19.584 0-16.433 13.321-29.754 29.754-29.754 8.917 0 16.918 3.923 22.371 10.136l0.029 0.034 128 146.739c0.303 0.324 0.589 0.675 0.85 1.044l0.021 0.031 0.87 1.126c0 0.307 0.41 0.666 0.717 1.075l0.768 1.28 0.614 1.178 0.666 1.331c0.179 0.503 0.352 0.909 0.545 1.303l-0.033-0.074 0.461 1.331c0.132 0.342 0.273 0.786 0.39 1.24l0.020 0.092c0 0.461 0.256 0.973 0.41 1.536 0.009 0.168 0.014 0.365 0.014 0.563s-0.005 0.395-0.015 0.591l0.001-0.027c0 0.614 0 1.178 0.307 1.894v0.87c0 1.024 0 1.997 0 2.867s0.614 2.355 0.512 3.379z" />
<glyph unicode="&#xe952;" glyph-name="u-turn-rev" d="M584.038 562.739h-343.398l84.787 97.28c3.422 4.787 5.472 10.759 5.472 17.209 0 16.457-13.341 29.798-29.798 29.798-7.936 0-15.147-3.102-20.487-8.16l0.014 0.013-128-146.637c-0.358-0.41-0.666-0.87-1.075-1.434l-0.614-0.768-0.87-1.382-0.666-1.024c-0.256-0.461-0.461-0.87-0.666-1.331l-0.614-1.178c0-0.41-0.358-0.87-0.512-1.331-0.182-0.351-0.34-0.76-0.452-1.187l-0.009-0.042-0.461-1.434c-0.161-0.457-0.303-1.008-0.401-1.575l-0.009-0.064c-0.087-0.253-0.175-0.58-0.245-0.913l-0.011-0.060c0-0.512 0-0.973-0.256-1.894v-0.922c-0.023-0.413-0.036-0.896-0.036-1.382s0.013-0.969 0.039-1.449l-0.003 0.067c0-0.922 0-1.843 0-2.918v-0.973c0-0.563 0-1.126 0.256-1.69l0.307-1.28c0-0.461 0-0.973 0.358-1.485s0.256-0.87 0.41-1.229 0.358-0.973 0.512-1.382c0.179-0.503 0.352-0.909 0.545-1.303l-0.033 0.074c0-0.461 0.41-0.922 0.614-1.28s0.41-0.819 0.666-1.229l0.717-1.229 0.768-1.126c0.256-0.41 0.563-0.768 0.819-1.126l0.819-0.973 128-146.842c5.488-6.265 13.493-10.208 22.42-10.24h0.006c16.433 0.032 29.743 13.361 29.743 29.798 0 7.501-2.772 14.355-7.347 19.594l0.030-0.035-84.736 97.126h343.347c70.919 0 128.41-57.491 128.41-128.41s-57.491-128.41-128.41-128.41v0h-375.194c-16.429 0-29.747-13.318-29.747-29.747s13.318-29.747 29.747-29.747v0h375.245c0.923-0.016 2.011-0.026 3.102-0.026 103.805 0 187.955 84.15 187.955 187.955s-84.15 187.955-187.955 187.955c-1.091 0-2.179-0.009-3.265-0.028l0.163 0.002z" />
</font>
</defs>
</svg>
