<?xml version="1.0" encoding="utf-8"?>
<!-- Generator: Adobe Illustrator 24.0.3, SVG Export Plug-In . SVG Version: 6.00 Build 0)  -->
<svg version="1.1" id="Layer_1" xmlns="http://www.w3.org/2000/svg" xmlns:xlink="http://www.w3.org/1999/xlink" x="0px" y="0px"
	 width="60px" height="60px" viewBox="0 0 60 60" style="enable-background:new 0 0 60 60;" xml:space="preserve">
<style type="text/css">
	.st0{fill:#4EBB82;}
	.st1{fill:#3E58A8;}
</style>
<g>
	<path class="st0" d="M30,60C13.4,60,0,46.6,0,30S13.4,0,30,0c16.6,0,30,13.4,30,30C60,46.6,46.6,60,30,60z M30,10.8
		c-10.6,0-19.2,8.6-19.2,19.2S19.4,49.2,30,49.2c10.6,0,19.2-8.6,19.2-19.2C49.1,19.4,40.6,10.9,30,10.8z"/>
	<path class="st1" d="M47.4,52.8c-1.4,0-2.8-0.6-3.8-1.6c-2.1-2.1-2.1-5.6,0-7.7c7.5-7.5,7.5-19.6,0-27.1S24,9,16.5,16.4
		c-2.1,2.1-5.6,2.1-7.7,0c-2.1-2.1-2.1-5.5,0-7.7c0,0,0,0,0,0c12-11.4,31-11,42.4,1c11,11.6,11,29.8,0,41.4
		C50.2,52.2,48.8,52.7,47.4,52.8z"/>
	<path class="st0" d="M54.3,59.7c-1.4,0-2.8-0.6-3.8-1.6L28.2,35.8c-2.2-2.1-2.3-5.5-0.2-7.7c2.1-2.2,5.5-2.3,7.7-0.2
		c0.1,0.1,0.2,0.1,0.2,0.2l22.3,22.3c2.1,2.1,2.1,5.6,0,7.7C57.2,59.2,55.8,59.7,54.3,59.7z"/>
</g>
</svg>
