<?xml version="1.0" encoding="utf-8"?>
<!-- Generator: Adobe Illustrator 24.0.3, SVG Export Plug-In . SVG Version: 6.00 Build 0)  -->
<svg version="1.1" id="Layer_1" xmlns="http://www.w3.org/2000/svg" xmlns:xlink="http://www.w3.org/1999/xlink" x="0px" y="0px"
	 width="60px" height="60px" viewBox="0 0 60 60" style="enable-background:new 0 0 60 60;" xml:space="preserve">
<style type="text/css">
	.st0{fill:#59686E;}
</style>
<g>
	<g>
		<path class="st0" d="M59.3,43.5v-20c0-4.8-0.9-7.6-3.5-9.9c-2.5-2.2-6.5-3.5-12-3.5c-4.7,0-8.8,1-11.9,3c2.4,2.1,4,4.7,4.8,7.9
			c1.1-1.6,3-2.3,5.7-2.3c4.4,0,5.6,3,5.6,5.6v1.2c-12,0.4-23.3,2.7-23.2,13.7C25.1,46.8,32.1,50,36.8,50c5.5,0,8.7-1.5,11.8-5.3
			c0.1,1.6,0.3,3.3,0.5,4.6H60C59.4,47.4,59.3,45.5,59.3,43.5z M48.2,32.3c0,3.2-0.1,4.9-1.5,7.2c-1.2,2-3.3,3.2-5.6,3.2
			c-3.1,0-5.7-1.4-5.7-4.8c0-4.9,7.3-6.7,12.8-7.1L48.2,32.3L48.2,32.3L48.2,32.3z"/>
	</g>
	<g>
		<path class="st0" d="M23.8,39.4c-1,1-2.5,1.4-4.1,1.4c-5.6,0-7.2-4.2-7.2-11.4c0-7.2,1.7-11,7.2-11c3.4,0,5.8,1.9,5.8,5.3H36
			C35.2,14.7,28,10,19.2,10C7.2,10,0,18.6,0,30.4C0,41.7,6.9,50,18.5,50c3,0,6.4-0.6,9.2-2.1C25.5,45.9,23.9,43.2,23.8,39.4z"/>
	</g>
</g>
</svg>
