<?xml version="1.0" encoding="utf-8"?>
<!-- Generator: Adobe Illustrator 24.0.3, SVG Export Plug-In . SVG Version: 6.00 Build 0)  -->
<svg version="1.1" id="Layer_1" xmlns="http://www.w3.org/2000/svg" xmlns:xlink="http://www.w3.org/1999/xlink" x="0px" y="0px"
	 width="60px" height="60px" viewBox="0 0 60 60" style="enable-background:new 0 0 60 60;" xml:space="preserve">
<style type="text/css">
	.st0{fill:none;}
	.st1{clip-path:url(#SVGID_2_);fill:url(#XMLID_2_);}
	.st2{opacity:0.7;clip-path:url(#SVGID_4_);}
	.st3{clip-path:url(#SVGID_6_);}
	.st4{clip-path:url(#SVGID_8_);fill:#59A044;}
	.st5{clip-path:url(#SVGID_10_);fill:#519342;}
	.st6{clip-path:url(#SVGID_12_);}
	.st7{clip-path:url(#SVGID_14_);fill:#211F1F;}
	.st8{clip-path:url(#SVGID_16_);}
	.st9{clip-path:url(#SVGID_18_);fill:#211F1F;}
	.st10{opacity:0.7;clip-path:url(#SVGID_20_);}
	.st11{clip-path:url(#SVGID_22_);}
	.st12{clip-path:url(#SVGID_24_);}
	.st13{clip-path:url(#SVGID_26_);fill:url(#XMLID_3_);}
	.st14{opacity:0.75;clip-path:url(#SVGID_28_);}
	.st15{clip-path:url(#SVGID_30_);}
	.st16{clip-path:url(#SVGID_32_);fill:#387338;}
	.st17{clip-path:url(#SVGID_34_);}
	.st18{clip-path:url(#SVGID_36_);}
	.st19{clip-path:url(#SVGID_38_);fill:url(#XMLID_4_);}
	.st20{clip-path:url(#SVGID_40_);}
	.st21{clip-path:url(#SVGID_42_);fill:#387338;}
	.st22{opacity:0.66;clip-path:url(#SVGID_44_);}
	.st23{clip-path:url(#SVGID_46_);}
	.st24{clip-path:url(#SVGID_48_);fill:#387338;}
</style>
<g>
	<rect id="XMLID_506_" x="0.2" class="st0" width="59.6" height="60"/>
	<g id="XMLID_503_">
		<g>
			<defs>
				<path id="SVGID_1_" d="M16.5,0.5C7.5,0.5,0.2,7.7,0.2,16.7v26.5c0,8.9,7.3,16.2,16.2,16.2h27.1c8.9,0,16.2-7.3,16.2-16.2v-2.1
					c0-3-2.4-5.4-5.4-5.4s-5.4,2.4-5.4,5.4v2.1c0,3-2.4,5.4-5.4,5.4H16.5c-3,0-5.4-2.4-5.4-5.4V16.9c0-3,2.4-5.4,5.4-5.4h27
					c0.7,0,1.2,0,1.8,0l0,0H48c6.7,0,12.5,5.2,6.4,14.2c-0.1,0.1-0.2,0.2-0.2,0.2c5.4-4.8,6.5-11.1,4.3-16.5c-2.3-5.6-8.1-9-15.1-9
					L16.5,0.5z"/>
			</defs>
			<clipPath id="SVGID_2_">
				<use xlink:href="#SVGID_1_"  style="overflow:visible;"/>
			</clipPath>
			
				<linearGradient id="XMLID_2_" gradientUnits="userSpaceOnUse" x1="-1542.1378" y1="-1658.5646" x2="-1542.0651" y2="-1658.5646" gradientTransform="matrix(356.2429 -978.7693 978.7693 356.2429 2172745.25 -918479.625)">
				<stop  offset="0" style="stop-color:#59A044"/>
				<stop  offset="1" style="stop-color:#ABCF3F"/>
			</linearGradient>
			<polygon id="XMLID_505_" class="st1" points="-18.7,52.5 7.4,-19 79.8,7.3 53.8,78.9 			"/>
		</g>
	</g>
	<g id="XMLID_492_">
		<g>
			<defs>
				<path id="SVGID_3_" d="M16.5,0.5C7.5,0.5,0.2,7.7,0.2,16.7v26.5c0,8.9,7.3,16.2,16.2,16.2h27.1c8.9,0,16.2-7.3,16.2-16.2v-2.1
					c0-3-2.4-5.4-5.4-5.4s-5.4,2.4-5.4,5.4v2.1c0,3-2.4,5.4-5.4,5.4H16.5c-3,0-5.4-2.4-5.4-5.4V16.9c0-3,2.4-5.4,5.4-5.4h27
					c0.7,0,1.2,0,1.8,0l0,0H48c6.7,0,12.5,5.2,6.4,14.2c-0.1,0.1-0.2,0.2-0.2,0.2c5.4-4.8,6.5-11.1,4.3-16.5c-2.3-5.6-8.1-9-15.1-9
					L16.5,0.5z"/>
			</defs>
			<clipPath id="SVGID_4_">
				<use xlink:href="#SVGID_3_"  style="overflow:visible;"/>
			</clipPath>
			<g id="XMLID_494_" class="st2">
				<g id="XMLID_495_">
					<g>
						<defs>
							<rect id="SVGID_5_" x="-19.8" y="-1.4" width="63.4" height="22.8"/>
						</defs>
						<clipPath id="SVGID_6_">
							<use xlink:href="#SVGID_5_"  style="overflow:visible;"/>
						</clipPath>
						<g id="XMLID_499_" class="st3">
							<g id="XMLID_500_">
								<g>
									<defs>
										<rect id="SVGID_7_" x="-19.8" y="-1.4" width="63.4" height="22.8"/>
									</defs>
									<clipPath id="SVGID_8_">
										<use xlink:href="#SVGID_7_"  style="overflow:visible;"/>
									</clipPath>
									<path id="XMLID_502_" class="st4" d="M28.1-0.6c-58-2.8-46.3,14.4-46.3,17.6c3.7,1.5,60.5-2.1,56.9,3.7
										c-0.1,0.2-0.2,0.3-0.3,0.5c-0.1,0.1-0.2,0.2-0.2,0.2c0.2-0.2,0.5-0.5,0.8-0.7c0.1-0.1,0.1-0.1,0.2-0.2
										c0.2-0.2,0.5-0.5,0.7-0.7c0-0.1,0.1-0.1,0.1-0.2c0.2-0.2,0.4-0.5,0.5-0.7c0-0.1,0.1-0.1,0.1-0.2c0.2-0.2,0.4-0.5,0.5-0.8
										c0-0.1,0.1-0.2,0.1-0.2c0.2-0.2,0.3-0.5,0.5-0.8l0,0c0.2-0.2,0.2-0.5,0.4-0.8c0-0.1,0.1-0.2,0.1-0.2
										c0.1-0.2,0.2-0.5,0.3-0.8c0-0.1,0-0.1,0.1-0.2c0.1-0.2,0.2-0.5,0.2-0.7c0-0.1,0-0.1,0-0.2c0.1-0.2,0.1-0.5,0.2-0.8
										c0-0.1,0-0.2,0-0.2c0.1-0.3,0.1-0.5,0.1-0.8C40-1.1,28.1-0.6,28.1-0.6"/>
								</g>
							</g>
						</g>
					</g>
				</g>
			</g>
		</g>
	</g>
	<g id="XMLID_406_">
		<g>
			<defs>
				<rect id="SVGID_9_" x="0.2" width="59.6" height="60"/>
			</defs>
			<clipPath id="SVGID_10_">
				<use xlink:href="#SVGID_9_"  style="overflow:visible;"/>
			</clipPath>
			<path id="XMLID_491_" class="st5" d="M48,13.7c0.5,1.1,0.8,2.8-1,4.4L31.4,29.4l-4.7-6c-1.8-2.4-5.3-2.8-7.6-1s-2.8,5.3-1,7.6
				l8,10.2c1.8,2.4,5.1,2.8,7.5,1.1l18-13.1c0.2-0.2,2.6-2,2.8-2.1c0.1-0.1,0.2-0.2,0.2-0.2c6-9,0.2-14.2-6.4-14.2h-2.8
				C46.7,11.8,47.5,12.6,48,13.7"/>
		</g>
		<g>
			<defs>
				<rect id="SVGID_11_" x="0.2" width="59.6" height="60"/>
			</defs>
			<clipPath id="SVGID_12_">
				<use xlink:href="#SVGID_11_"  style="overflow:visible;"/>
			</clipPath>
			<g id="XMLID_487_" class="st6">
				<g id="XMLID_488_">
					<g>
						<defs>
							<rect id="SVGID_13_" x="49.1" y="31.8" width="1.3" height="0.6"/>
						</defs>
						<clipPath id="SVGID_14_">
							<use xlink:href="#SVGID_13_"  style="overflow:visible;"/>
						</clipPath>
						<path id="XMLID_490_" class="st7" d="M49.8,32.3"/>
					</g>
				</g>
			</g>
		</g>
		<g>
			<defs>
				<rect id="SVGID_15_" x="0.2" width="59.6" height="60"/>
			</defs>
			<clipPath id="SVGID_16_">
				<use xlink:href="#SVGID_15_"  style="overflow:visible;"/>
			</clipPath>
			<g id="XMLID_481_" class="st8">
				<g id="XMLID_482_">
					<g>
						<defs>
							<rect id="SVGID_17_" x="49.9" y="29.4" width="1.3" height="0.6"/>
						</defs>
						<clipPath id="SVGID_18_">
							<use xlink:href="#SVGID_17_"  style="overflow:visible;"/>
						</clipPath>
						<path id="XMLID_484_" class="st9" d="M50.6,30"/>
					</g>
				</g>
			</g>
		</g>
		<g>
			<defs>
				<rect id="SVGID_19_" x="0.2" width="59.6" height="60"/>
			</defs>
			<clipPath id="SVGID_20_">
				<use xlink:href="#SVGID_19_"  style="overflow:visible;"/>
			</clipPath>
			<g id="XMLID_468_" class="st10">
				<g id="XMLID_469_">
					<g>
						<defs>
							<rect id="SVGID_21_" x="42.3" y="0.8" width="18" height="25.3"/>
						</defs>
						<clipPath id="SVGID_22_">
							<use xlink:href="#SVGID_21_"  style="overflow:visible;"/>
						</clipPath>
						<g id="XMLID_473_" class="st11">
							<g id="XMLID_474_">
								<g>
									<defs>
										<rect id="SVGID_23_" x="42.3" y="0.8" width="18" height="25.3"/>
									</defs>
									<clipPath id="SVGID_24_">
										<use xlink:href="#SVGID_23_"  style="overflow:visible;"/>
									</clipPath>
									<g id="XMLID_476_" class="st12">
										<g>
											<defs>
												<path id="SVGID_25_" d="M42.9,1.3c8.4,2.1,9.6,7.4,9.5,11.1c4.3,1.8,6.7,6.2,2.4,12.8c-0.1,0.2-0.2,0.4-0.4,0.5
													c-0.1,0.1-0.2,0.2-0.2,0.2c0.3-0.3,0.6-0.5,0.8-0.8c0.1-0.1,0.2-0.2,0.2-0.2c0.2-0.3,0.5-0.5,0.8-0.8
													c0.1-0.1,0.1-0.1,0.2-0.2c0.2-0.2,0.5-0.5,0.6-0.8c0-0.1,0.1-0.1,0.1-0.2c0.2-0.3,0.4-0.6,0.6-0.8
													c0.1-0.1,0.1-0.2,0.2-0.2c0.2-0.3,0.4-0.6,0.5-0.9l0,0c0.2-0.3,0.3-0.6,0.4-0.9c0-0.1,0.1-0.2,0.1-0.2
													c0.2-0.3,0.2-0.6,0.3-0.9c0-0.1,0-0.2,0.1-0.2c0.1-0.3,0.2-0.5,0.2-0.8c0-0.1,0-0.1,0.1-0.2c0.1-0.3,0.2-0.6,0.2-0.9
													c0-0.1,0-0.2,0-0.2c0.1-0.3,0.1-0.6,0.1-0.9C58,0.2,42.9,1.3,42.9,1.3"/>
											</defs>
											<clipPath id="SVGID_26_">
												<use xlink:href="#SVGID_25_"  style="overflow:visible;"/>
											</clipPath>
											
												<linearGradient id="XMLID_3_" gradientUnits="userSpaceOnUse" x1="0.2482" y1="13.1112" x2="0.3209" y2="13.1112" gradientTransform="matrix(1.000000e-03 0 0 1.000000e-03 -1339.1244 1128.7267)">
												<stop  offset="0" style="stop-color:#ABCF3F"/>
												<stop  offset="1" style="stop-color:#59A044"/>
											</linearGradient>
											<rect id="XMLID_478_" x="42.9" y="0.2" class="st13" width="16.7" height="25.8"/>
										</g>
									</g>
								</g>
							</g>
						</g>
					</g>
				</g>
			</g>
		</g>
		<g>
			<defs>
				<rect id="SVGID_27_" x="0.2" width="59.6" height="60"/>
			</defs>
			<clipPath id="SVGID_28_">
				<use xlink:href="#SVGID_27_"  style="overflow:visible;"/>
			</clipPath>
			<g id="XMLID_459_" class="st14">
				<g id="XMLID_460_">
					<g>
						<defs>
							<rect id="SVGID_29_" x="44.7" y="11" width="13.1" height="15.5"/>
						</defs>
						<clipPath id="SVGID_30_">
							<use xlink:href="#SVGID_29_"  style="overflow:visible;"/>
						</clipPath>
						<g id="XMLID_464_" class="st15">
							<g id="XMLID_465_">
								<g>
									<defs>
										<rect id="SVGID_31_" x="44.7" y="11" width="13.1" height="15.5"/>
									</defs>
									<clipPath id="SVGID_32_">
										<use xlink:href="#SVGID_31_"  style="overflow:visible;"/>
									</clipPath>
									<path id="XMLID_467_" class="st16" d="M48.1,11.5h-2.8c1.4,0.3,2.2,1.1,2.6,2.1c0.4,0.8,0.6,1.9,0.1,3
										c7.8,0.7,6.7,7.7,5.7,9.8l0,0c0.1-0.1,0.2-0.1,0.2-0.2l0,0c0.1-0.1,0.1-0.1,0.2-0.2l0,0l0.1-0.1l0,0l0.1-0.1
										c0.1-0.1,0.2-0.2,0.2-0.2C60.6,16.7,54.8,11.5,48.1,11.5"/>
								</g>
							</g>
						</g>
					</g>
				</g>
			</g>
		</g>
		<g>
			<defs>
				<rect id="SVGID_33_" x="0.2" y="0.5" width="59.6" height="59.1"/>
			</defs>
			<clipPath id="SVGID_34_">
				<use xlink:href="#SVGID_33_"  style="overflow:visible;"/>
			</clipPath>
			<g id="XMLID_453_" class="st17">
				<g id="XMLID_454_">
					<g>
						<defs>
							<rect id="SVGID_35_" x="17.1" y="29.1" width="3.7" height="3.7"/>
						</defs>
						<clipPath id="SVGID_36_">
							<use xlink:href="#SVGID_35_"  style="overflow:visible;"/>
						</clipPath>
						<g id="XMLID_456_" class="st18">
							<g>
								<defs>
									<path id="SVGID_37_" d="M20.2,32.7l-2.4-3.1c0.1,0.2,0.2,0.2,0.2,0.4L20.2,32.7z"/>
								</defs>
								<clipPath id="SVGID_38_">
									<use xlink:href="#SVGID_37_"  style="overflow:visible;"/>
								</clipPath>
								
									<linearGradient id="XMLID_4_" gradientUnits="userSpaceOnUse" x1="0.2482" y1="31.1918" x2="0.3209" y2="31.1918" gradientTransform="matrix(1.000000e-03 0 0 1.000000e-03 -1339.1244 1128.7267)">
									<stop  offset="0" style="stop-color:#ABCF3F"/>
									<stop  offset="1" style="stop-color:#59A044"/>
								</linearGradient>
								<rect id="XMLID_458_" x="17.8" y="29.7" class="st19" width="2.4" height="3.1"/>
							</g>
						</g>
					</g>
				</g>
			</g>
		</g>
		<g>
			<defs>
				<rect id="SVGID_39_" x="0.2" y="0.5" width="59.6" height="59.5"/>
			</defs>
			<clipPath id="SVGID_40_">
				<use xlink:href="#SVGID_39_"  style="overflow:visible;"/>
			</clipPath>
			<g id="XMLID_447_" class="st20">
				<g id="XMLID_448_">
					<g>
						<defs>
							<rect id="SVGID_41_" x="10.5" y="35.2" width="50" height="24.2"/>
						</defs>
						<clipPath id="SVGID_42_">
							<use xlink:href="#SVGID_41_"  style="overflow:visible;"/>
						</clipPath>
						<path id="XMLID_450_" class="st21" d="M59.8,43.3v-2.1c0-3-2.4-5.4-5.4-5.4s-5.4,2.4-5.4,5.4v2.1c0,3-2.4,5.3-5.4,5.3H16.5
							c-2.8,0-5.2-2.2-5.4-5l0,0c0.2,4.7,1.7,16,12.2,16h20.3C52.5,59.4,59.8,52.2,59.8,43.3"/>
					</g>
				</g>
			</g>
		</g>
		<g>
			<defs>
				<rect id="SVGID_43_" x="0.2" y="0.5" width="59.6" height="59.1"/>
			</defs>
			<clipPath id="SVGID_44_">
				<use xlink:href="#SVGID_43_"  style="overflow:visible;"/>
			</clipPath>
			<g id="XMLID_432_" class="st22">
				<g id="XMLID_433_">
					<g>
						<defs>
							<rect id="SVGID_45_" x="10.5" y="43" width="14.2" height="16.5"/>
						</defs>
						<clipPath id="SVGID_46_">
							<use xlink:href="#SVGID_45_"  style="overflow:visible;"/>
						</clipPath>
						<g id="XMLID_441_" class="st23">
							<g id="XMLID_442_">
								<g>
									<defs>
										<rect id="SVGID_47_" x="10.5" y="43" width="14.2" height="16.5"/>
									</defs>
									<clipPath id="SVGID_48_">
										<use xlink:href="#SVGID_47_"  style="overflow:visible;"/>
									</clipPath>
									<path id="XMLID_444_" class="st24" d="M21.8,48.5h-5.4c-2.8,0-5.2-2.2-5.4-5l0,0c0.2,4.7,1.8,16,12.2,16H24
										C24,59.4,17.9,54.9,21.8,48.5"/>
								</g>
							</g>
						</g>
					</g>
				</g>
			</g>
		</g>
	</g>
	<rect id="XMLID_405_" x="0.2" y="0.5" class="st0" width="59.6" height="59.1"/>
</g>
</svg>
