<?xml version="1.0" encoding="utf-8"?>
<!-- Generator: Adobe Illustrator 24.0.3, SVG Export Plug-In . SVG Version: 6.00 Build 0)  -->
<svg version="1.1" id="Layer_1" xmlns="http://www.w3.org/2000/svg" xmlns:xlink="http://www.w3.org/1999/xlink" x="0px" y="0px"
	 width="60px" height="60px" viewBox="0 0 60 60" style="enable-background:new 0 0 60 60;" xml:space="preserve">
<style type="text/css">
	.st0{fill:#EF4038;}
	.st1{fill:#FBD901;}
	.st2{fill:#63BD5C;}
	.st3{fill:#5BB154;}
	.st4{fill:#FFFFFF;}
	.st5{fill:url(#SVGID_1_);}
	.st6{fill:#E9CA1C;}
	.st7{fill:#E03B32;}
</style>
<g>
	<path class="st0" d="M29.9-0.1c0,0,17.7-0.8,27,17H28.4c0,0-5.4-0.2-10,6.4c-1.3,2.7-2.7,5.6-1.1,11.1C15,30.5,5.1,13.3,5.1,13.3
		S12.1,0.6,29.9-0.1L29.9-0.1z"/>
	<path class="st1" d="M56,45c0,0-8.2,15.7-28.2,14.9c2.5-4.3,14.3-24.7,14.3-24.7s2.9-4.6-0.5-11.8c-1.7-2.5-3.5-5.2-9.1-6.6
		c4.5,0,24.4,0,24.4,0S64.4,29.2,56,45z"/>
	<path class="st2" d="M3.9,45.1c0,0-9.5-14.9,1.2-31.9C7.6,17.5,19.4,38,19.4,38s2.5,4.8,10.5,5.5c3-0.2,6.2-0.4,10.2-4.6
		C37.9,42.8,27.9,60,27.9,60S13.5,60.2,3.9,45.1L3.9,45.1z"/>
	<path class="st3" d="M27.8,60.1l4-16.8c0,0,4.4-0.3,8.1-4.4C37.7,43,27.8,60.1,27.8,60.1L27.8,60.1z"/>
	<path class="st4" d="M16.5,30.2c0-7.4,6-13.4,13.4-13.4s13.4,6,13.4,13.4c0,7.4-6,13.4-13.4,13.4C22.5,43.6,16.5,37.6,16.5,30.2
		L16.5,30.2z"/>
	
		<linearGradient id="SVGID_1_" gradientUnits="userSpaceOnUse" x1="-19.7898" y1="81.818" x2="-19.7898" y2="81.7948" gradientTransform="matrix(923.3912 0 0 -923.3912 18303.5957 75569.2656)">
		<stop  offset="0" style="stop-color:#87BBE5"/>
		<stop  offset="1" style="stop-color:#1173BB"/>
	</linearGradient>
	<path class="st5" d="M18.7,30.2c0-6.1,5-11.1,11.1-11.1C36,19.1,41,24,41,30.2c0,6.1-5,11.1-11.1,11.1
		C23.7,41.3,18.7,36.3,18.7,30.2z"/>
	<path class="st6" d="M56.9,16.8l-16.5,4.9c0,0-2.5-3.7-7.9-4.9C37.2,16.8,56.9,16.8,56.9,16.8L56.9,16.8z"/>
	<path class="st7" d="M17,33.8c-2.3-4-11.9-20.5-11.9-20.5l12.2,12.1c0,0-1.3,2.6-0.8,6.3L17,33.8L17,33.8z"/>
</g>
</svg>
