<?xml version="1.0" encoding="utf-8"?>
<!-- Generator: Adobe Illustrator 24.0.3, SVG Export Plug-In . SVG Version: 6.00 Build 0)  -->
<svg version="1.1" id="Layer_1" xmlns="http://www.w3.org/2000/svg" xmlns:xlink="http://www.w3.org/1999/xlink" x="0px" y="0px"
	 width="60px" height="60px" viewBox="0 0 60 60" style="enable-background:new 0 0 60 60;" xml:space="preserve">
<style type="text/css">
	.st0{fill:url(#SVGID_1_);}
	.st1{fill:url(#SVGID_2_);}
	.st2{fill:url(#SVGID_3_);}
	.st3{fill:url(#SVGID_4_);}
	.st4{fill:url(#SVGID_5_);}
	.st5{fill:url(#SVGID_6_);}
	.st6{fill:url(#SVGID_7_);}
	.st7{fill:url(#SVGID_8_);}
	.st8{fill:url(#SVGID_9_);}
	.st9{fill:url(#SVGID_10_);}
	.st10{fill:url(#SVGID_11_);}
	.st11{fill:url(#SVGID_12_);}
</style>
<g>
	
		<linearGradient id="SVGID_1_" gradientUnits="userSpaceOnUse" x1="-19.0403" y1="81.0094" x2="-19.0621" y2="80.989" gradientTransform="matrix(2206.7275 0 0 -2278.6919 42069.7656 184604.7344)">
		<stop  offset="4.800000e-02" style="stop-color:#FCEF58"/>
		<stop  offset="0.111" style="stop-color:#FFE847"/>
		<stop  offset="0.225" style="stop-color:#FFC931"/>
		<stop  offset="0.368" style="stop-color:#F8981D"/>
		<stop  offset="0.401" style="stop-color:#F68B22"/>
		<stop  offset="0.462" style="stop-color:#F26831"/>
		<stop  offset="0.534" style="stop-color:#EF3E4C"/>
		<stop  offset="0.705" style="stop-color:#E31887"/>
	</linearGradient>
	<path class="st0" d="M56.9,20.1c-1.3-3-3.8-6.3-5.8-7.4c1.4,2.8,2.4,5.7,2.9,8.8v0.1C50.8,13.5,45.2,10.2,40.7,3
		c-0.2-0.4-0.5-0.7-0.7-1.1c-0.1-0.2-0.2-0.4-0.3-0.6c-0.2-0.4-0.3-0.8-0.4-1.2c0,0,0-0.1-0.1-0.1c0,0-0.1,0-0.1,0v0c0,0,0,0,0,0v0
		c-7.3,4.3-9.8,12.2-10,16.1c-2.9,0.2-5.7,1.3-8,3.1c-0.2-0.2-0.5-0.4-0.8-0.6c-0.7-2.3-0.7-4.8-0.1-7.1c-2.7,1.3-5.1,3.1-7,5.4
		c-1.2-1.5-1.1-6.3-1-7.3c-0.3,0.1-0.7,0.3-1,0.5c-1,0.7-2,1.5-2.9,2.4c-1,1-1.9,2.1-2.7,3.3c-1.9,2.6-3.2,5.6-3.9,8.8l-0.1,0.2
		c-0.1,0.2-0.3,1.5-0.3,1.8v0.1c-0.3,1.3-0.4,2.7-0.5,4V31C1,47,14,60,30.1,60c14.1,0,26.2-10.2,28.6-24.1c0.1-0.4,0.1-0.8,0.1-1.1
		C59.4,29.8,58.8,24.8,56.9,20.1L56.9,20.1z M23.4,42.9c0.1,0.1,0.3,0.2,0.4,0.2l0,0C23.7,43,23.6,43,23.4,42.9L23.4,42.9z
		 M54.1,21.7L54.1,21.7L54.1,21.7L54.1,21.7z"/>
	
		<radialGradient id="SVGID_2_" cx="-22.1613" cy="81.8516" r="2.1264" gradientTransform="matrix(28.5026 0 0 -28.5026 683.4918 2339.6685)" gradientUnits="userSpaceOnUse">
		<stop  offset="0.129" style="stop-color:#FDBD50"/>
		<stop  offset="0.186" style="stop-color:#FBAC33"/>
		<stop  offset="0.247" style="stop-color:#F99C20"/>
		<stop  offset="0.283" style="stop-color:#F8981D"/>
		<stop  offset="0.403" style="stop-color:#F15940"/>
		<stop  offset="0.467" style="stop-color:#EF3E54"/>
		<stop  offset="0.71" style="stop-color:#ED1E6D"/>
		<stop  offset="0.782" style="stop-color:#E91178"/>
		<stop  offset="0.86" style="stop-color:#E40780"/>
	</radialGradient>
	<path class="st1" d="M56.9,20.1c-1.3-3-3.8-6.3-5.8-7.4c1.4,2.8,2.4,5.7,2.9,8.8v0.1c2.2,6.4,1.9,13.4-0.9,19.6
		c-3.3,7.1-11.4,14.5-24,14.1C15.5,55,3.5,44.9,1.2,31.6c-0.4-2.1,0-3.2,0.2-4.9c-0.3,1.3-0.4,2.7-0.5,4v0.2C1,47,14,60,30.1,60
		c14.1,0,26.2-10.2,28.6-24.1c0.1-0.4,0.1-0.8,0.1-1.1C59.4,29.8,58.8,24.8,56.9,20.1L56.9,20.1z"/>
	
		<radialGradient id="SVGID_3_" cx="-22.9383" cy="80.9823" r="2.1264" gradientTransform="matrix(28.5026 0 0 -28.5026 683.4918 2339.6685)" gradientUnits="userSpaceOnUse">
		<stop  offset="0.3" style="stop-color:#971B1E"/>
		<stop  offset="0.351" style="stop-color:#B21F28;stop-opacity:0.74"/>
		<stop  offset="0.435" style="stop-color:#DC2A3E;stop-opacity:0.343"/>
		<stop  offset="0.497" style="stop-color:#EF384E;stop-opacity:9.400000e-02"/>
		<stop  offset="0.53" style="stop-color:#EF3E54;stop-opacity:0"/>
	</radialGradient>
	<path class="st2" d="M56.9,20.1c-1.3-3-3.8-6.3-5.8-7.4c1.4,2.8,2.4,5.7,2.9,8.8v0.1c2.2,6.4,1.9,13.4-0.9,19.6
		c-3.3,7.1-11.4,14.5-24,14.1C15.5,55,3.5,44.9,1.2,31.6c-0.4-2.1,0-3.2,0.2-4.9c-0.3,1.3-0.4,2.7-0.5,4v0.2C1,47,14,60,30.1,60
		c14.1,0,26.2-10.2,28.6-24.1c0.1-0.4,0.1-0.8,0.1-1.1C59.4,29.8,58.8,24.8,56.9,20.1L56.9,20.1z"/>
	
		<radialGradient id="SVGID_4_" cx="-22.6819" cy="82.3341" r="1.5405" gradientTransform="matrix(28.5026 0 0 -28.5026 683.4918 2339.6685)" gradientUnits="userSpaceOnUse">
		<stop  offset="0.132" style="stop-color:#FCEF58"/>
		<stop  offset="0.252" style="stop-color:#FDDB40"/>
		<stop  offset="0.506" style="stop-color:#F99C1C"/>
		<stop  offset="0.526" style="stop-color:#F8981D"/>
	</radialGradient>
	<path class="st3" d="M42.8,23.6c0.1,0,0.1,0.1,0.2,0.1c-0.7-1.3-1.6-2.5-2.7-3.5c-9-9-2.4-19.6-1.2-20.1v0
		c-7.3,4.3-9.8,12.2-10,16.1c0.3,0,0.7,0,1,0C35.3,16.1,40.2,19,42.8,23.6L42.8,23.6z"/>
	
		<radialGradient id="SVGID_5_" cx="-23.1735" cy="80.4268" r="1.0125" gradientTransform="matrix(28.5026 0 0 -28.5026 683.4918 2339.6685)" gradientUnits="userSpaceOnUse">
		<stop  offset="0.353" style="stop-color:#4D8AC8"/>
		<stop  offset="0.472" style="stop-color:#6073B7"/>
		<stop  offset="0.669" style="stop-color:#7662AB"/>
		<stop  offset="1" style="stop-color:#9A54A1"/>
	</radialGradient>
	<path class="st4" d="M30.1,25.4c-0.1,0.7-2.6,3.2-3.5,3.2c-8.3,0-9.6,5-9.6,5c0.4,4.2,3.3,7.7,6.8,9.5l0.5,0.2
		c0.3,0.1,0.6,0.2,0.9,0.4c1.2,0.4,2.5,0.7,3.8,0.7c14.5,0.7,17.3-17.3,6.8-22.6c2.5-0.3,5,0.3,7,1.7c-2.6-4.6-7.5-7.4-12.7-7.4
		c-0.3,0-0.7,0-1,0c-2.9,0.2-5.7,1.3-8,3.1c0.5,0.4,0.9,0.9,2,1.9C25,23.1,30.1,25.1,30.1,25.4L30.1,25.4z"/>
	
		<radialGradient id="SVGID_6_" cx="-7991.5181" cy="8611.3125" r="0.5368" gradientTransform="matrix(27.7046 -6.6981 -7.8382 -32.436 288931.9375 225814.8906)" gradientUnits="userSpaceOnUse">
		<stop  offset="0.206" style="stop-color:#7662AB;stop-opacity:0"/>
		<stop  offset="0.278" style="stop-color:#775DA8;stop-opacity:6.400000e-02"/>
		<stop  offset="0.747" style="stop-color:#743694;stop-opacity:0.45"/>
		<stop  offset="0.975" style="stop-color:#6C2A85;stop-opacity:0.6"/>
	</radialGradient>
	<path class="st5" d="M30.1,25.4c-0.1,0.7-2.6,3.2-3.5,3.2c-8.3,0-9.6,5-9.6,5c0.4,4.2,3.3,7.7,6.8,9.5l0.5,0.2
		c0.3,0.1,0.6,0.2,0.9,0.4c1.2,0.4,2.5,0.7,3.8,0.7c14.5,0.7,17.3-17.3,6.8-22.6c2.5-0.3,5,0.3,7,1.7c-2.6-4.6-7.5-7.4-12.7-7.4
		c-0.3,0-0.7,0-1,0c-2.9,0.2-5.7,1.3-8,3.1c0.5,0.4,0.9,0.9,2,1.9C25,23.1,30.1,25.1,30.1,25.4L30.1,25.4z"/>
	
		<radialGradient id="SVGID_7_" cx="-22.9651" cy="81.9386" r="0.7284" gradientTransform="matrix(28.5026 0 0 -28.5026 683.4918 2339.6685)" gradientUnits="userSpaceOnUse">
		<stop  offset="0" style="stop-color:#FEE123"/>
		<stop  offset="0.121" style="stop-color:#FEDB28"/>
		<stop  offset="0.295" style="stop-color:#FFC92C"/>
		<stop  offset="0.502" style="stop-color:#FAA933"/>
		<stop  offset="0.732" style="stop-color:#F47D3A"/>
		<stop  offset="0.792" style="stop-color:#F3723F"/>
	</radialGradient>
	<path class="st6" d="M19.7,18.3c0.2,0.2,0.4,0.3,0.6,0.4c-0.7-2.3-0.7-4.8-0.1-7.1c-2.7,1.3-5.1,3.1-7,5.4
		C13.4,17,17.6,16.9,19.7,18.3L19.7,18.3z"/>
	
		<radialGradient id="SVGID_8_" cx="-22.3926" cy="82.4006" r="3.1076" gradientTransform="matrix(28.5026 0 0 -28.5026 683.4918 2339.6685)" gradientUnits="userSpaceOnUse">
		<stop  offset="0.113" style="stop-color:#FCEF58"/>
		<stop  offset="0.456" style="stop-color:#F8981D"/>
		<stop  offset="0.622" style="stop-color:#F1593B"/>
		<stop  offset="0.716" style="stop-color:#EF3E4C"/>
		<stop  offset="0.904" style="stop-color:#E31887"/>
	</radialGradient>
	<path class="st7" d="M1.2,31.6C3.5,44.9,15.5,55,29.1,55.4c12.6,0.4,20.7-7,24-14.1c2.8-6.2,3.1-13.2,0.9-19.6v0v0l0,0.1
		c1,6.7-2.4,13.3-7.8,17.7l0,0c-10.4,8.5-20.4,5.1-22.4,3.8c-0.2-0.1-0.3-0.1-0.4-0.2c-6.1-2.9-8.6-8.4-8.1-13.2
		c-2.9,0-5.6-1.7-6.9-4.3c3.2-2,7.3-2.2,10.7-0.4c3.4,1.6,7.4,1.7,10.9,0.4c0-0.2-5.1-2.3-7.1-4.2c-1.1-1-1.5-1.5-2-1.9
		c-0.2-0.2-0.5-0.4-0.8-0.6c-0.2-0.1-0.4-0.2-0.6-0.4c-2.1-1.4-6.3-1.3-6.5-1.3h0c-1.1-1.5-1.1-6.3-1-7.3c-0.3,0.1-0.7,0.3-1,0.5
		c-1,0.7-2,1.5-2.9,2.4c-1,1-1.9,2.1-2.7,3.3c-1.9,2.6-3.2,5.6-3.9,8.8C1.7,24.8,0.7,29.3,1.2,31.6L1.2,31.6z"/>
	
		<radialGradient id="SVGID_9_" cx="-7947.5405" cy="8523.3369" r="2.2764" gradientTransform="matrix(2.9928 28.3601 18.6122 -1.9667 -134815.25 242151.875)" gradientUnits="userSpaceOnUse">
		<stop  offset="0" style="stop-color:#FCEF58"/>
		<stop  offset="6.000000e-02" style="stop-color:#FFE847"/>
		<stop  offset="0.168" style="stop-color:#FFC931"/>
		<stop  offset="0.304" style="stop-color:#F8981D"/>
		<stop  offset="0.356" style="stop-color:#F68B22"/>
		<stop  offset="0.455" style="stop-color:#F26831"/>
		<stop  offset="0.57" style="stop-color:#EF3E4C"/>
		<stop  offset="0.737" style="stop-color:#E31887"/>
	</radialGradient>
	<path class="st8" d="M40.3,20.2c1.1,1,2,2.2,2.7,3.5c0.2,0.1,0.3,0.2,0.4,0.4c6.6,6.1,3.2,14.7,2.9,15.3c5.3-4.4,8.8-10.9,7.7-17.7
		C50.8,13.5,45.2,10.2,40.6,3c-0.2-0.4-0.5-0.7-0.7-1.1c-0.1-0.2-0.2-0.4-0.3-0.6c-0.2-0.4-0.3-0.8-0.4-1.2c0,0,0-0.1-0.1-0.1
		c0,0-0.1,0-0.1,0v0c0,0,0,0,0,0C37.9,0.6,31.2,11.1,40.3,20.2L40.3,20.2z"/>
	
		<radialGradient id="SVGID_10_" cx="-22.9823" cy="81.6688" r="1.9401" gradientTransform="matrix(28.5026 0 0 -28.5026 683.4918 2339.6685)" gradientUnits="userSpaceOnUse">
		<stop  offset="0.137" style="stop-color:#FCEF58"/>
		<stop  offset="0.48" style="stop-color:#F8981D"/>
		<stop  offset="0.592" style="stop-color:#F1593B"/>
		<stop  offset="0.655" style="stop-color:#EF3E4C"/>
		<stop  offset="0.904" style="stop-color:#E31887"/>
	</radialGradient>
	<path class="st9" d="M43.4,24.1c-0.1-0.1-0.3-0.2-0.4-0.4l-0.2-0.1c-2-1.4-4.5-2-7-1.7c10.5,5.2,7.7,23.3-6.8,22.6
		c-1.3-0.1-2.6-0.3-3.8-0.7c-0.3-0.1-0.6-0.2-0.9-0.3c-0.2-0.1-0.3-0.2-0.5-0.2h0c2,1.4,12,4.8,22.4-3.8l0,0
		C46.6,38.7,50,30.1,43.4,24.1L43.4,24.1z"/>
	
		<radialGradient id="SVGID_11_" cx="-22.4701" cy="81.5553" r="2.1234" gradientTransform="matrix(28.5026 0 0 -28.5026 683.4918 2339.6685)" gradientUnits="userSpaceOnUse">
		<stop  offset="9.400000e-02" style="stop-color:#FCEF58"/>
		<stop  offset="0.231" style="stop-color:#FDE143"/>
		<stop  offset="0.509" style="stop-color:#FBAE22"/>
		<stop  offset="0.626" style="stop-color:#F8981D"/>
	</radialGradient>
	<path class="st10" d="M17,33.6c0,0,1.4-5,9.6-5c0.9,0,3.5-2.5,3.5-3.2c-3.6,1.3-7.5,1.1-10.9-0.4c-3.4-1.7-7.4-1.6-10.7,0.4
		c1.2,2.7,3.9,4.4,6.9,4.3c-0.5,4.8,2,10.3,8,13.2c0.1,0.1,0.3,0.1,0.4,0.2C20.3,41.3,17.4,37.8,17,33.6L17,33.6z"/>
	
		<linearGradient id="SVGID_12_" gradientUnits="userSpaceOnUse" x1="-19.0403" y1="81.0095" x2="-19.0589" y2="80.9915" gradientTransform="matrix(2206.7275 0 0 -2278.6926 42069.1953 184604.7969)">
		<stop  offset="0.167" style="stop-color:#FCEF58;stop-opacity:0.8"/>
		<stop  offset="0.266" style="stop-color:#FCEF58;stop-opacity:0.634"/>
		<stop  offset="0.489" style="stop-color:#FCEF58;stop-opacity:0.217"/>
		<stop  offset="0.6" style="stop-color:#FCEF58;stop-opacity:0"/>
	</linearGradient>
	<path class="st11" d="M56.9,20.1c-1.3-3-3.8-6.3-5.8-7.4c1.4,2.8,2.4,5.7,2.9,8.8v0.1C50.8,13.5,45.2,10.2,40.7,3
		c-0.2-0.4-0.5-0.7-0.7-1.1c-0.1-0.2-0.2-0.4-0.3-0.6c-0.2-0.4-0.3-0.8-0.4-1.2c0,0,0-0.1-0.1-0.1c0,0-0.1,0-0.1,0v0c0,0,0,0,0,0v0
		c-7.3,4.3-9.8,12.2-10,16.1c0.3,0,0.7,0,1,0c5.3,0,10.1,2.8,12.7,7.4c-2-1.4-4.5-2-7-1.7c10.5,5.2,7.7,23.3-6.8,22.6
		c-1.3-0.1-2.6-0.3-3.8-0.7c-0.3-0.1-0.6-0.2-0.9-0.3l-0.5-0.2h0c-0.1-0.1-0.3-0.1-0.4-0.2c0.1,0.1,0.3,0.2,0.4,0.2
		c-3.5-1.8-6.5-5.3-6.8-9.5c0,0,1.4-5,9.6-5c0.9,0,3.5-2.5,3.5-3.2c0-0.2-5.1-2.3-7.1-4.2c-1.1-1.1-1.6-1.5-2-1.9
		c-0.2-0.2-0.5-0.4-0.8-0.6c-0.7-2.3-0.7-4.8-0.1-7.1c-2.7,1.3-5.1,3.1-7,5.4c-1.2-1.5-1.1-6.3-1-7.3c-0.3,0.1-0.7,0.3-1,0.5
		c-1,0.7-2,1.5-2.9,2.4c-1,1-1.9,2.1-2.7,3.3c-1.9,2.6-3.2,5.6-3.9,8.8l-0.1,0.2c-0.1,0.2-0.3,1.6-0.3,1.8C1.2,28.1,1,29.4,1,30.8
		V31C1,47,14,60,30.1,60c14.1,0,26.2-10.2,28.6-24.1c0.1-0.4,0.1-0.8,0.1-1.1C59.4,29.8,58.8,24.8,56.9,20.1L56.9,20.1z M54.1,21.6
		L54.1,21.6L54.1,21.6z"/>
</g>
</svg>
