<?xml version="1.0" encoding="utf-8"?>
<!-- Generator: Adobe Illustrator 24.0.3, SVG Export Plug-In . SVG Version: 6.00 Build 0)  -->
<svg version="1.1" id="Layer_1" xmlns="http://www.w3.org/2000/svg" xmlns:xlink="http://www.w3.org/1999/xlink" x="0px" y="0px"
	 width="60px" height="60px" viewBox="0 0 60 60" style="enable-background:new 0 0 60 60;" xml:space="preserve">
<style type="text/css">
	.st0{fill:#161614;}
</style>
<g>
	<path class="st0" d="M30,0.7c-16.6,0-30,13.4-30,30C0,44,8.6,55.2,20.5,59.2c1.5,0.3,2-0.7,2-1.4c0-0.7,0-3.1,0-5.6
		c-8.3,1.8-10.1-3.5-10.1-3.5c-1.4-3.5-3.3-4.4-3.3-4.4c-2.7-1.9,0.2-1.8,0.2-1.8c3,0.2,4.6,3.1,4.6,3.1c2.7,4.6,7,3.3,8.7,2.5
		c0.3-1.9,1-3.3,1.9-4c-6.7-0.8-13.7-3.3-13.7-14.8c0-3.3,1.2-6,3.1-8.1c-0.3-0.8-1.3-3.8,0.3-7.9c0,0,2.5-0.8,8.3,3.1
		c2.4-0.7,5-1,7.5-1c2.5,0,5.1,0.3,7.5,1c5.7-3.9,8.2-3.1,8.2-3.1c1.6,4.1,0.6,7.2,0.3,7.9c1.9,2.1,3.1,4.8,3.1,8.1
		c0,11.5-7,14.1-13.7,14.8c1.1,0.9,2,2.8,2,5.6c0,4,0,7.2,0,8.2c0,0.8,0.5,1.7,2.1,1.4C51.4,55.2,60,44,60,30.7
		C60,14.2,46.6,0.7,30,0.7"/>
	<path class="st0" d="M11.2,43.5c-0.1,0.1-0.3,0.2-0.5,0.1c-0.2-0.1-0.3-0.3-0.3-0.5c0.1-0.2,0.3-0.2,0.5-0.1
		C11.2,43.1,11.3,43.3,11.2,43.5 M12.7,44.8c-0.1,0.1-0.4,0.1-0.6-0.1c-0.2-0.2-0.2-0.5-0.1-0.6c0.1-0.1,0.4-0.1,0.6,0.1
		C12.8,44.4,12.9,44.7,12.7,44.8 M13.7,46.5c-0.2,0.1-0.5,0-0.7-0.3c-0.2-0.3-0.2-0.6,0-0.7c0.2-0.1,0.5,0,0.7,0.3
		C13.9,46,13.9,46.3,13.7,46.5 M15.4,48.4c-0.2,0.2-0.5,0.1-0.8-0.1c-0.3-0.2-0.3-0.6-0.2-0.8c0.2-0.2,0.5-0.1,0.8,0.1
		C15.5,47.9,15.6,48.2,15.4,48.4 M17.6,49.1c-0.1,0.2-0.4,0.3-0.7,0.2c-0.3-0.1-0.6-0.4-0.5-0.6c0.1-0.2,0.4-0.3,0.8-0.2
		C17.5,48.6,17.7,48.8,17.6,49.1 M20.2,49.4c0,0.2-0.3,0.5-0.6,0.5c-0.4,0-0.6-0.2-0.7-0.4c0-0.2,0.3-0.5,0.6-0.5
		C19.9,48.9,20.2,49.1,20.2,49.4 M22.6,49.3c0,0.2-0.2,0.5-0.6,0.6c-0.3,0.1-0.7-0.1-0.7-0.3c0-0.2,0.2-0.5,0.6-0.6
		C22.3,48.9,22.6,49,22.6,49.3"/>
</g>
</svg>
