<?xml version="1.0" encoding="utf-8"?>
<!-- Generator: Adobe Illustrator 24.0.3, SVG Export Plug-In . SVG Version: 6.00 Build 0)  -->
<svg version="1.1" id="Layer_1" xmlns="http://www.w3.org/2000/svg" xmlns:xlink="http://www.w3.org/1999/xlink" x="0px" y="0px"
	 width="60px" height="60px" viewBox="0 0 60 60" style="enable-background:new 0 0 60 60;" xml:space="preserve">
<style type="text/css">
	.st0{fill:#2684FF;}
	.st1{fill:url(#SVGID_1_);}
	.st2{fill:url(#SVGID_2_);}
</style>
<g>
	<path class="st0" d="M58.3,28.3L32.5,2.5L30,0L10.6,19.4l-8.9,8.9c-0.9,0.9-0.9,2.4,0,3.4l17.8,17.8L30,60l19.4-19.4l0.3-0.3
		l8.6-8.6C59.2,30.8,59.3,29.3,58.3,28.3C58.3,28.3,58.3,28.3,58.3,28.3L58.3,28.3z M30,38.9L21.1,30l8.9-8.9l8.9,8.9L30,38.9z"/>
	
		<linearGradient id="SVGID_1_" gradientUnits="userSpaceOnUse" x1="-12.3458" y1="-181.5226" x2="-13.4692" y2="-180.3995" gradientTransform="matrix(11.028 0 0 11.028 164.5598 2013.9895)">
		<stop  offset="0.18" style="stop-color:#0052CC"/>
		<stop  offset="1" style="stop-color:#2684FF"/>
	</linearGradient>
	<path class="st1" d="M30,21.1c-5.8-5.8-5.8-15.2-0.1-21.1L10.5,19.5L21.1,30L30,21.1z"/>
	
		<linearGradient id="SVGID_2_" gradientUnits="userSpaceOnUse" x1="-12.0483" y1="-178.2957" x2="-10.9272" y2="-179.4166" gradientTransform="matrix(11.028 0 0 11.028 164.5598 2013.9895)">
		<stop  offset="0.18" style="stop-color:#0052CC"/>
		<stop  offset="1" style="stop-color:#2684FF"/>
	</linearGradient>
	<path class="st2" d="M38.9,30L30,38.9c5.8,5.8,5.8,15.3,0,21.1l19.5-19.5L38.9,30z"/>
</g>
</svg>
