<?xml version="1.0" encoding="utf-8"?>
<!-- Generator: Adobe Illustrator 24.0.3, SVG Export Plug-In . SVG Version: 6.00 Build 0)  -->
<svg version="1.1" id="Layer_1" xmlns="http://www.w3.org/2000/svg" xmlns:xlink="http://www.w3.org/1999/xlink" x="0px" y="0px"
	 width="60px" height="60px" viewBox="0 0 60 60" style="enable-background:new 0 0 60 60;" xml:space="preserve">
<style type="text/css">
	.st0{fill:#FFFFFF;}
	.st1{fill:#E90E8B;}
	.st2{fill:#F39AC0;}
	.st3{fill:#F287B7;}
</style>
<g>
	<path id="Path_132" class="st0" d="M47.9,30.1c0,4.8-1.9,9.3-5.2,12.6c-6.8,6.9-17.8,7.1-24.9,0.3c-0.1-0.1-0.3-0.3-0.3-0.3
		c-6.9-7.1-6.9-18.4,0-25.4c6.8-6.9,17.8-7.1,24.9-0.3c0.1,0.1,0.3,0.3,0.3,0.3C46,20.8,48,25.3,47.9,30.1z M43.4,30.1
		c0-3.6-1.3-6.9-3.9-9.4c-5.1-5.2-13.3-5.3-18.5-0.3c-0.1,0.1-0.1,0.1-0.3,0.3c-5.2,5.2-5.2,13.6,0,18.9c5.1,5.2,13.4,5.2,18.5,0.1
		l0.1-0.1C42,37,43.4,33.7,43.4,30.1L43.4,30.1z"/>
	<path id="path4050" class="st1" d="M27.5,0l-1.2,7.2l0,0c-1.5,0.3-2.9,0.7-4.4,1.2l0,0l-4.7-5.6l-4.4,2.5l2.5,6.8l0,0
		c-1.2,0.9-2.3,2-3.2,3.2l0,0l-6.8-2.5l-2.5,4.4l5.6,4.7c-0.5,1.5-0.9,2.9-1.2,4.4l0,0l-7.2,1.3v5.1l7.2,1.2l0,0
		c0.3,1.5,0.7,2.9,1.2,4.4l-5.7,4.7l2.5,4.4l6.8-2.5l0,0c0.9,1.2,2,2.3,3.2,3.2l0,0l-2.5,6.8l4.4,2.5l4.7-5.6l0,0
		c1.5,0.5,2.9,0.9,4.4,1.2l0,0l1.2,7.2h5.1l1.2-7.2l0,0c1.5-0.3,2.9-0.7,4.4-1.2l4.7,5.6l4.4-2.5l-2.5-6.8c1.2-0.9,2.3-2,3.2-3.2
		l6.8,2.5l2.5-4.4l-5.6-4.7c0.5-1.5,0.9-2.9,1.2-4.4l7.2-1.2v-5.1l-7.2-1.2c-0.3-1.5-0.7-2.9-1.2-4.4l5.6-4.7l-2.5-4.4L48,15.3
		c-0.9-1.2-2-2.3-3.2-3.2l2.5-6.8L43,2.8l-4.7,5.6c-1.5-0.5-2.9-0.9-4.4-1.2l0,0L32.6,0H27.5z M30.1,12.2c9.8,0,17.7,8,17.7,17.7
		s-8,17.7-17.7,17.7c-9.8,0-17.7-8-17.7-17.7S20.4,12.2,30.1,12.2L30.1,12.2z"/>
	<circle id="Ellipse_7" class="st1" cx="30.1" cy="30.1" r="7.6"/>
	<path id="Path_136" class="st2" d="M5.3,47.2l6.8-2.5l0,0c0.9,1.2,2,2.3,3.2,3.2l0,0l-2.5,6.8l4.4,2.5l4.7-5.6l0,0
		c1.5,0.5,2.9,0.9,4.4,1.2l0,0l1.2,7.2h5.1l1.2-7.2l0,0c1.5-0.3,2.9-0.7,4.4-1.2l4.7,5.6l4.4-2.5l-2.5-6.8c1.2-0.9,2.3-2,3.2-3.2
		l6.8,2.5l2.5-4.4l-5.6-4.7c0.5-1.5,0.9-2.9,1.2-4.4l7.2-1.2v-5.1l-7.2-1.2c0-0.1,0-0.3-0.1-0.4l-5.3,1.2
		c1.6,9.7-4.9,18.8-14.5,20.5c-8.6,1.5-17.3-4.1-19.7-13l-5.3,1.2c0.3,0.8,0.4,1.6,0.8,2.4l-5.6,4.7L5.3,47.2z"/>
	<path id="Path_137" class="st3" d="M37.8,29.5L23,32.6c1.5,4,5.9,6,9.8,4.5c3.1-1.1,5.1-4,5.1-7.2C37.8,29.9,37.8,29.8,37.8,29.5z"
		/>
</g>
</svg>
