<?xml version="1.0" encoding="utf-8"?>
<!-- Generator: Adobe Illustrator 24.0.3, SVG Export Plug-In . SVG Version: 6.00 Build 0)  -->
<svg version="1.1" id="Layer_1" xmlns="http://www.w3.org/2000/svg" xmlns:xlink="http://www.w3.org/1999/xlink" x="0px" y="0px"
	 width="60px" height="60px" viewBox="0 0 60 60" style="enable-background:new 0 0 60 60;" xml:space="preserve">
<style type="text/css">
	.st0{fill:#4C4C4C;}
	.st1{fill:#9C0000;}
	.st2{fill:#B50808;}
	.st3{fill:#C61818;}
	.st4{fill:#CE3129;}
</style>
<g>
	<path class="st0" d="M0,50.5h13L14,39.3L1.9,36.5L0,50.5z"/>
	<path class="st0" d="M2.3,34.7L14,37.4l2.8-9.8L7,22.6C7,22.6,2.3,34.7,2.3,34.7z"/>
	<path class="st0" d="M7.9,20.7l9.3,5.1l7.4-5.1l-7-7.9L7.9,20.7z"/>
	<path class="st0" d="M60,50.5H47L46,39.3l12.1-2.8L60,50.5z"/>
	<path class="st0" d="M57.7,34.7L46,37.4l-2.8-9.8l9.8-5.1L57.7,34.7z"/>
	<path class="st0" d="M52.1,20.7l-9.3,5.1l-7.4-5.1l7-7.9L52.1,20.7z"/>
	<path class="st0" d="M20,11.4l7,8.4h6.5l6-8.4l-6-1.9h-6.7L20,11.4z"/>
	<path class="st1" d="M0,50.5h13L14,39.3L1.9,36.5L0,50.5z"/>
	<path class="st2" d="M2.3,34.7L14,37.4l2.8-9.8L7,22.6C7,22.6,2.3,34.7,2.3,34.7z"/>
	<path class="st3" d="M7.9,20.7l9.3,5.1l7.4-5.1l-7-7.9L7.9,20.7z"/>
	<path class="st1" d="M60,50.5H47L46,39.3l12.1-2.8L60,50.5z"/>
	<path class="st2" d="M57.7,34.7L46,37.4l-2.8-9.8l9.8-5.1L57.7,34.7z"/>
	<path class="st3" d="M52.1,20.7l-9.3,5.1l-7.4-5.1l7-7.9L52.1,20.7z"/>
	<path class="st4" d="M20,11.4l7,8.4h6.5l6-8.4l-6-1.9h-6.7L20,11.4z"/>
</g>
</svg>
