<?xml version="1.0" encoding="UTF-8"?>
<svg width="85px" height="60px" viewBox="0 0 85 60" version="1.1" xmlns="http://www.w3.org/2000/svg" xmlns:xlink="http://www.w3.org/1999/xlink">
    <!-- Generator: sketchtool 52.4 (67378) - http://www.bohemiancoding.com/sketch -->
    <title>FAA170FF-027D-46E1-B4E1-067EEC07DCFE</title>
    <desc>Created with sketchtool.</desc>
    <g id="-" stroke="none" stroke-width="1" fill="none" fill-rule="evenodd">
        <g id="3.2_Login_V3" transform="translate(-1038.000000, -642.000000)" fill="#00A1E0">
            <g id="Logo's" transform="translate(840.000000, 632.000000)">
                <g id="Group-3" transform="translate(170.000000, 0.000000)">
                    <g id="Salesforce" transform="translate(28.000000, 10.000000)">
                        <path d="M35.9188855,7.29458818 C38.6276582,4.47215233 42.3988824,2.72173959 46.5697223,2.72173959 C52.1140918,2.72173959 56.9513568,5.81337767 59.5273231,10.4029766 C61.7658892,9.40274077 64.2437462,8.84638949 66.8508203,8.84638949 C76.8507859,8.84638949 84.9579606,17.0241551 84.9579606,27.1114619 C84.9579606,37.1999651 76.8507859,45.3777307 66.8508203,45.3777307 C65.6304368,45.3777307 64.4375718,45.2556923 63.2841898,45.0223837 C61.0157123,49.0687924 56.6929227,51.8026906 51.7312264,51.8026906 C49.6541816,51.8026906 47.6896036,51.3229124 45.9403873,50.4698405 C43.640802,55.8790107 38.2830793,59.671771 32.038784,59.671771 C25.5360545,59.671771 19.9940779,55.5571644 17.866782,49.786665 C16.937137,49.98408 15.9739912,50.0869751 14.9857199,50.0869751 C7.2434637,50.0869751 0.966864087,43.7457669 0.966864087,35.9221518 C0.966864087,30.6792888 3.78690703,26.1016544 7.97689022,23.6525123 C7.11424662,21.6675945 6.63446842,19.4768865 6.63446842,17.1737119 C6.63446842,8.17637505 13.9388223,0.882789227 22.9481237,0.882789227 C28.2376485,0.882789227 32.9385177,3.39773631 35.9188855,7.29458818 Z M13.1321724,31.3692836 C13.0795284,31.5068759 13.1513156,31.5355908 13.168066,31.5595199 C13.325998,31.6743795 13.4863229,31.7569348 13.6478442,31.8490618 C14.5045055,32.3037145 15.3133087,32.4365209 16.1592019,32.4365209 C17.8820962,32.4365209 18.9517264,31.5200369 18.9517264,30.0448086 L18.9517264,30.0160937 C18.9517264,28.6521358 17.7445039,28.1568037 16.6114617,27.7990638 L16.4642978,27.7512056 C15.6100294,27.4736282 14.8730135,27.2343373 14.8730135,26.6720038 L14.8730135,26.6420924 C14.8730135,26.1611178 15.303737,25.8069673 15.9713586,25.8069673 C16.7131603,25.8069673 17.5937507,26.0534369 18.1608701,26.3669079 C18.1608701,26.3669079 18.3271772,26.4745888 18.3881964,26.3130675 C18.4216971,26.2269228 18.7088462,25.4540132 18.7387575,25.3702614 C18.7710618,25.2793309 18.713632,25.2123295 18.6550057,25.1764358 C18.0077239,24.7828023 17.112776,24.5136001 16.1867204,24.5136001 L16.0144309,24.5147966 C14.4375041,24.5147966 13.3367661,25.4671742 13.3367661,26.8323287 L13.3367661,26.8610436 C13.3367661,28.3003782 14.5511672,28.7669954 15.6889953,29.092431 L15.8720529,29.1486643 C16.7011957,29.4035091 17.415479,29.6224603 17.415479,30.20633 L17.415479,30.2350449 C17.415479,30.7686635 16.9512547,31.1658864 16.2022743,31.1658864 C15.9115359,31.1658864 14.9842837,31.1599041 13.9828514,30.5269798 C13.8620095,30.4563889 13.7914187,30.4049414 13.6980953,30.3487081 C13.6490406,30.3176002 13.5258058,30.2637598 13.4719654,30.4264776 L13.1321724,31.3692836 Z M38.3546273,31.3692836 C38.3019834,31.5068759 38.3737706,31.5355908 38.390521,31.5595199 C38.548453,31.6743795 38.7087778,31.7569348 38.8702992,31.8490618 C39.7269605,32.3037145 40.5357637,32.4365209 41.3816569,32.4365209 C43.1045512,32.4365209 44.1741814,31.5200369 44.1741814,30.0448086 L44.1741814,30.0160937 C44.1741814,28.6521358 42.9669589,28.1568037 41.8339166,27.7990638 L41.6867528,27.7512056 C40.8324843,27.4736282 40.0954685,27.2343373 40.0954685,26.6720038 L40.0954685,26.6420924 C40.0954685,26.1611178 40.526192,25.8069673 41.1938136,25.8069673 C41.9356153,25.8069673 42.8162057,26.0534369 43.3833251,26.3669079 C43.3833251,26.3669079 43.5496322,26.4745888 43.6106514,26.3130675 C43.6441521,26.2269228 43.9313012,25.4540132 43.9612125,25.3702614 C43.9935168,25.2793309 43.936087,25.2123295 43.8774607,25.1764358 C43.2301789,24.7828023 42.335231,24.5136001 41.4091753,24.5136001 L41.2368859,24.5147966 C39.6599591,24.5147966 38.559221,25.4671742 38.559221,26.8323287 L38.559221,26.8610436 C38.559221,28.3003782 39.7736222,28.7669954 40.9114503,29.092431 L41.0945078,29.1486643 C41.9236507,29.4035091 42.6391304,29.6224603 42.6391304,30.20633 L42.6391304,30.2350449 C42.6391304,30.7686635 42.1737097,31.1658864 41.4247293,31.1658864 C41.1339908,31.1658864 40.2067387,31.1599041 39.2053064,30.5269798 C39.0844645,30.4563889 39.0126773,30.4073343 38.9217467,30.3487081 C38.8906389,30.3283683 38.7446715,30.272135 38.6944204,30.4264776 L38.3546273,31.3692836 Z M55.573285,28.4796082 C55.573285,29.3135369 55.4177459,29.9703903 55.1114536,30.4346146 C54.8087507,30.8940531 54.3505087,31.11779 53.711602,31.11779 C53.0714989,31.11779 52.6156498,30.8952495 52.3177327,30.4346146 C52.0162262,29.9715868 51.86308,29.3135369 51.86308,28.4796082 C51.86308,27.6468759 52.0162262,26.9912189 52.3177327,26.5317805 C52.6156498,26.0771278 53.0714989,25.8557837 53.711602,25.8557837 C54.3505087,25.8557837 54.8087507,26.0771278 55.1126501,26.5317805 C55.4177459,26.9912189 55.573285,27.6468759 55.573285,28.4796082 Z M57.0114232,26.9337891 C56.8702415,26.4564038 56.6500939,26.0352519 56.3569626,25.6846908 C56.0638313,25.3329332 55.6929305,25.0505699 55.2526352,24.8447798 C54.8135365,24.6401861 54.2942753,24.5360946 53.711602,24.5360946 C53.1277323,24.5360946 52.6084711,24.6401861 52.1693723,24.8447798 C51.7290771,25.0505699 51.3581763,25.3329332 51.0638485,25.6846908 C50.7719136,26.0364483 50.551766,26.4576003 50.409388,26.9337891 C50.2694028,27.4087815 50.198812,27.9280427 50.198812,28.4796082 C50.198812,29.0311736 50.2694028,29.5516313 50.409388,30.0254272 C50.551766,30.501616 50.7707172,30.922768 51.065045,31.2745256 C51.3581763,31.6262831 51.7302736,31.9074499 52.1693723,32.1072578 C52.6096675,32.3070657 53.1277323,32.4087643 53.711602,32.4087643 C54.2942753,32.4087643 54.81234,32.3070657 55.2526352,32.1072578 C55.691734,31.9074499 56.0638313,31.6262831 56.3569626,31.2745256 C56.6500939,30.9239644 56.8702415,30.5028125 57.0114232,30.0254272 C57.1526048,29.5504348 57.2231956,29.0299772 57.2231956,28.4796082 C57.2231956,27.9292392 57.1526048,27.4087815 57.0114232,26.9337891 Z M68.8212707,30.8951274 C68.7734125,30.7551422 68.6382132,30.8077862 68.6382132,30.8077862 C68.4288336,30.8879487 68.2062931,30.9621288 67.9693952,30.9992189 C67.7289078,31.036309 67.4644914,31.0554523 67.1809317,31.0554523 C66.4845953,31.0554523 65.9318334,30.8484657 65.535807,30.4392783 C65.1385841,30.0300909 64.9160436,29.3684516 64.9184365,28.4735038 C64.9208294,27.6587183 65.117048,27.0461337 65.470002,26.5795165 C65.8205631,26.1152922 66.3541818,25.8771978 67.0660721,25.8771978 C67.6595135,25.8771978 68.1117732,25.9453957 68.5855692,26.0949525 C68.5855692,26.0949525 68.6992323,26.1440071 68.7530728,25.9956468 C68.8787005,25.6462821 68.9720239,25.3962231 69.1060268,25.0121613 C69.1443134,24.9032839 69.0509899,24.8566222 69.0174892,24.8434612 C68.8308423,24.7704775 68.3905471,24.6520285 68.0579328,24.6017774 C67.7468547,24.5539193 67.3831325,24.5287937 66.9787309,24.5287937 C66.3745215,24.5287937 65.836117,24.6316888 65.3754821,24.8374789 C64.9160436,25.0420726 64.5259995,25.3244359 64.2173143,25.6761934 C63.908629,26.027951 63.674124,26.449103 63.5173885,26.9252918 C63.3618494,27.4002842 63.2828834,27.9219383 63.2828834,28.4735038 C63.2828834,29.6663688 63.6047296,30.630711 64.2400469,31.3366191 C64.8765606,32.04492 65.8325277,32.4050528 67.0792331,32.4050528 C67.816249,32.4050528 68.5724082,32.255496 69.1155984,32.0413307 C69.1155984,32.0413307 69.21969,31.9910796 69.1742247,31.8702377 L68.8212707,30.8951274 Z M71.3375229,27.680736 C71.4057208,27.2177081 71.5337414,26.8324498 71.7311564,26.5321398 C72.0290735,26.0762906 72.4837262,25.8262317 73.1226328,25.8262317 C73.7615394,25.8262317 74.1838878,26.0774871 74.4865908,26.5321398 C74.6875951,26.8324498 74.7749363,27.2344585 74.8096335,27.680736 L71.3375229,27.680736 Z M76.1795737,26.6625533 C76.0575354,26.2019184 75.7548324,25.7364976 75.556221,25.5235287 C75.24275,25.1861286 74.9364576,24.9504271 74.6325582,24.8188171 C74.2353354,24.6489206 73.7591465,24.5364539 73.2374924,24.5364539 C72.6296936,24.5364539 72.0781282,24.6381525 71.6306542,24.8487285 C71.1819838,25.0593044 70.8051007,25.3464535 70.5095765,25.7041933 C70.2140522,26.0607367 69.9915117,26.485478 69.8503301,26.9676492 C69.7079521,27.4474274 69.6361648,27.9702779 69.6361648,28.5218434 C69.6361648,29.0829805 69.710345,29.605831 69.8575088,30.0760376 C70.0058692,30.5498335 70.2427672,30.9673961 70.5634169,31.3131714 C70.8828702,31.6613396 71.2944505,31.9341312 71.7873897,32.1243675 C72.2767396,32.3134073 72.8713774,32.4115165 73.5545528,32.4103201 C74.9603867,32.4055342 75.700992,32.0920632 76.0060878,31.9233631 C76.0599283,31.8934518 76.1113758,31.8408078 76.0467673,31.6900545 L75.7285104,30.798696 C75.6806523,30.6658896 75.5454529,30.7149442 75.5454529,30.7149442 C75.1972847,30.8441613 74.7019526,31.0762734 73.5473741,31.0738805 C72.7924114,31.0726841 72.2324708,30.8501436 71.8819096,30.5019754 C71.5217769,30.145432 71.3458981,29.6213849 71.3147903,28.8819761 L76.1831631,28.886762 C76.1831631,28.886762 76.3111837,28.884369 76.3243447,28.7599378 C76.3291305,28.7072938 76.4918483,27.7597019 76.1795737,26.6625533 Z M32.3489048,27.680736 C32.4182992,27.2177081 32.5451234,26.8324498 32.7425383,26.5321398 C33.0404555,26.0762906 33.4951081,25.8262317 34.1340148,25.8262317 C34.7729214,25.8262317 35.1952698,26.0774871 35.4991692,26.5321398 C35.6989771,26.8324498 35.7863182,27.2344585 35.8210154,27.680736 L32.3489048,27.680736 Z M37.1897592,26.6625533 C37.0677209,26.2019184 36.7662144,25.7364976 36.5676029,25.5235287 C36.2541319,25.1861286 35.9478396,24.9504271 35.6439402,24.8188171 C35.2467173,24.6489206 34.7705285,24.5364539 34.2488744,24.5364539 C33.642272,24.5364539 33.0895101,24.6381525 32.6420362,24.8487285 C32.1933658,25.0593044 31.8164827,25.3464535 31.5209584,25.7041933 C31.2254342,26.0607367 31.0028937,26.485478 30.8617121,26.9676492 C30.7205305,27.4474274 30.6475467,27.9702779 30.6475467,28.5218434 C30.6475467,29.0829805 30.7217269,29.605831 30.8688908,30.0760376 C31.0172511,30.5498335 31.2541491,30.9673961 31.5747989,31.3131714 C31.8942522,31.6613396 32.3058325,31.9341312 32.7987717,32.1243675 C33.2881215,32.3134073 33.8827593,32.4115165 34.5659348,32.4103201 C35.9717687,32.4055342 36.7123739,32.0920632 37.0174698,31.9233631 C37.0713102,31.8934518 37.1227578,31.8408078 37.0581492,31.6900545 L36.7410888,30.798696 C36.6920342,30.6658896 36.5568349,30.7149442 36.5568349,30.7149442 C36.2086666,30.8441613 35.714531,31.0762734 34.5575596,31.0738805 C33.8037934,31.0726841 33.2438527,30.8501436 32.8932916,30.5019754 C32.5331588,30.145432 32.35728,29.6213849 32.3261722,28.8819761 L37.194545,28.886762 C37.194545,28.886762 37.3225657,28.884369 37.3357266,28.7599378 C37.3405125,28.7072938 37.5032303,27.7597019 37.1897592,26.6625533 Z M21.8259687,30.8684478 C21.6357325,30.7164981 21.6094105,30.6782116 21.544802,30.5801023 C21.4490856,30.4305455 21.400031,30.2175766 21.400031,29.947178 C21.400031,29.5188473 21.5412126,29.2113585 21.8343439,29.0043719 C21.8307546,29.0055684 22.253103,28.6394533 23.2461601,28.6526143 C23.943693,28.662186 24.5670457,28.765081 24.5670457,28.765081 L24.5670457,30.9785216 L24.5682422,30.9785216 C24.5682422,30.9785216 23.9496752,31.1113281 23.2533388,31.153204 C22.2626746,31.2130267 21.8223794,30.8672514 21.8259687,30.8684478 Z M23.7630284,27.4477848 C23.5656134,27.4334273 23.3095722,27.4250522 23.0032798,27.4250522 C22.5857173,27.4250522 22.1825121,27.4776961 21.8044326,27.5793948 C21.4239601,27.6810934 21.0817741,27.8402218 20.7874464,28.0507978 C20.4919221,28.2625702 20.2538277,28.5329689 20.0815383,28.8536187 C19.9092488,29.1742684 19.8219077,29.552348 19.8219077,29.9758929 C19.8219077,30.4066164 19.8960878,30.7811067 20.0444482,31.087399 C20.1928085,31.3948877 20.4069739,31.650929 20.6797655,31.848344 C20.9501641,32.0457589 21.2839749,32.1905299 21.6716261,32.2778711 C22.0532951,32.3652122 22.4864116,32.409481 22.9602075,32.409481 C23.459129,32.409481 23.956854,32.3688016 24.4390251,32.2862462 C24.9164104,32.2048874 25.502673,32.0864384 25.6653908,32.0493483 C25.8269121,32.0110617 26.0063803,31.9620071 26.0063803,31.9620071 C26.1272222,31.9320958 26.1176506,31.8028787 26.1176506,31.8028787 L26.1152576,27.350872 C26.1152576,26.3745652 25.8544306,25.6507103 25.3411517,25.2020399 C24.8302657,24.754566 24.0776959,24.5284361 23.1049785,24.5284361 C22.7400599,24.5284361 22.1526008,24.5786872 21.8008432,24.649278 C21.8008432,24.649278 20.7371953,24.8550682 20.299293,25.1972541 C20.299293,25.1972541 20.2035766,25.2570768 20.2562206,25.3910797 L20.6007995,26.3171354 C20.6438718,26.4367808 20.7599279,26.3961014 20.7599279,26.3961014 C20.7599279,26.3961014 20.797018,26.3817439 20.8400903,26.3566184 C21.7769141,25.8469288 22.9614039,25.8624828 22.9614039,25.8624828 C23.4878439,25.8624828 23.8922454,25.9677707 24.165037,26.1771503 C24.4306499,26.3805475 24.5658492,26.6880363 24.5658492,27.3365145 L24.5658492,27.5423047 C24.1470902,27.482482 23.7630284,27.4477848 23.7630284,27.4477848 Z M63.0285081,24.9392976 C63.0655981,24.8292238 62.9878286,24.7765798 62.9555243,24.7646153 C62.872969,24.732311 62.4589958,24.6449699 62.1395425,24.6246301 C61.5281543,24.58754 61.1883612,24.6904351 60.8844618,24.8268309 C60.5829553,24.9632267 60.2479481,25.1833743 60.0613012,25.4334333 L60.0613012,24.8411884 C60.0613012,24.758633 60.002675,24.692828 59.9213161,24.692828 L58.6734142,24.692828 C58.5920553,24.692828 58.533429,24.758633 58.533429,24.8411884 L58.533429,32.1024699 C58.533429,32.1838288 58.6004304,32.2508303 58.6817893,32.2508303 L59.9607991,32.2508303 C60.042158,32.2508303 60.107963,32.1838288 60.107963,32.1024699 L60.107963,28.4748203 C60.107963,27.9878634 60.1618034,27.5021029 60.2694843,27.197007 C60.3747723,26.8955005 60.5183468,26.6538167 60.695422,26.4803309 C60.8736937,26.3080414 61.0758945,26.1871995 61.2972386,26.1190016 C61.5233685,26.0496073 61.7734274,26.0268746 61.9505027,26.0268746 C62.2053475,26.0268746 62.4853178,26.0926796 62.4853178,26.0926796 C62.5786412,26.1034477 62.6312852,26.0460179 62.662393,25.9610697 C62.7461448,25.7385291 62.9830428,25.0721041 63.0285081,24.9392976 Z M51.0230442,21.5739156 C50.8675051,21.5260574 50.7263235,21.4937531 50.5420695,21.459056 C50.3554226,21.4255552 50.1328821,21.4088049 49.8804302,21.4088049 C48.9998398,21.4088049 48.3058963,21.6576674 47.8189394,22.1482137 C47.3343754,22.6363671 47.0053504,23.3793652 46.8402397,24.3568684 L46.780417,24.6858934 L45.6748931,24.6858934 C45.6748931,24.6858934 45.5408903,24.6811076 45.5121753,24.827075 L45.3315107,25.8404719 C45.3183497,25.9361882 45.3602256,25.9972074 45.4894427,25.9972074 L46.5650552,25.9972074 L45.4738888,32.089553 C45.3889406,32.5800993 45.2908313,32.9833044 45.1819539,33.2895967 C45.0754695,33.5911032 44.971378,33.8172331 44.8421609,33.9823438 C44.7177297,34.1402758 44.6004771,34.2575283 44.3970799,34.3257262 C44.2295763,34.3819596 44.0357507,34.4082816 43.8239782,34.4082816 C43.7067257,34.4082816 43.5499902,34.3891383 43.4339341,34.3652092 C43.3190745,34.3424766 43.2580553,34.317351 43.1707142,34.280261 C43.1707142,34.280261 43.0450864,34.2324028 42.9948354,34.3580305 C42.9553524,34.462122 42.6682033,35.2505854 42.6335061,35.3474983 C42.6000054,35.4444111 42.6478636,35.5197877 42.7088828,35.5425203 C42.8524573,35.5927714 42.9589417,35.6262721 43.1539638,35.6729338 C43.4243625,35.7363459 43.6528853,35.7399353 43.8670506,35.7399353 C44.3145245,35.7399353 44.7237119,35.6765232 45.0623085,35.5544849 C45.4021015,35.4312501 45.6988222,35.2170847 45.9620422,34.9275428 C46.2456019,34.6140717 46.4238736,34.2862432 46.5937701,33.8375728 C46.7624702,33.3948847 46.9072411,32.8445157 47.0221008,32.2032162 L48.1192494,25.9972074 L49.7224983,25.9972074 C49.7224983,25.9972074 49.8576976,26.0019932 49.8852161,25.8548293 L50.0670771,24.8426289 C50.0790417,24.7457161 50.0383622,24.6858934 49.9079487,24.6858934 L48.3513616,24.6858934 C48.3597367,24.6511962 48.4303276,24.1032201 48.6085993,23.5875483 C48.6851723,23.3685971 48.8287469,23.1903254 48.9495887,23.0682871 C49.0692342,22.9486416 49.2068264,22.8636934 49.3575797,22.8146388 C49.5119223,22.7643877 49.6878011,22.7404586 49.8804302,22.7404586 C50.0263977,22.7404586 50.1711687,22.7572089 50.280046,22.7799416 C50.4307993,22.8122458 50.4894255,22.8289962 50.5289085,22.8409608 C50.6880369,22.8888189 50.7095731,22.8421572 50.7406809,22.7655841 L51.1127782,21.7438121 C51.1510648,21.6337383 51.0565449,21.5870766 51.0230442,21.5739156 Z M29.274496,32.1028294 L29.274496,21.7128197 C29.274496,21.6314608 29.2158698,21.5656558 29.1345109,21.5656558 L27.8435366,21.5656558 C27.7621777,21.5656558 27.7047479,21.6314608 27.7047479,21.7128197 L27.7047479,32.1028294 C27.7047479,32.1841883 27.7621777,32.2499933 27.8435366,32.2499933 L29.1345109,32.2499933 C29.2158698,32.2499933 29.274496,32.1841883 29.274496,32.1028294 Z" id="Combined-Shape"></path>
                    </g>
                </g>
            </g>
        </g>
    </g>
</svg>