<?xml version="1.0" encoding="utf-8"?>
<!-- Generator: Adobe Illustrator 24.0.3, SVG Export Plug-In . SVG Version: 6.00 Build 0)  -->
<svg version="1.1" id="Layer_1" xmlns="http://www.w3.org/2000/svg" xmlns:xlink="http://www.w3.org/1999/xlink" x="0px" y="0px"
	 width="60px" height="60px" viewBox="0 0 60 60" style="enable-background:new 0 0 60 60;" xml:space="preserve">
<style type="text/css">
	.st0{fill:#809CC8;}
</style>
<path class="st0" d="M0,8.3V24c8.1-3.4,18.9-6.8,32.6-10.2c8.7-2.2,17.2-4,25.3-5.5H0z M60,11.6c-7.9,1.2-15,2.6-21.2,4.1
	c-7.1,1.8-12.9,3.6-17.2,5.5c-4.4,1.8-6.4,3.3-6.1,4.4c0.3,1,2.1,1.5,5.5,1.4c1.7,0,4.6-0.2,8.5-0.6s9-0.9,15.2-1.5
	c6.2-0.6,11.3-1.1,15.4-1.3V11.6L60,11.6z M42.4,31.6c-1.8,0-4.2,0.2-7.2,0.4c-3.1,0.2-6.9,0.6-11.5,1c-7.1,0.8-13.1,1.4-17.8,1.7
	c-2.3,0.2-4.2,0.3-5.9,0.4v12.8c9.3-1.4,17.8-3,25.3-4.9c7.4-1.9,13.1-3.7,17.1-5.4c4-1.8,5.9-3.2,5.6-4.4
	C47.7,32.1,45.9,31.6,42.4,31.6L42.4,31.6z M60,36.1c-8.2,3.2-18.4,6.4-30.6,9.4C18.1,48.3,8.3,50.4,0,51.6v0.1h60V36.1L60,36.1z
	 M2.5,38.7C2.5,38.7,2.6,38.7,2.5,38.7c0.2,0,0.4,0.1,0.5,0.2c0.2,0.2,0.2,0.4,0.1,0.6c-0.1,0.2-0.4,0.4-0.6,0.3
	c-0.3,0-0.5-0.3-0.5-0.6C2,39,2.2,38.8,2.5,38.7z M4.6,38.7c0.1,0,0.3,0,0.4,0.1c0.2,0.2,0.3,0.4,0.2,0.7c-0.1,0.2-0.3,0.4-0.6,0.4
	c-0.2,0-0.4-0.1-0.5-0.3c-0.1-0.3,0-0.6,0.2-0.7C4.4,38.8,4.5,38.7,4.6,38.7L4.6,38.7z M2.6,42.5c0.3,0,0.5,0.2,0.6,0.4
	c0.1,0.3,0,0.6-0.3,0.7c-0.3,0.1-0.6,0-0.7-0.2c-0.2-0.2-0.1-0.6,0.1-0.8C2.3,42.5,2.4,42.5,2.6,42.5L2.6,42.5z M4.6,42.5
	c0.2,0,0.4,0.1,0.5,0.3C5.3,43,5.2,43.4,5,43.5c-0.2,0.2-0.6,0.2-0.8-0.1C4,43.2,4,42.8,4.2,42.6C4.3,42.5,4.5,42.5,4.6,42.5
	L4.6,42.5z"/>
</svg>
