<?xml version="1.0" encoding="utf-8"?>
<!-- Generator: Adobe Illustrator 24.0.3, SVG Export Plug-In . SVG Version: 6.00 Build 0)  -->
<svg version="1.1" id="Layer_1" xmlns="http://www.w3.org/2000/svg" xmlns:xlink="http://www.w3.org/1999/xlink" x="0px" y="0px"
	 width="60px" height="60px" viewBox="0 0 60 60" style="enable-background:new 0 0 60 60;" xml:space="preserve">
<style type="text/css">
	.st0{fill:#088BB3;}
</style>
<g>
	<path class="st0" d="M45.7,13c-1.4-3.7-5-6.2-8.9-6.2c-1.3,0-2.6,0.2-3.7,0.8c-2.8-2.7-6.4-4.1-10.3-4.1c-7.8,0-14.4,6.1-14.9,13.9
		C3.1,19.3,0,23.8,0,29c0,7,5.7,12.7,12.7,12.7c1.4,0,3,0,4.7,0l0.8-5.1h-5.4c-4.2,0-7.6-3.5-7.6-7.7c0-3.5,2.4-6.5,5.8-7.4l2.1-0.5
		L13,18.7v-0.1c0-0.1,0-0.3,0-0.4c0-5.4,4.4-9.8,9.8-9.8c3,0,5.8,1.4,7.7,3.8l1.5,2l0.1-0.1c0.9-1.6,2.6-2.6,4.4-2.6
		c2.8,0,5.1,2.3,5.1,5.1c0,0.5-0.2,1.7-0.2,1.7v0.1l0.1-0.1c0,0,2-0.5,4-0.5c5.1,0,9.3,4.2,9.3,9.3c0,5.1-4.2,9.3-9.3,9.3h-3
		l-2.8,5.1c2.6,0,4.8,0,6,0C53.6,41.4,60,35,60,27.3C59.9,19.6,53.5,13.1,45.7,13z"/>
	<polygon class="st0" points="35,22.2 25.6,22.2 22.1,41.8 28.5,41.8 26.2,56.6 37.5,36.7 29.9,36.7 	"/>
</g>
</svg>
